<?xml version="1.0" encoding="utf-8"?>
<!-- Generator: Adobe Illustrator 24.3.0, SVG Export Plug-In . SVG Version: 6.00 Build 0)  -->
<svg version="1.1" id="Layer_1" xmlns="http://www.w3.org/2000/svg" xmlns:xlink="http://www.w3.org/1999/xlink" x="0px" y="0px"
	 viewBox="0 0 33.9 12" style="enable-background:new 0 0 33.9 12;" xml:space="preserve">
<style type="text/css">
	.st0{fill:#005CE4;}
	.st1{fill:#111111;}
</style>
<g>
	<path class="st0" d="M8.4,4.1L7.2,4.8v4.6l-1.9,1.1c-0.1,0-0.1,0.1-0.1,0.2V12c0,0,0,0,0.1,0l5.2-3c0,0,0,0,0-0.1V7.6
		c0-0.1-0.1-0.1-0.1-0.1L8.5,8.6V4.2C8.5,4.1,8.4,4.1,8.4,4.1"/>
	<path class="st0" d="M5.2,8.5L1.3,6.3V3.9c0-0.1,0-0.1-0.1-0.2L0.1,3.1c0,0-0.1,0-0.1,0.1v6c0,0.1,0,0.1,0.1,0.2L1.2,10
		c0.1,0,0.1,0,0.1-0.1V7.8L5,9.9c0.1,0,0.1,0,0.1-0.1L5.2,8.5L5.2,8.5z"/>
	<path class="st0" d="M3.2,4.9L7,2.7l1.8,1.1c0.1,0,0.1,0,0.2,0l1.1-0.6c0.1,0,0.1-0.1,0-0.2L4.9,0C4.8,0,4.8,0,4.7,0L3.6,0.7
		c-0.1,0-0.1,0.1,0,0.2l2,1.2L2.1,4C2,4.1,2,4.2,2.1,4.2L3.2,4.9z"/>
</g>
<g>
	<path class="st1" d="M31,9.5c-0.4,0-0.7-0.1-0.9-0.4l3.7-2.2c0.1-0.1,0.1-0.2,0.1-0.3l-0.2-0.4c-0.3-0.4-0.6-0.8-1.1-1.1
		c-0.5-0.3-1-0.4-1.5-0.4c-0.8,0-1.5,0.3-2.1,0.8c-0.6,0.6-0.9,1.3-0.9,2.1s0.3,1.6,0.9,2.1c0.6,0.6,1.3,0.9,2.1,0.9
		c0.5,0,1-0.1,1.5-0.4c0.4-0.2,0.8-0.6,1.1-1c0-0.1,0-0.1,0-0.2l-0.9-0.6C32.1,9.2,31.6,9.5,31,9.5 M29.5,7.2
		c0.1-0.3,0.3-0.6,0.6-0.7c0.2-0.2,0.6-0.3,1-0.3s0.7,0.2,1,0.4l-2.7,1.5C29.3,7.8,29.3,7.5,29.5,7.2"/>
	<path class="st1" d="M18.9,1.6h-6.8C12,1.6,12,1.7,12,1.7v1.1c0,0.1,0.1,0.1,0.1,0.1h2.7v7l1.2,0.7c0.1,0,0.2,0,0.2-0.1V2.9h2.7
		C19,2.9,19,2.8,19,2.8V1.7C19,1.7,18.9,1.6,18.9,1.6"/>
	<path class="st1" d="M18.4,10.6h1.1c0.1,0,0.1-0.1,0.1-0.1V6c0-0.1-0.1-0.1-0.2-0.1l-1.2,0.7v4C18.2,10.6,18.3,10.6,18.4,10.6"/>
	<path class="st1" d="M25.6,5.4c-0.4-0.4-1-0.6-1.7-0.6c-0.9,0-1.6,0.3-2.1,0.9c-0.6,0.5-0.9,1.2-0.9,2.1s0.3,1.6,0.8,2.1
		c0.6,0.6,1.3,0.9,2.1,0.9c0.3,0,0.5,0,0.7-0.1c0,0,0,0,0.1,0l2.3-1.3V1.7c0-0.1-0.1-0.1-0.2-0.1l-1.2,0.7L25.6,5.4z M25.1,9
		c-0.3,0.3-0.7,0.5-1.2,0.5S23,9.3,22.7,9c-0.3-0.3-0.5-0.7-0.5-1.2s0.2-0.9,0.5-1.2c0.4-0.3,0.8-0.5,1.3-0.5s0.9,0.2,1.2,0.5
		c0.3,0.3,0.5,0.7,0.5,1.2C25.6,8.2,25.5,8.6,25.1,9"/>
</g>
</svg>
