<?xml version="1.0" encoding="utf-8"?>
<!-- Generator: Adobe Illustrator 25.4.1, SVG Export Plug-In . SVG Version: 6.00 Build 0)  -->
<svg version="1.1" id="Layer_2_1_" xmlns="http://www.w3.org/2000/svg" xmlns:xlink="http://www.w3.org/1999/xlink" x="0px" y="0px"
	 viewBox="0 0 537.8 224.2" style="enable-background:new 0 0 537.8 224.2;" xml:space="preserve">
<style type="text/css">
	.st0{fill:#005CE3;}
	.st1{enable-background:new    ;}
</style>
<g id="Layer_2-2">
	<g id="concepts">
		<g>
			<path class="st0" d="M165.3,82.1L152,89.8v51.1l-21.8,12.6c-0.6,0.4-1,1-1,1.8v14c0,0.6,0.5,1.1,1.1,1.1c0.2,0,0.4,0,0.5-0.1
				l58.4-33.7c0.3-0.2,0.5-0.5,0.5-0.9V121c0-0.6-0.5-1-1.1-1c-0.2,0-0.4,0-0.5,0.1l-21.3,12.3V83c0-0.6-0.5-1-1.1-1
				C165.7,82,165.5,82.1,165.3,82.1z"/>
		</g>
		<g>
			<path class="st0" d="M129.2,130.8L86,105.9V79.3c0-0.8-0.4-1.5-1.1-1.9l-12.2-7c-0.5-0.3-1.2-0.1-1.4,0.4l0,0
				c-0.1,0.2-0.1,0.3-0.1,0.5v66.9c0,0.8,0.4,1.5,1.1,1.9l12.2,7c0.5,0.3,1.2,0.1,1.4-0.4l0,0c0.1-0.2,0.1-0.3,0.1-0.5V123l41.5,24
				c0.5,0.3,1.2,0.1,1.5-0.4c0.1-0.2,0.1-0.3,0.1-0.5L129.2,130.8z"/>
		</g>
		<g>
			<path class="st0" d="M107.5,90.5l41.9-24.2L170,78.2c0.7,0.4,1.5,0.4,2.1,0l12.2-7.1c0.5-0.2,0.7-0.8,0.5-1.3c0,0,0-0.1-0.1-0.1
				c-0.1-0.2-0.2-0.3-0.4-0.4l-57.9-33.4c-0.7-0.4-1.5-0.4-2.1,0l-12.2,7c-0.5,0.3-0.7,0.9-0.4,1.4c0.1,0.2,0.3,0.3,0.4,0.4
				l22.5,13.1L94.3,81c-0.5,0.3-0.7,0.9-0.4,1.5c0.1,0.2,0.2,0.3,0.4,0.4L107.5,90.5z"/>
		</g>
		<g>
			<path class="st0" d="M435.2,141.6c-3.8,0.1-7.5-1.3-10.3-4.1l41.5-24c1.2-0.7,1.7-2.3,1-3.5l0,0l0,0l-2.4-4c-3-5-7.3-9.1-12.4-12
				s-10.8-4.4-16.7-4.5c-8.8-0.1-17.2,3.2-23.5,9.3c-13.1,13.1-13.3,34.3-0.4,47.6c6.1,6.2,14.4,9.7,23.1,9.6
				c5.8,0.1,11.6-1.3,16.7-4c4.8-2.5,8.8-6.3,11.7-10.9c0.4-0.6,0.3-1.4-0.3-1.8h-0.1l-10.1-6.4
				C448.8,138.6,442.2,141.7,435.2,141.6z M418.5,115.9c1.4-3.4,3.9-6.2,7-8.1c3.2-2.3,7.1-3.3,11-3c4.2-0.1,8.1,1.7,10.8,4.9
				l-29.2,17.1C416.8,123.2,416.9,119.3,418.5,115.9L418.5,115.9z"/>
		</g>
		<g>
			<path class="st0" d="M300.5,54h-75.3c-0.7,0-1.3,0.6-1.3,1.3l0,0v12c0,0.7,0.6,1.3,1.3,1.3h30.1v78.6l13.1,7.6
				c0.6,0.3,1.4,0.1,1.7-0.6c0.1-0.2,0.1-0.4,0.1-0.5V68.6h30.1c0.7,0,1.3-0.6,1.3-1.3l0,0l0,0v-12C301.7,54.6,301.2,54.1,300.5,54z
				"/>
		</g>
		<g>
			<path class="st0" d="M294.6,154.8H307c0.7,0,1.3-0.6,1.3-1.3l0,0v-50.6c0-0.7-0.6-1.3-1.3-1.2l0,0c-0.2,0-0.4,0-0.5,0.1l-13,7.5
				v44.1C293.3,154.1,293.8,154.7,294.6,154.8L294.6,154.8z"/>
		</g>
		<g>
			<path class="st0" d="M375.6,96.7c-5.1-4.9-12-7.5-19.1-7.2c-8.9-0.3-17.5,3.2-23.7,9.7c-6.2,6.3-9.6,14.8-9.4,23.6
				c-0.3,8.9,3.1,17.5,9.4,23.8c6.2,6.3,14.8,9.8,23.6,9.5c2.7,0,5.5-0.3,8.1-1c0.2-0.1,0.5-0.2,0.7-0.3l25.3-14.5v-85
				c0-0.7-0.6-1.3-1.3-1.3c-0.2,0-0.4,0.1-0.5,0.1l-13.1,7.5V96.7z M370.4,136c-7.1,7.3-18.8,7.4-26.1,0.3l-0.5-0.5
				c-3.5-3.5-5.5-8.2-5.5-13.1c-0.1-4.9,1.8-9.7,5.3-13.3c3.5-3.7,8.5-5.6,13.5-5.5c4.9-0.1,9.7,1.8,13.1,5.4
				c7.1,7.4,7.1,19.2,0,26.6L370.4,136z"/>
		</g>
	</g>
	<g>
		<path class="st0" d="M26,172c18.2,20.8,44.2,32,75.2,32.6h70.2c0-1.7,0-2.7,0.1-5h-70.3c-65.5-1.2-95.3-51.1-95.2-97S36,7,101.5,6
			l333.7,0.4c53.5,0.1,96.7,43.5,96.7,96.9S488.4,200,435,200h-69.8c0,1.9,0,3.4,0,5.1H435c56.2,0.1,101.8-45.4,101.9-101.7
			S491.4,1.6,435.1,1.5L101.4,1.1c-31,0.5-57,11.7-75.3,32.4C9.9,51.8,1,76.5,1,102.7S9.9,153.5,26,172z"/>
		<path class="st0" d="M435,206.1h-0.1h-70.8V199h70.8h0.1c52.8,0,95.7-42.9,95.8-95.7c0-25.6-9.9-49.7-28-67.8
			c-18.1-18.1-42.1-28.1-67.7-28.1L101.5,7C36.7,8,7.1,57.3,7,102.6c-0.1,45.4,29.4,94.8,94.3,95.9h71.3v1c-0.1,2.3-0.1,3.3-0.1,5v1
			h-71.2c-31.3-0.6-57.6-12-76-32.9l0,0C8.9,154-0.1,129.2,0,102.7c0-26.5,9-51.3,25.4-69.9c18.5-20.9,44.8-32.2,76-32.7l333.7,0.4
			c27.5,0,53.3,10.8,72.6,30.2c19.4,19.4,30.1,45.3,30,72.7C537.7,160,491.6,206.1,435,206.1z M366.1,204.1h68.8h0.1
			c55.5,0,100.7-45.1,100.8-100.7c0-26.9-10.4-52.2-29.4-71.3c-19-19.1-44.3-29.6-71.2-29.6L101.4,2.1C70.8,2.6,45,13.7,26.9,34.1
			C10.8,52.3,2,76.7,2,102.7s8.8,50.3,24.8,68.6l0,0c18,20.5,43.8,31.7,74.5,32.3h69.2c0-0.9,0-1.8,0.1-3h-69.2
			C35,199.4,4.9,149,5,102.6C5.1,56.4,35.3,6.1,101.5,5l333.7,0.4c26.1,0,50.7,10.2,69.1,28.7s28.6,43.1,28.6,69.2
			c-0.1,53.9-43.9,97.7-97.8,97.7H435h-68.8v3.1H366.1z"/>
	</g>
</g>
<g class="st1">
	<path class="st0" d="M189.4,214.6v-27.2h5.5v27.2H189.4z"/>
	<path class="st0" d="M208.2,214.6v-27.2h5.3l11.1,18.1v-18.1h5.1v27.2h-5.5l-11-17.7v17.7H208.2z"/>
	<path class="st0" d="M242.1,205.8l5.3-0.5c0.3,1.8,1,3.1,2,3.9s2.3,1.3,4,1.3c1.8,0,3.1-0.4,4-1.1c0.9-0.7,1.3-1.6,1.3-2.6
		c0-0.6-0.2-1.2-0.6-1.6s-1-0.8-2-1.2c-0.6-0.2-2.1-0.6-4.4-1.2c-2.9-0.7-5-1.6-6.2-2.7c-1.7-1.5-2.5-3.3-2.5-5.5
		c0-1.4,0.4-2.7,1.2-3.9s1.9-2.1,3.4-2.8c1.5-0.6,3.3-0.9,5.3-0.9c3.4,0,6,0.7,7.7,2.2c1.7,1.5,2.6,3.5,2.7,6l-5.5,0.2
		c-0.2-1.4-0.7-2.4-1.5-3c-0.8-0.6-1.9-0.9-3.5-0.9s-2.8,0.3-3.7,1c-0.6,0.4-0.9,1-0.9,1.7c0,0.6,0.3,1.2,0.8,1.6
		c0.7,0.6,2.4,1.2,5,1.8c2.7,0.6,4.6,1.3,5.9,2s2.3,1.6,3,2.8s1.1,2.6,1.1,4.3c0,1.6-0.4,3-1.3,4.4s-2.1,2.4-3.7,3
		c-1.6,0.7-3.6,1-5.9,1c-3.4,0-6.1-0.8-7.9-2.4C243.6,211.1,242.5,208.8,242.1,205.8z"/>
	<path class="st0" d="M276.6,214.6v-27.2h5.5v27.2H276.6z"/>
	<path class="st0" d="M295.3,187.4h10c2.3,0,4,0.2,5.2,0.5c1.6,0.5,3,1.3,4.1,2.5s2,2.7,2.6,4.4s0.9,3.9,0.9,6.4
		c0,2.2-0.3,4.2-0.8,5.8c-0.7,2-1.6,3.6-2.9,4.8c-1,0.9-2.2,1.6-3.9,2.2c-1.2,0.4-2.8,0.6-4.9,0.6h-10.3L295.3,187.4L295.3,187.4z
		 M300.8,192v18h4.1c1.5,0,2.6-0.1,3.3-0.3c0.9-0.2,1.6-0.6,2.2-1.1s1.1-1.4,1.4-2.6s0.6-2.9,0.6-5s-0.2-3.7-0.6-4.8s-0.9-2-1.6-2.6
		s-1.5-1.1-2.5-1.3c-0.8-0.2-2.3-0.3-4.5-0.3L300.8,192L300.8,192z"/>
	<path class="st0" d="M330.7,214.6v-27.2h20.1v4.6h-14.7v6h13.6v4.6h-13.6v7.4h15.2v4.6L330.7,214.6L330.7,214.6z"/>
</g>
</svg>
