<?xml version="1.0" encoding="utf-8"?>
<!-- Generator: Adobe Illustrator 24.2.0, SVG Export Plug-In . SVG Version: 6.00 Build 0)  -->
<svg version="1.1" xmlns="http://www.w3.org/2000/svg" xmlns:xlink="http://www.w3.org/1999/xlink" x="0px" y="0px"
	 viewBox="0 0 34.1 12" style="enable-background:new 0 0 34.1 12;" xml:space="preserve">
<style type="text/css">
	.st0{fill:#AFAFAF;}
	.st1{fill:#3C4B5E;}
</style>
<g id="Layer_1">
	<g>
		<path class="st0" d="M29,9.7c-0.3,0-0.6-0.1-0.8-0.3l3.1-1.9c0.1-0.1,0.1-0.2,0.1-0.3l-0.2-0.3C31,6.6,30.8,6.2,30.3,6
			c-0.4-0.3-0.8-0.3-1.3-0.3c-0.7,0-1.3,0.3-1.8,0.7c-0.5,0.5-0.8,1.1-0.8,1.8c0,0.7,0.3,1.4,0.8,1.8c0.5,0.5,1.1,0.8,1.8,0.8
			c0.4,0,0.8-0.1,1.3-0.3c0.3-0.2,0.7-0.5,0.9-0.8c0-0.1,0-0.1,0-0.2l-0.8-0.5C29.9,9.5,29.5,9.7,29,9.7 M27.7,7.8
			c0.1-0.3,0.3-0.5,0.5-0.6c0.2-0.2,0.5-0.3,0.8-0.3s0.6,0.2,0.8,0.3l-2.3,1.3C27.5,8.3,27.5,8,27.7,7.8"/>
		<path class="st0" d="M18.7,3H13c-0.1,0-0.1,0.1-0.1,0.1V4c0,0.1,0.1,0.1,0.1,0.1h2.3V10l1,0.6c0.1,0,0.2,0,0.2-0.1V4.1h2.3
			c0.1,0,0.1-0.1,0.1-0.1L18.7,3C18.8,3.1,18.7,3,18.7,3"/>
		<path class="st0" d="M18.3,10.6h0.9c0.1,0,0.1-0.1,0.1-0.1V6.7c0-0.1-0.1-0.1-0.2-0.1l-1,0.6v3.4C18.2,10.6,18.2,10.6,18.3,10.6"
			/>
		<path class="st0" d="M24.4,6.2c-0.3-0.3-0.8-0.5-1.4-0.5c-0.8,0-1.4,0.3-1.8,0.8c-0.5,0.4-0.8,1-0.8,1.8c0,0.8,0.3,1.4,0.7,1.8
			c0.5,0.5,1.1,0.8,1.8,0.8c0.3,0,0.4,0,0.6-0.1c0,0,0,0,0.1,0l1.9-1.1V3.1C25.5,3,25.4,3,25.3,3l-1,0.6L24.4,6.2z M24,9.3
			c-0.3,0.3-0.6,0.4-1,0.4s-0.8-0.2-1-0.4s-0.4-0.6-0.4-1c0-0.4,0.2-0.8,0.4-1c0.3-0.3,0.7-0.4,1.1-0.4c0.4,0,0.8,0.2,1,0.4
			s0.4,0.6,0.4,1C24.4,8.6,24.3,8.9,24,9.3"/>
	</g>
</g>
<g id="Layer_2">
	<g>
		<path class="st1" d="M9.7,5.2l-1,0.6v3.9l-1.6,0.9C7,10.6,7,10.7,7,10.8v1.1c0,0,0,0,0.1,0l4.4-2.5c0,0,0,0,0-0.1V8.2
			c0-0.1-0.1-0.1-0.1-0.1L9.8,9L9.7,5.2C9.8,5.2,9.7,5.2,9.7,5.2"/>
		<path class="st1" d="M7,8.9L3.7,7.1v-2c0-0.1,0-0.1-0.1-0.2L2.7,4.4c0,0-0.1,0-0.1,0.1v5.1c0,0.1,0,0.1,0.1,0.2l0.9,0.5
			c0.1,0,0.1,0,0.1-0.1V8.4l3.1,1.8c0.1,0,0.1,0,0.1-0.1L7,8.9L7,8.9z"/>
		<path class="st1" d="M5.3,5.9L8.5,4L10.1,5c0.1,0,0.1,0,0.2,0l0.9-0.5c0.1,0,0.1-0.1,0-0.2L6.8,1.8c-0.1,0-0.1,0-0.2,0L5.7,2.3
			c-0.1,0-0.1,0.1,0,0.2l1.7,1l-3,1.6c-0.1,0.1-0.1,0.2,0,0.2L5.3,5.9z"/>
	</g>
</g>
</svg>
