<?xml version="1.0" encoding="utf-8"?>
<!-- Generator: Adobe Illustrator 25.0.0, SVG Export Plug-In . SVG Version: 6.00 Build 0)  -->
<svg version="1.1" id="Layer_1" focusable="false" xmlns="http://www.w3.org/2000/svg" xmlns:xlink="http://www.w3.org/1999/xlink"
	 x="0px" y="0px" viewBox="0 0 448 448" style="enable-background:new 0 0 448 448;" xml:space="preserve">
<style type="text/css">
	.st0{fill:#D8D8D8;}
</style>
<path class="st0" d="M416,176H272V32c0-17.7-14.3-32-32-32h-32c-17.7,0-32,14.3-32,32v144H32c-17.7,0-32,14.3-32,32v32
	c0,17.7,14.3,32,32,32h144v144c0,17.7,14.3,32,32,32h32c17.7,0,32-14.3,32-32V272h144c17.7,0,32-14.3,32-32v-32
	C448,190.3,433.7,176,416,176z"/>
</svg>
