<?xml version="1.0" encoding="utf-8"?>
<!-- Generator: Adobe Illustrator 23.0.1, SVG Export Plug-In . SVG Version: 6.00 Build 0)  -->
<svg version="1.1" id="Capa_1" xmlns="http://www.w3.org/2000/svg" xmlns:xlink="http://www.w3.org/1999/xlink" x="0px" y="0px"
	 viewBox="0 0 483.5 483.5" style="enable-background:new 0 0 483.5 483.5;" xml:space="preserve">
<style type="text/css">
	.st0{fill:#FFFFFF;}
</style>
<g>
	<g>
		<g>
			<path class="st0" d="M480,425L269.1,29.9c-5.3-9.9-15.6-16.1-26.8-16.1h0c-11.2,0-21.5,6.2-26.8,16.1L3.6,425
				c-5,9.5-4.8,20.9,0.7,30c5.5,9.1,15.4,14.8,26.1,14.8h422.7c10.7,0,20.6-5.6,26.1-14.8C484.7,445.8,485,434.5,480,425z
				 M242.2,409c-16.8,0-30.4-13.6-30.4-30.4s13.6-30.4,30.4-30.4c16.8,0,30.4,13.6,30.4,30.4S259,409,242.2,409z M272.7,287.9
				c0,16.8-13.6,30.4-30.4,30.4c-16.8,0-30.4-13.6-30.4-30.4V166.3c0-16.8,13.6-30.4,30.4-30.4c16.8,0,30.4,13.6,30.4,30.4V287.9z"
				/>
		</g>
	</g>
</g>
</svg>
