<?xml version="1.0" encoding="utf-8"?>
<!-- Generator: Adobe Illustrator 22.1.0, SVG Export Plug-In . SVG Version: 6.00 Build 0)  -->
<svg version="1.1" id="Layer_1" xmlns="http://www.w3.org/2000/svg" xmlns:xlink="http://www.w3.org/1999/xlink" x="0px" y="0px"
	 viewBox="0 0 275.5 92.7" style="enable-background:new 0 0 275.5 92.7;" xml:space="preserve">
<style type="text/css">
	.st0{fill:#111111;}
	.st1{fill:#005CE4;}
</style>
<g>
	<path class="st0" d="M248.9,72.6c-3,0-5.2-0.7-6.7-3l27.6-16.4c0.7-0.7,0.7-1.5,0.7-2.2l-1.5-3c-2.2-3-4.5-6-8.2-8.2
		c-3.7-2.2-7.4-3-11.2-3c-6,0-11.2,2.2-15.6,6c-4.5,4.5-6.7,9.7-6.7,15.6s2.2,11.9,6.7,15.6c4.5,4.5,9.7,6.7,15.6,6.7
		c3.7,0,7.4-0.7,11.2-3c3-1.5,6-4.5,8.2-7.4c0-0.7,0-0.7,0-1.5l-6.7-4.5C257.1,70.4,253.4,72.6,248.9,72.6 M237.7,55.5
		c0.7-2.2,2.2-4.5,4.5-5.2c1.5-1.5,4.5-2.2,7.4-2.2c3,0,5.2,1.5,7.4,3L237,62.2C236.3,60,236.3,57.7,237.7,55.5"/>
	<path class="st0" d="M158.8,13.8h-50.7c-0.7,0-0.7,0.7-0.7,0.7v8.2c0,0.7,0.7,0.7,0.7,0.7h20.1v52.1l8.9,5.2c0.7,0,1.5,0,1.5-0.7
		V23.5h20.1c0.7,0,0.7-0.7,0.7-0.7v-8.2C159.5,14.5,158.8,13.8,158.8,13.8"/>
	<path class="st0" d="M155.1,80.8h8.2c0.7,0,0.7-0.7,0.7-0.7V46.6c0-0.7-0.7-0.7-1.5-0.7l-8.9,5.2v29.8
		C153.6,80.8,154.3,80.8,155.1,80.8"/>
	<path class="st0" d="M208.7,42.1c-3-3-7.4-4.5-12.7-4.5c-6.7,0-11.9,2.2-15.6,6.7c-4.5,3.7-6.7,8.9-6.7,15.6s2.2,11.9,6,15.6
		c4.5,4.5,9.7,6.7,15.6,6.7c2.2,0,3.7,0,5.2-0.7c0,0,0,0,0.7,0l17.1-9.7V14.5c0-0.7-0.7-0.7-1.5-0.7L208,19L208.7,42.1z M205,68.9
		c-2.2,2.2-5.2,3.7-8.9,3.7s-6.7-1.5-8.9-3.7s-3.7-5.2-3.7-8.9s1.5-6.7,3.7-8.9c3-2.2,6-3.7,9.7-3.7c3.7,0,6.7,1.5,8.9,3.7
		c2.2,2.2,3.7,5.2,3.7,8.9C208.7,63,208,65.9,205,68.9"/>
</g>
<g>
	<path class="st1" d="M67.5,32.2l-8.9,5.2v34.2l-14.1,8.2c-0.7,0-0.7,0.7-0.7,1.5V91c0,0,0,0,0.7,0l38.7-22.3c0,0,0,0,0-0.7v-9.7
		c0-0.7-0.7-0.7-0.7-0.7l-14.1,8.2V32.9C68.3,32.2,67.5,32.2,67.5,32.2"/>
	<path class="st1" d="M43.7,65l-29-16.4V30.7c0-0.7,0-0.7-0.7-1.5l-8.2-4.5c0,0-0.7,0-0.7,0.7v44.7c0,0.7,0,0.7,0.7,1.5l8.2,4.5
		c0.7,0,0.7,0,0.7-0.7V59.7l27.5,15.6c0.7,0,0.7,0,0.7-0.7V65H43.7z"/>
	<path class="st1" d="M28.8,38.2l28.3-16.4L70.5,30c0.7,0,0.7,0,1.5,0l8.2-4.5c0.7,0,0.7-0.7,0-1.5L41.5,1.7c-0.7,0-0.7,0-1.5,0
		l-8.2,5.2c-0.7,0-0.7,0.7,0,1.5l14.9,8.9L20.6,31.5c-0.7,0.7-0.7,1.5,0,1.5L28.8,38.2z"/>
</g>
</svg>
