<?xml version="1.0" encoding="utf-8"?>
<!-- Generator: Adobe Illustrator 23.0.1, SVG Export Plug-In . SVG Version: 6.00 Build 0)  -->
<svg version="1.1" id="Layer_1" xmlns="http://www.w3.org/2000/svg" xmlns:xlink="http://www.w3.org/1999/xlink" x="0px" y="0px"
	 viewBox="0 0 78.1 89.3" style="enable-background:new 0 0 78.1 89.3;" xml:space="preserve">
<style type="text/css">
	.st0{fill:#FFFFFF;}
</style>
<g>
	<path class="st0" d="M62.4,30.5l-8.9,5.2v34.2l-14.1,8.2c-0.7,0-0.7,0.7-0.7,1.5v9.7c0,0,0,0,0.7,0L78.1,67c0,0,0,0,0-0.7v-9.7
		c0-0.7-0.7-0.7-0.7-0.7l-14.1,8.2V31.2C63.2,30.5,62.4,30.5,62.4,30.5"/>
	<path class="st0" d="M38.6,63.3l-29-16.4V29c0-0.7,0-0.7-0.7-1.5L0.7,23c0,0-0.7,0-0.7,0.7v44.7c0,0.7,0,0.7,0.7,1.5l8.2,4.5
		c0.7,0,0.7,0,0.7-0.7V58l27.5,15.6c0.7,0,0.7,0,0.7-0.7v-9.6H38.6z"/>
	<path class="st0" d="M23.7,36.5L52,20.1l13.4,8.2c0.7,0,0.7,0,1.5,0l8.2-4.5c0.7,0,0.7-0.7,0-1.5L36.4,0c-0.7,0-0.7,0-1.5,0
		l-8.2,5.2c-0.7,0-0.7,0.7,0,1.5l14.9,8.9L15.5,29.8c-0.7,0.7-0.7,1.5,0,1.5L23.7,36.5z"/>
</g>
</svg>
