<?xml version="1.0" encoding="utf-8"?>
<!-- Generator: Adobe Illustrator 16.0.0, SVG Export Plug-In . SVG Version: 6.00 Build 0)  -->
<!DOCTYPE svg PUBLIC "-//W3C//DTD SVG 1.1//EN" "http://www.w3.org/Graphics/SVG/1.1/DTD/svg11.dtd">
<svg version="1.1" id="Layer_1" xmlns="http://www.w3.org/2000/svg" xmlns:xlink="http://www.w3.org/1999/xlink" x="0px" y="0px"
	 width="200px" height="200px" viewBox="0 0 200 200" enable-background="new 0 0 200 200" xml:space="preserve">
<g>
	<path fill-rule="evenodd" clip-rule="evenodd" fill="#999999" d="M28.219,25.303c2.713,0.826,5.5,5.604,6.376-0.392
		c0.628-4.286,0.124-8.752,0.124-13.161c-8.23,0-15.706,0-23.466,0c0,8.189,0,16.11,0,24.61c4.076,0,7.892,0,11.834,0
		c-0.635,2.478-1.122,4.369-1.606,6.26c5.183-7.427,5.211-7.645,2.533-12.549C25.391,28.51,26.771,26.944,28.219,25.303z"/>
	<path fill-rule="evenodd" clip-rule="evenodd" fill="#999999" d="M46.565,76.709c0.936-0.687,1.985-1.257,2.783-2.087
		c1.748-1.816,3.366-3.764,5.038-5.659c0.518,0.388,1.035,0.777,1.555,1.166c-1.673,12.867-3.845,25.694-4.833,38.618
		c-0.599,7.846-3.949,12.412-10.595,15.03c-3.866,1.522-5.134,4.253-4.966,8.64c0.356,9.379,0.109,18.785,0.109,28.181
		c-0.615,0.006-1.23,0.014-1.846,0.021c0-29.926,0-59.854,0-89.781c-0.713-0.047-1.426-0.093-2.14-0.141
		c-0.208,1.859-0.595,3.718-0.597,5.578c-0.039,26.639-0.193,53.278,0.086,79.914c0.077,7.203-1.023,13.65-4.676,19.836
		c-3.453,5.848-6.286,12.09-10.418,17.935c0-5.749,0-11.498,0-17.742c-4.963,0-9.351,0-14.062,0c0-36.343,0-72.168,0-108.478
		c4.507,0,8.899,0,13.671,0c0-6.613,0-12.75,0-19.433c-5.186,0-10.248,0-15.674,0C0,31.977,0,16.183,0,0c15.168,0,30.316,0,45.948,0
		c0,5.393,0,10.685,0,16.382c6.552,0,12.634,0,19.386,0c0-4.67,0-9.375,0-14.415c35.018,0,69.373,0,104.174,0
		c0,4.864,0,9.454,0,14.586c5.326,0,10.227,0,15.126,0c0.138,0.419,0.271,0.841,0.406,1.261c-4.022,2.291-8.247,4.27-12.022,6.939
		c-8.305,5.871-17.279,7.41-27.227,7.152c-21.602-0.558-43.223-0.13-64.838-0.188c-6.927-0.018-14.695,2.25-18.233-7.444
		c-1.777,1.535-2.911,2.513-4.283,3.699c-2.713-3.41-9.566-1.175-9.149-8.543c-2.453-0.188-4.769-0.368-7.7-0.594
		c0-4.731,0-9.283,0-14.16c-12.694,0-24.748,0-37.123,0c0,12.679,0,25.111,0,38.205c4.419,0,8.774,0,13.529,0
		c0.244,3.01,0.438,5.411,0.629,7.77c5.563,1.623,8.841,9.606,6.027,14.548c1.58,1.558,3.167,3.125,4.769,4.705
		c4.176-2.447,10.194-0.219,12.599,4.178c0.762,1.389,3.069,1.859,4.682,2.762c-4.697,1.953-7.689-0.699-10.353-5.24
		c-1.053,3.904-1.087,5.772,2.36,7.433c5.792,2.79,5.801,10.709,0.006,13.49c-3.453,1.656-3.402,3.525-2.834,5.752
		c3.16-0.167,5.92-0.313,9.459-0.5C45.728,91.09,46.147,83.9,46.565,76.709z M152.537,6.077c-5.836,0.031-10.496,4.958-10.35,10.945
		c0.142,5.744,4.748,10.54,10.23,10.651c5.674,0.115,10.555-4.853,10.611-10.797C163.088,10.912,158.36,6.046,152.537,6.077z
		 M15.474,166.396c5.894,0.027,10.418-4.686,10.389-10.821c-0.028-5.826-4.461-10.571-10.03-10.737
		c-5.677-0.171-10.629,4.73-10.747,10.633C4.968,161.414,9.68,166.37,15.474,166.396z M135.795,16.964
		c0.076-5.59-3.854-9.826-9.196-9.911c-5.28-0.083-9.474,4.135-9.542,9.605c-0.07,5.409,4.09,9.908,9.244,10.001
		C131.472,26.751,135.719,22.413,135.795,16.964z M6.04,128.324c-0.046,5.294,4.277,9.882,9.386,9.955
		c5.139,0.076,9.46-4.347,9.527-9.744c0.064-5.445-4.071-9.827-9.323-9.877C10.453,118.61,6.089,123.011,6.04,128.324z
		 M15.344,94.643c-4.59,0.129-8.415,4.265-8.379,9.062c0.038,5.037,4.203,9.121,9.027,8.852c4.581-0.256,8.37-4.547,8.181-9.264
		C23.984,98.553,19.863,94.516,15.344,94.643z M102.691,7.831c-4.626,0-8.43,3.962-8.484,8.837c-0.059,5.182,3.807,9.172,8.74,9.031
		c4.722-0.137,8.271-4.038,8.217-9.032C111.111,11.772,107.33,7.831,102.691,7.831z M7.83,81.001
		c0.008,4.591,3.478,8.134,7.871,8.039c4.164-0.09,7.5-3.508,7.631-7.815c0.137-4.469-3.368-8.282-7.667-8.343
		C11.313,72.819,7.821,76.438,7.83,81.001z M80.987,24.8c4.463-0.015,7.816-3.567,7.723-8.182c-0.085-4.267-3.473-7.854-7.539-7.98
		c-4.184-0.13-7.992,3.674-8.061,8.054C73.04,21.145,76.604,24.815,80.987,24.8z M42.851,109.688
		c-2.517-0.445-4.72-0.836-6.859-1.215c0,3.202,0,6.26,0,9.923C39.771,116.273,44.271,115.751,42.851,109.688z"/>
	<path fill-rule="evenodd" clip-rule="evenodd" fill="#999999" d="M22.198,47.464c2.351-4.25,4.702-8.498,6.968-12.593
		c-0.591-1.937-1.098-3.594-1.604-5.252c1.608,0.298,3.216,0.596,5.797,1.073c3.883-2.477,8.635-5.508,13.36-8.523
		c0.391,7.403,8.917,3.939,11.732,8.996c1.154-0.976,1.923-2.143,2.714-2.159c0.919-0.018,1.858,0.973,2.786,1.526
		c-4.932,5.366,2.602,8.524,2.317,13.233c-0.071,1.191,2.814,2.575,4.339,3.87c-1.458,1.116-4.18,2.256-4.161,3.344
		c0.087,4.797-6.435,8.164-2.606,13.571c-0.83,0.509-1.772,1.583-2.47,1.432c-3.575-0.776-12.1,2.788-14.287,5.943
		c-0.394,0.567-2.491,0.761-2.817,0.325c-2.869-3.815-9.428-6.547-14.109-5.859c-0.674,0.1-2.269-1.275-2.189-1.738
		c1.249-7.332-1.469-12.74-7.111-16.867c-0.078-0.058-0.009-0.336-0.009-0.511C21.299,47.334,21.75,47.399,22.198,47.464z
		 M45.877,61.798c2.882-1.308,6.349-2.88,9.473-4.298c1.272-3.245,2.692-6.866,3.963-10.106c-1.308-3.232-2.743-6.781-4.054-10.027
		c-3.093-1.28-6.65-2.754-9.347-3.872c-3.547,1.432-6.997,2.827-10.047,4.06c-1.271,3.18-2.681,6.705-3.879,9.702
		c1.363,3.523,2.823,7.298,3.983,10.298C39.35,59.004,42.671,60.425,45.877,61.798z"/>
	<path fill-rule="evenodd" clip-rule="evenodd" fill="#999999" d="M67.261,58.104c-0.538-7.361,5.004-7.688,9.093-8.704
		c5.779-1.436,11.791-1.858,17.483-2.682c0.149-3.171,0.284-6.062,0.429-9.188c-2.357-0.881-3.978-0.393-5.469,2.87
		c-2.443,5.346-9.558,6.084-12.146,1.143c-2.029-3.876-4.384-4.692-8.024-4.388c-0.962,0.081-1.99-0.692-2.805-2.083
		c29.74,0,59.479,0,89.217,0c0.049,0.536,0.097,1.071,0.146,1.607c-1.482,0.176-2.963,0.497-4.445,0.505
		c-8.396,0.051-16.793,0.151-25.184-0.042c-2.947-0.067-5.061,0.736-5.98,3.684c-2.982,9.568-9.835,12.27-18.785,12.856
		c-9.198,0.604-18.314,2.529-27.472,3.834C71.316,57.803,69.294,57.911,67.261,58.104z M113.385,37.52c-3.373,0-6.336,0-9.166,0
		c0.369,2.668,0.691,5.029,1.003,7.292C110.832,45.88,111.768,41.68,113.385,37.52z"/>
	<path fill-rule="evenodd" clip-rule="evenodd" fill="#999999" d="M28.219,25.303c-1.447,1.641-2.828,3.207-4.205,4.768
		c2.678,4.905,2.649,5.123-2.533,12.549c0.485-1.891,0.971-3.783,1.606-6.26c-3.942,0-7.758,0-11.834,0c0-8.5,0-16.421,0-24.61
		c7.76,0,15.236,0,23.466,0c0,4.409,0.505,8.875-0.124,13.161C33.719,30.908,30.932,26.129,28.219,25.303z"/>
	<path fill-rule="evenodd" clip-rule="evenodd" fill="#999999" d="M152.418,8.269c4.766-0.101,8.545,3.733,8.494,8.615
		c-0.049,4.561-3.766,8.511-8.12,8.624c-4.541,0.119-8.522-3.995-8.485-8.767C144.344,12.048,147.869,8.366,152.418,8.269z
		 M153.908,9.884c-0.799-0.016-1.596-0.031-2.391-0.046c-1.459,2.217-4.109,4.491-4.013,6.63c0.085,1.903,3.189,5.037,5.019,5.081
		c1.797,0.043,5.002-3,5.151-4.898C157.842,14.518,155.281,12.149,153.908,9.884z"/>
	<path fill-rule="evenodd" clip-rule="evenodd" fill="#999999" d="M7.181,155.652c0.014-4.726,4.074-8.808,8.607-8.652
		c4.445,0.152,7.96,3.979,7.961,8.668c0.001,4.956-3.718,8.701-8.491,8.552C10.78,164.079,7.167,160.247,7.181,155.652z
		 M14.684,162.008c0.816,0.012,1.632,0.022,2.449,0.035c1.402-2.178,3.973-4.423,3.859-6.509c-0.104-1.898-2.897-4.704-4.917-5.174
		c-3.293-0.764-5.709,1.938-5.188,5.4C11.224,157.996,13.356,159.937,14.684,162.008z"/>
	<path fill-rule="evenodd" clip-rule="evenodd" fill="#999999" d="M126.523,8.913c4.109,0.053,7.419,3.624,7.383,7.967
		c-0.037,4.421-3.299,7.773-7.524,7.732c-4.201-0.043-7.396-3.467-7.356-7.887C119.063,12.351,122.414,8.862,126.523,8.913z
		 M127.339,10.559c-0.717,0.029-1.434,0.058-2.152,0.086c-1.218,1.971-3.619,4.152-3.339,5.857c0.305,1.865,3.116,4.586,4.777,4.542
		c1.623-0.042,4.266-3,4.43-4.872C131.209,14.436,128.684,12.441,127.339,10.559z"/>
	<path fill-rule="evenodd" clip-rule="evenodd" fill="#999999" d="M15.654,120.528c4.061,0.081,7.556,3.825,7.478,8.01
		c-0.078,4.254-3.597,7.768-7.709,7.701c-4.124-0.066-7.499-3.672-7.435-7.95C8.051,124.018,11.581,120.445,15.654,120.528z
		 M8.793,128.207c3.345,2.513,5.285,5.096,6.99,4.938c1.79-0.168,4.617-2.922,4.666-4.618c0.048-1.683-2.641-4.593-4.42-4.861
		C14.337,123.411,12.27,125.882,8.793,128.207z"/>
	<path fill-rule="evenodd" clip-rule="evenodd" fill="#999999" d="M15.6,96.508c3.753,0.037,6.784,3.248,6.766,7.165
		c-0.021,3.984-2.997,7.015-6.862,6.988c-3.894-0.026-6.745-3.041-6.711-7.092C8.828,99.535,11.781,96.472,15.6,96.508z
		 M9.621,103.482c2.891,2.179,4.598,4.447,6.33,4.467c1.436,0.018,4.259-2.893,4.048-4.011c-0.353-1.868-2.431-4.263-4.172-4.679
		C14.505,98.941,12.58,101.349,9.621,103.482z"/>
	<path fill-rule="evenodd" clip-rule="evenodd" fill="#999999" d="M95.813,16.99c-0.106-3.812,3.011-7.238,6.68-7.348
		c3.665-0.108,6.982,3.125,7.105,6.928c0.125,3.844-2.938,7.162-6.703,7.261C99.045,23.935,95.924,20.919,95.813,16.99z
		 M96.408,16.421c3.008,2.163,4.764,4.396,6.455,4.344c1.424-0.045,4.07-3.002,3.85-4.207c-0.328-1.802-2.52-4.088-4.264-4.471
		C101.156,11.802,99.317,14.214,96.408,16.421z"/>
	<path fill-rule="evenodd" clip-rule="evenodd" fill="#999999" d="M15.345,74.518c3.819,0.312,6.199,2.256,6.28,6.329
		c0.081,4.065-2.228,6.451-5.963,6.552c-3.767,0.101-6.222-2.343-6.302-6.265C9.282,77.224,11.594,74.972,15.345,74.518z
		 M10.021,80.598c2.683,2.179,4.299,4.44,5.462,4.21c1.661-0.33,2.991-2.481,4.462-3.853c-1.318-1.342-2.504-3.524-3.995-3.782
		C14.604,76.942,12.924,78.812,10.021,80.598z"/>
	<path fill-rule="evenodd" clip-rule="evenodd" fill="#999999" d="M87.243,16.531c-0.301,4.038-2.337,6.593-6.078,6.705
		c-3.707,0.111-6.2-2.124-6.302-6.203c-0.101-4.026,2.037-6.381,5.908-6.549C84.714,10.312,86.612,12.79,87.243,16.531z
		 M80.875,10.496c-1.835,2.744-3.943,4.575-3.655,5.786c0.395,1.657,2.612,2.842,4.047,4.229c1.245-1.421,3.39-2.783,3.479-4.277
		C84.83,14.78,82.809,13.193,80.875,10.496z"/>
	<path fill-rule="evenodd" clip-rule="evenodd" fill="#999999" d="M45.755,53.765c-3.745-0.277-6.008-2.279-6.077-6.367
		c-0.063-3.867,2.177-6.12,5.631-6.35c3.802-0.252,6.287,2.175,6.458,6.083C51.937,51.043,49.743,53.398,45.755,53.765z
		 M46.348,41.481c-2.166,2.642-4.237,4.058-4.227,5.459c0.011,1.496,1.986,2.974,3.105,4.46c1.413-1.17,3.667-2.129,3.997-3.568
		C49.54,46.455,47.855,44.579,46.348,41.481z"/>
</g>
</svg>
