<?xml version="1.0" encoding="utf-8"?>
<!-- Generator: Adobe Illustrator 23.0.1, SVG Export Plug-In . SVG Version: 6.00 Build 0)  -->
<svg version="1.1" id="Capa_1" xmlns="http://www.w3.org/2000/svg" xmlns:xlink="http://www.w3.org/1999/xlink" x="0px" y="0px"
	 viewBox="0 0 200 200" style="enable-background:new 0 0 200 200;" xml:space="preserve">
<style type="text/css">
	.st0{fill:#FFFFFF;stroke:#000000;stroke-miterlimit:10;}
	.st1{fill:#005CE3;}
</style>
<rect x="42.5" y="80.3" class="st0" width="116.4" height="107.7"/>
<path class="st1" d="M147.5,70.2V47.1c0-25.9-21.2-47.1-47.1-47.1S53.3,21.2,53.3,47.1c0,4.7,3.8,8.5,8.5,8.5s8.5-3.8,8.5-8.5
	c0-16.6,13.6-30.2,30.2-30.2c16.6,0,30.2,13.6,30.2,30.2v22.5H58c-15.3,0-28,12.7-28,28V172c0,15.3,12.7,28,28,28H142
	c15.7,0,28-12.7,28-28V97.7C170.1,84.2,160.3,72.8,147.5,70.2z M153.5,171.9c0,6.4-5.1,11.5-11.5,11.5H58c-6.4,0-11.5-5.1-11.5-11.5
	V97.7c0-6.4,5.1-11.5,11.5-11.5H142c6.4,0,11.5,5.1,11.5,11.5V171.9z"/>
<path class="st1" d="M116,128.9l-6.1,3.5V156l-10.1,5.8c-0.3,0.2-0.5,0.5-0.5,0.8v6.5c0,0.4,0.4,0.6,0.7,0.4l26.9-15.6
	c0.2-0.1,0.2-0.2,0.2-0.4v-6.8c0-0.4-0.4-0.6-0.7-0.4l-9.8,5.7v-22.7C116.8,129,116.4,128.7,116,128.9"/>
<path class="st1" d="M99.4,151.3l-19.9-11.5v-12.3c0-0.3-0.2-0.7-0.5-0.8l-5.6-3.2c-0.3-0.2-0.7,0-0.7,0.4v30.8
	c0,0.3,0.2,0.7,0.5,0.8l5.6,3.2c0.3,0.2,0.7,0,0.7-0.4v-10.7l19.1,11c0.3,0.2,0.7,0,0.7-0.4L99.4,151.3L99.4,151.3z"/>
<path class="st1" d="M89.4,132.8l19.3-11.1l9.5,5.5c0.3,0.2,0.7,0.2,1,0l5.6-3.2c0.3-0.2,0.3-0.7,0-0.8l-26.7-15.4
	c-0.3-0.2-0.7-0.2-1,0l-5.6,3.2c-0.3,0.2-0.3,0.7,0,0.8l10.4,6l-18.6,10.7c-0.3,0.2-0.3,0.7,0,0.8L89.4,132.8z"/>
</svg>
