<?xml version="1.0" encoding="utf-8"?>
<!-- Generator: Adobe Illustrator 23.0.1, SVG Export Plug-In . SVG Version: 6.00 Build 0)  -->
<svg version="1.1" id="Capa_1" xmlns="http://www.w3.org/2000/svg" xmlns:xlink="http://www.w3.org/1999/xlink" x="0px" y="0px"
	 viewBox="0 0 200 200" style="enable-background:new 0 0 200 200;" xml:space="preserve">
<style type="text/css">
	.st0{fill:#FFFFFF;}
	.st1{fill:#777777;}
</style>
<g id="Layer_2">
	<rect x="40.7" y="80.5" class="st0" width="118.6" height="107.1"/>
</g>
<path class="st1" d="M147.1,70.1v-23C147.1,21.2,125.9,0,100,0S52.9,21.2,52.9,47.1v23c-12.9,2.4-22.9,14-22.9,27.5V172
	c0,15.3,12.7,28,28,28H142c15.7,0,28-12.7,28-28V97.7C170.1,84.1,160,72.6,147.1,70.1z M70.3,47.5c0-16.6,13.6-30.2,30.2-30.2
	c16.6,0,30.2,13.6,30.2,30.2v22.1H70.3V47.5z M153.5,171.9c0,6.4-5.1,11.5-11.5,11.5H58c-6.4,0-11.5-5.1-11.5-11.5V97.7
	c0-6.4,5.1-11.5,11.5-11.5H142c6.4,0,11.5,5.1,11.5,11.5V171.9z"/>
<path class="st1" d="M116,128.9l-6.1,3.5V156l-10.1,5.8c-0.3,0.2-0.5,0.5-0.5,0.8v6.5c0,0.4,0.4,0.6,0.7,0.4l26.9-15.6
	c0.2-0.1,0.2-0.2,0.2-0.4v-6.8c0-0.4-0.4-0.6-0.7-0.4l-9.8,5.7v-22.7C116.8,129,116.4,128.7,116,128.9"/>
<path class="st1" d="M99.4,151.3l-19.9-11.5v-12.3c0-0.3-0.2-0.7-0.5-0.8l-5.6-3.2c-0.3-0.2-0.7,0-0.7,0.4v30.8
	c0,0.3,0.2,0.7,0.5,0.8l5.6,3.2c0.3,0.2,0.7,0,0.7-0.4v-10.7l19.1,11c0.3,0.2,0.7,0,0.7-0.4L99.4,151.3L99.4,151.3z"/>
<path class="st1" d="M89.4,132.8l19.3-11.1l9.5,5.5c0.3,0.2,0.7,0.2,1,0l5.6-3.2c0.3-0.2,0.3-0.7,0-0.8l-26.7-15.4
	c-0.3-0.2-0.7-0.2-1,0l-5.6,3.2c-0.3,0.2-0.3,0.7,0,0.8l10.4,6l-18.6,10.7c-0.3,0.2-0.3,0.7,0,0.8L89.4,132.8z"/>
</svg>
