<?xml version="1.0" encoding="utf-8"?>
<!-- Generator: Adobe Illustrator 24.2.0, SVG Export Plug-In . SVG Version: 6.00 Build 0)  -->
<svg version="1.1" id="Layer_1" focusable="false" xmlns="http://www.w3.org/2000/svg" xmlns:xlink="http://www.w3.org/1999/xlink"
	 x="0px" y="0px" viewBox="0 0 512 512" style="enable-background:new 0 0 512 512;" xml:space="preserve">
<style type="text/css">
	.st0{fill:#FFFFFF;}
</style>
<path class="st0" d="M504,255.5c0.3,136.6-111.2,248.4-247.8,248.5c-59,0-113.2-20.5-155.8-54.9c-11.1-8.9-11.9-25.5-1.8-35.6
	l11.3-11.3c8.6-8.6,22.4-9.6,31.9-2C173.1,425.1,212.8,440,256,440c101.7,0,184-82.3,184-184c0-101.7-82.3-184-184-184
	c-48.8,0-93.1,19-126.1,49.9l50.8,50.8c10.1,10.1,2.9,27.3-11.3,27.3H24c-8.8,0-16-7.2-16-16V38.6c0-14.3,17.2-21.4,27.3-11.3
	l49.4,49.4C129.2,34.1,189.6,8,256,8C392.8,8,503.7,118.8,504,255.5z M323.1,334.3l9.8-12.6c8.1-10.5,6.3-25.5-4.2-33.7L288,256.3
	V152c0-13.3-10.7-24-24-24h-16c-13.3,0-24,10.7-24,24v135.7l65.4,50.9C299.9,346.7,315,344.8,323.1,334.3z"/>
</svg>
