<?xml version="1.0" encoding="utf-8"?>
<!-- Generator: Adobe Illustrator 24.2.0, SVG Export Plug-In . SVG Version: 6.00 Build 0)  -->
<svg version="1.1" id="Layer_1" focusable="false" xmlns="http://www.w3.org/2000/svg" xmlns:xlink="http://www.w3.org/1999/xlink"
	 x="0px" y="0px" viewBox="0 0 512 512" style="enable-background:new 0 0 512 512;" xml:space="preserve">
<style type="text/css">
	.st0{fill:#FFFFFF;}
</style>
<path class="st0" d="M320,48c79.5,0,144,64.5,144,144s-64.5,144-144,144c-19,0-37.1-3.7-53.7-10.3L224,368h-32v48h-48v48H48v-96
	l134.2-134.2c-4.1-13.6-6.2-27.7-6.2-41.8C176,112.5,240.5,48,320,48 M320,0C214,0,128,86,128,192c0,8.8,0.6,17.6,1.8,26.3L7,341.1
	c-4.5,4.5-7,10.6-7,17V488c0,13.3,10.7,24,24,24h144c13.3,0,24-10.7,24-24v-24h24c13.3,0,24-10.7,24-24v-20l40-40.2
	c13.1,2.8,26.4,4.2,40,4.2c106,0,192-86,192-192C512,86,426,0,320,0z M320,144c0,26.5,21.5,48,48,48s48-21.5,48-48s-21.5-48-48-48
	S320,117.5,320,144z"/>
</svg>
