<?xml version="1.0" encoding="utf-8"?>
<!-- Generator: Adobe Illustrator 24.2.0, SVG Export Plug-In . SVG Version: 6.00 Build 0)  -->
<svg version="1.1" id="Layer_3" xmlns="http://www.w3.org/2000/svg" xmlns:xlink="http://www.w3.org/1999/xlink" x="0px" y="0px"
	 viewBox="0 0 512 512" style="enable-background:new 0 0 512 512;" xml:space="preserve">
<style type="text/css">
	.st0{fill:#FFFFFF;}
</style>
<path class="st0" d="M255.6,11.5l-0.1,0.1l-0.1-0.1v0.1L95.3,104v-0.1L44,133.5v0.1l0,0v59.3l0,0v125.3l0,0v60.3l211.4,121v0.1
	l0.1-0.1l0.1,0.1v-0.1l211.2-120.9l0.2,0.1v-0.2l0,0v-60.3l0,0V192.9l0,0v-59.3l-211.4-122V11.5z M414.8,348.3l-159.3,91.9L95.7,348
	l0.5-0.3l-0.7-184.3l160-91.6l160,91.6L414.8,348.3z"/>
</svg>
