<?xml version="1.0" encoding="utf-8"?>
<!-- Generator: Adobe Illustrator 24.2.0, SVG Export Plug-In . SVG Version: 6.00 Build 0)  -->
<svg version="1.1" id="Layer_2" xmlns="http://www.w3.org/2000/svg" xmlns:xlink="http://www.w3.org/1999/xlink" x="0px" y="0px"
	 viewBox="0 0 512 512" style="enable-background:new 0 0 512 512;" xml:space="preserve">
<style type="text/css">
	.st0{fill:#FFFFFF;}
</style>
<path class="st0" d="M149.8,417.7L19.1,287.9c-9-9-9-23.6,0-32.5l130.7-129.8c9-8.9,23.4-8.9,32.3,0.1l21,21
	c9.2,9.2,8.9,24.1-0.6,33l-57.7,53.8h279.8v-80.1c0-3,1.2-6,3.4-8.1l53.4-53.4c7.2-7.2,19.6-2.1,19.6,8.1v187
	c0,12.7-10.3,22.9-22.9,22.9H144.9l57.7,53.8c9.5,8.8,9.8,23.8,0.6,33l-21,21C173.2,426.5,158.8,426.5,149.8,417.7z"/>
</svg>
