<?xml version="1.0" encoding="utf-8"?>
<!-- Generator: Adobe Illustrator 24.2.0, SVG Export Plug-In . SVG Version: 6.00 Build 0)  -->
<svg version="1.1" id="Layer_2" xmlns="http://www.w3.org/2000/svg" xmlns:xlink="http://www.w3.org/1999/xlink" x="0px" y="0px"
	 viewBox="0 0 512 512" style="enable-background:new 0 0 512 512;" xml:space="preserve">
<style type="text/css">
	.st0{fill:#FFFFFF;}
</style>
<g>
	<path class="st0" d="M387.2,176.1L337,205.3v192.3l-79.4,46c-4.2,0-4.2,4.2-4.2,8.4v54.4c0,0,0,0,4.2,0L475,380.9c0,0,0,0,0-4.2
		v-54.4c0-4.2-4.2-4.2-4.2-4.2l-79.4,46v-184C391.4,176.1,387.2,176.1,387.2,176.1"/>
	<path class="st0" d="M253.4,360L90.4,268V167.7c0-4.2,0-4.2-4.2-8.4l-46-25.1c0,0-4.2,0-4.2,4.2v250.9c0,4.2,0,4.2,4.2,8.4l46,25.1
		c4.2,0,4.2,0,4.2-4.2v-87.8L245,418.6c4.2,0,4.2,0,4.2-4.2V360H253.4z"/>
	<path class="st0" d="M169.8,209.5l158.9-92l75.3,46c4.2,0,4.2,0,8.4,0l46-25.1c4.2,0,4.2-4.2,0-8.4L240.9,4.6c-4.2,0-4.2,0-8.4,0
		l-46,29.3c-4.2,0-4.2,4.2,0,8.4l83.6,50.2l-146.3,79.4c-4.2,4.2-4.2,8.4,0,8.4L169.8,209.5z"/>
</g>
</svg>
