<?xml version="1.0" encoding="utf-8"?>
<!-- Generator: Adobe Illustrator 25.4.1, SVG Export Plug-In . SVG Version: 6.00 Build 0)  -->
<svg version="1.1" id="Ebene_1" shape-rendering="auto"
	 xmlns="http://www.w3.org/2000/svg" xmlns:xlink="http://www.w3.org/1999/xlink" x="0px" y="0px" viewBox="0 0 100 100"
	 style="enable-background:new 0 0 100 100;" xml:space="preserve">
<style type="text/css">
	.st0{fill:#FFFFFF;}
	.st1{fill:#444444;}
	.st2{fill:#005CE3;}
</style>
<path class="st0" d="M6.3,0h87.4c3.5,0,6.3,2.8,6.3,6.3v87.4c0,3.5-2.8,6.3-6.3,6.3H6.3C2.8,100,0,97.2,0,93.7V6.3
	C0,2.8,2.8,0,6.3,0z"/>
<path class="st1" d="M34.3,11.5v-1.4c0-0.8-0.6-1.4-1.4-1.4s-1.4,0.6-1.4,1.4l0,0v1.4H34.3z"/>
<path class="st1" d="M40,8.7h-1.4c-0.8,0-1.4,0.6-1.4,1.4c0,0.8,0.6,1.4,1.4,1.4H40V8.7z"/>
<path class="st1" d="M42.9,10.1v1.4H40V8.7h1.4C42.2,8.7,42.9,9.3,42.9,10.1z"/>
<path class="st1" d="M42.9,10.1v1.4h1.4C43.5,11.5,42.9,10.9,42.9,10.1z"/>
<path class="st1" d="M45.7,10.1c0,0.8,0.6,1.4,1.4,1.4l0,0c0.8,0,1.4-0.6,1.4-1.4c0-0.8-0.6-1.4-1.4-1.4l0,0
	C46.3,8.7,45.7,9.3,45.7,10.1z"/>
<path class="st1" d="M52.8,11.5h1.4v-1.4C54.3,10.9,53.6,11.5,52.8,11.5z"/>
<path class="st1" d="M57.1,11.5v-1.4c0-0.8-0.6-1.4-1.4-1.4c-0.8,0-1.4,0.6-1.4,1.4l0,0v1.4H57.1z"/>
<path class="st1" d="M57.1,10.1v1.4h1.4C57.7,11.5,57.1,10.9,57.1,10.1z"/>
<path class="st1" d="M62.8,8.7h-1.4c-0.8,0-1.4,0.6-1.4,1.4c0,0.8,0.6,1.4,1.4,1.4h1.4V8.7z"/>
<path class="st1" d="M62.8,11.5h1.4c0.8,0,1.4-0.6,1.4-1.4c0-0.8-0.6-1.4-1.4-1.4h-1.4V11.5z"/>
<rect x="31.5" y="11.5" class="st1" width="2.9" height="2.9"/>
<path class="st1" d="M34.3,12.9v1.4h1.4C34.9,14.4,34.3,13.7,34.3,12.9z"/>
<path class="st1" d="M40,12.9v-1.4h-1.4C39.4,11.5,40,12.1,40,12.9z"/>
<path class="st1" d="M41.4,14.4h1.4v-2.9H40v1.4C40,13.7,40.6,14.4,41.4,14.4z"/>
<path class="st1" d="M45.7,12.9v1.4h-2.8v-2.9h1.4C45.1,11.5,45.7,12.1,45.7,12.9z"/>
<path class="st1" d="M45.7,12.9v1.4h1.4C46.3,14.4,45.7,13.7,45.7,12.9z"/>
<path class="st1" d="M51.4,11.5H50c-0.8,0-1.4,0.6-1.4,1.4s0.6,1.4,1.4,1.4h1.4V11.5z"/>
<rect x="51.4" y="11.5" class="st1" width="2.9" height="2.9"/>
<rect x="54.3" y="11.5" class="st1" width="2.9" height="2.9"/>
<path class="st1" d="M57.1,14.4h1.4c0.8,0,1.4-0.6,1.4-1.4s-0.6-1.4-1.4-1.4h-1.4V14.4z"/>
<path class="st1" d="M32.9,17.2h1.4v-2.9h-2.8v1.4C31.5,16.6,32.1,17.2,32.9,17.2z"/>
<path class="st1" d="M34.3,17.2h1.4c0.8,0,1.4-0.6,1.4-1.4c0-0.8-0.6-1.4-1.4-1.4h-1.4V17.2z"/>
<path class="st1" d="M42.9,15.8v-1.4h-1.4C42.2,14.4,42.9,15,42.9,15.8z"/>
<path class="st1" d="M44.3,17.2h1.4v-2.9h-2.8v1.4C42.9,16.6,43.5,17.2,44.3,17.2z"/>
<path class="st1" d="M48.5,15.8v1.4h-2.8v-2.9h1.4C47.9,14.4,48.5,15,48.5,15.8z"/>
<path class="st1" d="M51.4,15.8v-1.4H50C50.8,14.4,51.4,15,51.4,15.8z"/>
<path class="st1" d="M50,17.2h1.4v-1.4C51.4,16.6,50.8,17.2,50,17.2z"/>
<path class="st1" d="M48.5,15.8v1.4H50C49.2,17.2,48.5,16.6,48.5,15.8z"/>
<rect x="51.4" y="14.4" class="st1" width="2.9" height="2.9"/>
<path class="st1" d="M55.7,17.2h-1.4v-2.9h2.9v1.4C57.1,16.6,56.5,17.2,55.7,17.2z"/>
<path class="st1" d="M57.1,15.8v-1.4h1.4C57.7,14.4,57.1,15,57.1,15.8z"/>
<path class="st1" d="M68.5,17.2v-1.4c0-0.8-0.6-1.4-1.4-1.4c-0.8,0-1.4,0.6-1.4,1.4l0,0v1.4H68.5z"/>
<path class="st1" d="M35.7,20.1h1.4v-1.4C37.2,19.4,36.5,20.1,35.7,20.1z"/>
<path class="st1" d="M37.2,18.6v1.4H40v-2.9h-1.4C37.8,17.2,37.2,17.8,37.2,18.6z"/>
<path class="st1" d="M40,20.1h1.4c0.8,0,1.4-0.6,1.4-1.4s-0.6-1.4-1.4-1.4H40V20.1z"/>
<path class="st1" d="M45.7,18.6v-1.4h-1.4C45.1,17.2,45.7,17.8,45.7,18.6z"/>
<path class="st1" d="M44.3,20.1h1.4v-1.4C45.7,19.4,45.1,20.1,44.3,20.1z"/>
<rect x="45.7" y="17.2" class="st1" width="2.9" height="2.9"/>
<rect x="48.5" y="17.2" class="st1" width="2.9" height="2.9"/>
<path class="st1" d="M52.8,20.1h-1.4v-2.9h2.8v1.4C54.3,19.4,53.6,20.1,52.8,20.1z"/>
<path class="st1" d="M54.3,18.6v-1.4h1.4C54.9,17.2,54.3,17.8,54.3,18.6z"/>
<path class="st1" d="M60,17.2h-1.4c-0.8,0-1.4,0.6-1.4,1.4s0.6,1.4,1.4,1.4H60V17.2z"/>
<path class="st1" d="M62.8,18.6v1.4H60v-2.9h1.4C62.2,17.2,62.8,17.8,62.8,18.6z"/>
<path class="st1" d="M65.7,17.2v1.4c0,0.8,0.6,1.4,1.4,1.4c0.8,0,1.4-0.6,1.4-1.4l0,0v-1.4H65.7z"/>
<path class="st1" d="M32.9,22.9h1.4v-1.4C34.3,22.3,33.7,22.9,32.9,22.9z"/>
<path class="st1" d="M34.3,21.5v1.4h2.9v-2.8h-1.4C34.9,20.1,34.3,20.7,34.3,21.5z"/>
<path class="st1" d="M38.6,22.9h-1.4v-2.8H40v1.4C40,22.3,39.4,22.9,38.6,22.9z"/>
<path class="st1" d="M40,21.5v-1.4h1.4C40.6,20.1,40,20.7,40,21.5z"/>
<path class="st1" d="M42.9,21.5v1.4h2.8v-2.8h-1.4C43.5,20.1,42.9,20.7,42.9,21.5z"/>
<rect x="45.7" y="20.1" class="st1" width="2.9" height="2.9"/>
<path class="st1" d="M48.5,21.5v-1.4H50C49.2,20.1,48.5,20.7,48.5,21.5z"/>
<path class="st1" d="M48.5,21.5v1.4H50C49.2,22.9,48.5,22.3,48.5,21.5z"/>
<path class="st1" d="M60,21.5v-1.4h-1.4C59.3,20.1,60,20.7,60,21.5z"/>
<rect x="60" y="20.1" class="st1" width="2.9" height="2.9"/>
<path class="st1" d="M31.5,24.3v1.4h2.8v-2.9h-1.4C32.1,22.9,31.5,23.5,31.5,24.3z"/>
<path class="st1" d="M35.7,25.8h-1.4v-2.9h2.9v1.4C37.2,25.1,36.5,25.8,35.7,25.8z"/>
<path class="st1" d="M37.2,24.3v-1.4h1.4C37.8,22.9,37.2,23.5,37.2,24.3z"/>
<rect x="42.9" y="22.9" class="st1" width="2.9" height="2.9"/>
<rect x="45.7" y="22.9" class="st1" width="2.9" height="2.9"/>
<rect x="48.5" y="22.9" class="st1" width="2.9" height="2.9"/>
<path class="st1" d="M51.4,25.8h1.4c0.8,0,1.4-0.6,1.4-1.4c0-0.8-0.6-1.4-1.4-1.4h-1.4V25.8z"/>
<rect x="60" y="22.9" class="st1" width="2.9" height="2.9"/>
<path class="st1" d="M68.5,25.8v-1.4c0-0.8-0.6-1.4-1.4-1.4c-0.8,0-1.4,0.6-1.4,1.4l0,0v1.4H68.5z"/>
<rect x="31.5" y="25.8" class="st1" width="2.9" height="2.9"/>
<path class="st1" d="M34.3,27.2v-1.4h1.4C34.9,25.8,34.3,26.4,34.3,27.2z"/>
<path class="st1" d="M35.7,28.6h1.4v-1.4C37.2,28,36.5,28.6,35.7,28.6z"/>
<path class="st1" d="M34.3,27.2v1.4h1.4C34.9,28.6,34.3,28,34.3,27.2z"/>
<path class="st1" d="M40,28.6v-1.4c0-0.8-0.6-1.4-1.4-1.4s-1.4,0.6-1.4,1.4l0,0v1.4H40z"/>
<path class="st1" d="M42.9,25.8v1.4c0,0.8,0.6,1.4,1.4,1.4s1.4-0.6,1.4-1.4l0,0v-1.4H42.9z"/>
<path class="st1" d="M45.7,27.2v-1.4h1.4C46.3,25.8,45.7,26.4,45.7,27.2z"/>
<path class="st1" d="M48.5,27.2v-1.4h-1.4C47.9,25.8,48.5,26.4,48.5,27.2z"/>
<path class="st1" d="M48.5,25.8v1.4c0,0.8,0.6,1.4,1.4,1.4c0.8,0,1.4-0.6,1.4-1.4l0,0v-1.4H48.5z"/>
<path class="st1" d="M51.4,27.2v-1.4h1.4C52,25.8,51.4,26.4,51.4,27.2z"/>
<path class="st1" d="M52.8,28.6h1.4v-1.4C54.3,28,53.6,28.6,52.8,28.6z"/>
<path class="st1" d="M57.1,28.6v-1.4c0-0.8-0.6-1.4-1.4-1.4c-0.8,0-1.4,0.6-1.4,1.4l0,0v1.4H57.1z"/>
<rect x="60" y="25.8" class="st1" width="2.9" height="2.9"/>
<path class="st1" d="M64.2,28.6h1.4v-1.4C65.7,28,65,28.6,64.2,28.6z"/>
<path class="st1" d="M62.8,27.2v1.4h1.4C63.4,28.6,62.8,28,62.8,27.2z"/>
<rect x="65.7" y="25.8" class="st1" width="2.9" height="2.9"/>
<rect x="31.5" y="28.6" class="st1" width="2.9" height="2.9"/>
<rect x="34.3" y="28.6" class="st1" width="2.9" height="2.9"/>
<rect x="37.2" y="28.6" class="st1" width="2.9" height="2.9"/>
<path class="st1" d="M40,30v1.4h1.4C40.6,31.5,40,30.8,40,30z"/>
<path class="st1" d="M54.3,28.6h-1.4c-0.8,0-1.4,0.6-1.4,1.4c0,0.8,0.6,1.4,1.4,1.4h1.4V28.6z"/>
<path class="st1" d="M55.7,31.5h-1.4v-2.9h2.9V30C57.1,30.8,56.5,31.5,55.7,31.5z"/>
<rect x="60" y="28.6" class="st1" width="2.9" height="2.9"/>
<rect x="62.8" y="28.6" class="st1" width="2.9" height="2.9"/>
<path class="st1" d="M67.1,31.5h-1.4v-2.9h2.8V30C68.5,30.8,67.9,31.5,67.1,31.5z"/>
<path class="st1" d="M12.9,34.3h1.4v-1.4C14.4,33.7,13.7,34.3,12.9,34.3z"/>
<path class="st1" d="M14.4,32.9v1.4h2.9v-2.8h-1.4C15,31.5,14.4,32.1,14.4,32.9z"/>
<rect x="17.2" y="31.5" class="st1" width="2.9" height="2.9"/>
<path class="st1" d="M22.9,32.9v1.4h-2.8v-2.8h1.4C22.3,31.5,22.9,32.1,22.9,32.9z"/>
<path class="st1" d="M22.9,32.9v1.4h1.4C23.5,34.3,22.9,33.7,22.9,32.9z"/>
<path class="st1" d="M25.8,32.9c0,0.8,0.6,1.4,1.4,1.4l0,0c0.8,0,1.4-0.6,1.4-1.4s-0.6-1.4-1.4-1.4l0,0
	C26.4,31.5,25.8,32.1,25.8,32.9z"/>
<path class="st1" d="M30,34.3h1.4v-1.4C31.5,33.7,30.8,34.3,30,34.3z"/>
<rect x="31.5" y="31.5" class="st1" width="2.9" height="2.9"/>
<path class="st1" d="M34.3,32.9v-1.4h1.4C34.9,31.5,34.3,32.1,34.3,32.9z"/>
<path class="st1" d="M37.2,32.9v-1.4h-1.4C36.5,31.5,37.2,32.1,37.2,32.9z"/>
<path class="st1" d="M38.6,34.3H40v-2.8h-2.8v1.4C37.2,33.7,37.8,34.3,38.6,34.3z"/>
<path class="st1" d="M40,34.3h1.4c0.8,0,1.4-0.6,1.4-1.4s-0.6-1.4-1.4-1.4H40V34.3z"/>
<path class="st1" d="M60,31.5v1.4c0,0.8,0.6,1.4,1.4,1.4s1.4-0.6,1.4-1.4l0,0v-1.4H60z"/>
<path class="st1" d="M62.8,32.9v-1.4h1.4C63.4,31.5,62.8,32.1,62.8,32.9z"/>
<path class="st1" d="M67.1,34.3h1.4v-1.4C68.5,33.7,67.9,34.3,67.1,34.3z"/>
<path class="st1" d="M68.5,32.9v1.4h2.8v-2.8h-1.4C69.1,31.5,68.5,32.1,68.5,32.9z"/>
<rect x="71.3" y="31.5" class="st1" width="2.9" height="2.9"/>
<path class="st1" d="M74.2,34.3h1.4c0.8,0,1.4-0.6,1.4-1.4s-0.6-1.4-1.4-1.4h-1.4V34.3z"/>
<path class="st1" d="M85.6,31.5h-1.4c-0.8,0-1.4,0.6-1.4,1.4s0.6,1.4,1.4,1.4h1.4V31.5z"/>
<rect x="85.6" y="31.5" class="st1" width="2.9" height="2.9"/>
<path class="st1" d="M91.3,32.9v1.4h-2.8v-2.8h1.4C90.7,31.5,91.3,32.1,91.3,32.9z"/>
<path class="st1" d="M11.5,34.3h-1.4c-0.8,0-1.4,0.6-1.4,1.4c0,0.8,0.6,1.4,1.4,1.4h1.4V34.3z"/>
<rect x="11.5" y="34.3" class="st1" width="2.9" height="2.9"/>
<rect x="14.4" y="34.3" class="st1" width="2.9" height="2.9"/>
<path class="st1" d="M17.2,35.7v-1.4h1.4C17.8,34.3,17.2,34.9,17.2,35.7z"/>
<path class="st1" d="M20.1,35.7v-1.4h-1.4C19.4,34.3,20.1,34.9,20.1,35.7z"/>
<rect x="20.1" y="34.3" class="st1" width="2.9" height="2.9"/>
<path class="st1" d="M25.8,35.7v1.4h-2.9v-2.9h1.4C25.1,34.3,25.8,34.9,25.8,35.7z"/>
<path class="st1" d="M25.8,35.7v1.4h1.4C26.4,37.2,25.8,36.5,25.8,35.7z"/>
<path class="st1" d="M31.5,34.3H30c-0.8,0-1.4,0.6-1.4,1.4c0,0.8,0.6,1.4,1.4,1.4h1.4V34.3z"/>
<rect x="31.5" y="34.3" class="st1" width="2.9" height="2.9"/>
<path class="st1" d="M65.7,35.7v1.4h2.8v-2.9h-1.4C66.3,34.3,65.7,34.9,65.7,35.7z"/>
<rect x="68.5" y="34.3" class="st1" width="2.9" height="2.9"/>
<path class="st1" d="M72.8,37.2h-1.4v-2.9h2.9v1.4C74.2,36.5,73.6,37.2,72.8,37.2z"/>
<path class="st1" d="M74.2,35.7v-1.4h1.4C74.8,34.3,74.2,34.9,74.2,35.7z"/>
<path class="st1" d="M77.1,35.7c0,0.8,0.6,1.4,1.4,1.4l0,0c0.8,0,1.4-0.6,1.4-1.4c0-0.8-0.6-1.4-1.4-1.4l0,0
	C77.7,34.3,77.1,34.9,77.1,35.7z"/>
<path class="st1" d="M85.6,35.7v-1.4h-1.4C85,34.3,85.6,34.9,85.6,35.7z"/>
<path class="st1" d="M87,37.2h1.4v-2.9h-2.9v1.4C85.6,36.5,86.2,37.2,87,37.2z"/>
<path class="st1" d="M89.9,37.2h-1.4v-2.9h2.8v1.4C91.3,36.5,90.7,37.2,89.9,37.2z"/>
<path class="st1" d="M11.5,38.6v-1.4h-1.4C10.9,37.2,11.5,37.8,11.5,38.6z"/>
<path class="st1" d="M12.9,40h1.4v-2.8h-2.9v1.4C11.5,39.4,12.1,40,12.9,40z"/>
<path class="st1" d="M15.8,40h-1.4v-2.8h2.9v1.4C17.2,39.4,16.6,40,15.8,40z"/>
<rect x="20.1" y="37.2" class="st1" width="2.9" height="2.9"/>
<rect x="22.9" y="37.2" class="st1" width="2.9" height="2.9"/>
<path class="st1" d="M25.8,40h1.4c0.8,0,1.4-0.6,1.4-1.4s-0.6-1.4-1.4-1.4h-1.4V40z"/>
<path class="st1" d="M31.5,38.6v-1.4H30C30.8,37.2,31.5,37.8,31.5,38.6z"/>
<path class="st1" d="M31.5,37.2v1.4c0,0.8,0.6,1.4,1.4,1.4s1.4-0.6,1.4-1.4l0,0v-1.4H31.5z"/>
<path class="st1" d="M65.7,37.2v1.4c0,0.8,0.6,1.4,1.4,1.4c0.8,0,1.4-0.6,1.4-1.4l0,0v-1.4H65.7z"/>
<path class="st1" d="M68.5,38.6v-1.4h1.4C69.1,37.2,68.5,37.8,68.5,38.6z"/>
<path class="st1" d="M81.3,40h1.4v-1.4C82.8,39.4,82.1,40,81.3,40z"/>
<path class="st1" d="M85.6,40v-1.4c0-0.8-0.6-1.4-1.4-1.4c-0.8,0-1.4,0.6-1.4,1.4l0,0V40H85.6z"/>
<path class="st1" d="M21.5,42.9h1.4V40h-2.8v1.4C20.1,42.2,20.7,42.9,21.5,42.9z"/>
<rect x="22.9" y="40" class="st1" width="2.9" height="2.9"/>
<path class="st1" d="M25.8,41.4V40h1.4C26.4,40,25.8,40.6,25.8,41.4z"/>
<path class="st1" d="M25.8,41.4v1.4h1.4C26.4,42.9,25.8,42.2,25.8,41.4z"/>
<path class="st1" d="M74.2,40h-1.4c-0.8,0-1.4,0.6-1.4,1.4c0,0.8,0.6,1.4,1.4,1.4h1.4V40z"/>
<rect x="74.2" y="40" class="st1" width="2.9" height="2.9"/>
<rect x="77.1" y="40" class="st1" width="2.9" height="2.9"/>
<rect x="79.9" y="40" class="st1" width="2.9" height="2.9"/>
<rect x="82.8" y="40" class="st1" width="2.9" height="2.9"/>
<path class="st1" d="M85.6,41.4v1.4H87C86.2,42.9,85.6,42.2,85.6,41.4z"/>
<path class="st1" d="M11.5,42.9h-1.4c-0.8,0-1.4,0.6-1.4,1.4s0.6,1.4,1.4,1.4h1.4V42.9z"/>
<rect x="11.5" y="42.9" class="st1" width="2.9" height="2.9"/>
<path class="st1" d="M14.4,45.7h1.4c0.8,0,1.4-0.6,1.4-1.4s-0.6-1.4-1.4-1.4h-1.4V45.7z"/>
<path class="st1" d="M22.9,44.3v-1.4h-1.4C22.3,42.9,22.9,43.5,22.9,44.3z"/>
<path class="st1" d="M24.3,45.7h1.4v-2.8h-2.9v1.4C22.9,45.1,23.5,45.7,24.3,45.7z"/>
<path class="st1" d="M25.8,45.7h1.4c0.8,0,1.4-0.6,1.4-1.4s-0.6-1.4-1.4-1.4h-1.4V45.7z"/>
<path class="st1" d="M65.7,44.3v1.4h2.8v-2.8h-1.4C66.3,42.9,65.7,43.5,65.7,44.3z"/>
<path class="st1" d="M68.5,45.7h1.4c0.8,0,1.4-0.6,1.4-1.4s-0.6-1.4-1.4-1.4h-1.4V45.7z"/>
<path class="st1" d="M77.1,44.3v-1.4h-1.4C76.4,42.9,77.1,43.5,77.1,44.3z"/>
<rect x="77.1" y="42.9" class="st1" width="2.9" height="2.9"/>
<path class="st1" d="M79.9,44.3v-1.4h1.4C80.5,42.9,79.9,43.5,79.9,44.3z"/>
<path class="st1" d="M82.8,44.3v-1.4h-1.4C82.1,42.9,82.8,43.5,82.8,44.3z"/>
<path class="st1" d="M79.9,44.3v1.4h1.4C80.5,45.7,79.9,45.1,79.9,44.3z"/>
<path class="st1" d="M84.2,45.7h1.4v-2.8h-2.8v1.4C82.8,45.1,83.4,45.7,84.2,45.7z"/>
<path class="st1" d="M85.6,45.7H87c0.8,0,1.4-0.6,1.4-1.4s-0.6-1.4-1.4-1.4h-1.4V45.7z"/>
<path class="st1" d="M20.1,47.1c0,0.8,0.6,1.4,1.4,1.4l0,0c0.8,0,1.4-0.6,1.4-1.4s-0.6-1.4-1.4-1.4l0,0
	C20.7,45.7,20.1,46.3,20.1,47.1z"/>
<path class="st1" d="M27.2,48.5h1.4v-1.4C28.6,47.9,28,48.5,27.2,48.5z"/>
<path class="st1" d="M28.6,47.1v1.4h2.9v-2.8H30C29.2,45.7,28.6,46.3,28.6,47.1z"/>
<path class="st1" d="M34.3,47.1v1.4h-2.8v-2.8h1.4C33.7,45.7,34.3,46.3,34.3,47.1z"/>
<path class="st1" d="M65.7,45.7v1.4c0,0.8,0.6,1.4,1.4,1.4c0.8,0,1.4-0.6,1.4-1.4l0,0v-1.4H65.7z"/>
<path class="st1" d="M68.5,47.1v-1.4h1.4C69.1,45.7,68.5,46.3,68.5,47.1z"/>
<path class="st1" d="M71.3,47.1c0,0.8,0.6,1.4,1.4,1.4l0,0c0.8,0,1.4-0.6,1.4-1.4s-0.6-1.4-1.4-1.4l0,0C72,45.7,71.3,46.3,71.3,47.1
	z"/>
<path class="st1" d="M78.5,48.5h1.4v-2.8h-2.8v1.4C77.1,47.9,77.7,48.5,78.5,48.5z"/>
<path class="st1" d="M79.9,48.5h1.4c0.8,0,1.4-0.6,1.4-1.4s-0.6-1.4-1.4-1.4h-1.4V48.5z"/>
<path class="st1" d="M91.3,48.5v-1.4c0-0.8-0.6-1.4-1.4-1.4c-0.8,0-1.4,0.6-1.4,1.4l0,0v1.4H91.3z"/>
<path class="st1" d="M11.5,51.4V50c0-0.8-0.6-1.4-1.4-1.4c-0.8,0-1.4,0.6-1.4,1.4l0,0v1.4H11.5z"/>
<path class="st1" d="M11.5,50v1.4h1.4C12.1,51.4,11.5,50.8,11.5,50z"/>
<path class="st1" d="M17.2,50c0,0.8,0.6,1.4,1.4,1.4l0,0c0.8,0,1.4-0.6,1.4-1.4c0-0.8-0.6-1.4-1.4-1.4l0,0
	C17.8,48.5,17.2,49.2,17.2,50z"/>
<path class="st1" d="M22.9,50v1.4h2.9v-2.9h-1.4C23.5,48.5,22.9,49.2,22.9,50z"/>
<rect x="25.8" y="48.5" class="st1" width="2.9" height="2.9"/>
<rect x="28.6" y="48.5" class="st1" width="2.9" height="2.9"/>
<path class="st1" d="M32.9,51.4h-1.4v-2.9h2.8V50C34.3,50.8,33.7,51.4,32.9,51.4z"/>
<path class="st1" d="M72.8,51.4h1.4V50C74.2,50.8,73.6,51.4,72.8,51.4z"/>
<path class="st1" d="M77.1,51.4V50c0-0.8-0.6-1.4-1.4-1.4c-0.8,0-1.4,0.6-1.4,1.4l0,0v1.4H77.1z"/>
<path class="st1" d="M77.1,50v1.4h1.4C77.7,51.4,77.1,50.8,77.1,50z"/>
<path class="st1" d="M85.6,51.4V50c0-0.8-0.6-1.4-1.4-1.4c-0.8,0-1.4,0.6-1.4,1.4l0,0v1.4H85.6z"/>
<path class="st1" d="M87,51.4h1.4V50C88.5,50.8,87.8,51.4,87,51.4z"/>
<path class="st1" d="M85.6,50v1.4H87C86.2,51.4,85.6,50.8,85.6,50z"/>
<rect x="88.5" y="48.5" class="st1" width="2.9" height="2.9"/>
<path class="st1" d="M10.1,54.3h1.4v-2.8H8.7v1.4C8.7,53.6,9.3,54.3,10.1,54.3z"/>
<rect x="11.5" y="51.4" class="st1" width="2.9" height="2.9"/>
<path class="st1" d="M14.4,54.3h1.4c0.8,0,1.4-0.6,1.4-1.4s-0.6-1.4-1.4-1.4h-1.4V54.3z"/>
<path class="st1" d="M22.9,51.4v1.4c0,0.8,0.6,1.4,1.4,1.4c0.8,0,1.4-0.6,1.4-1.4l0,0v-1.4H22.9z"/>
<path class="st1" d="M25.8,52.8v-1.4h1.4C26.4,51.4,25.8,52,25.8,52.8z"/>
<path class="st1" d="M28.6,52.8v-1.4h-1.4C28,51.4,28.6,52,28.6,52.8z"/>
<path class="st1" d="M27.2,54.3h1.4v-1.4C28.6,53.6,28,54.3,27.2,54.3z"/>
<rect x="28.6" y="51.4" class="st1" width="2.9" height="2.9"/>
<path class="st1" d="M31.5,52.8v-1.4h1.4C32.1,51.4,31.5,52,31.5,52.8z"/>
<path class="st1" d="M31.5,52.8v1.4h1.4C32.1,54.3,31.5,53.6,31.5,52.8z"/>
<path class="st1" d="M67.1,54.3h1.4v-1.4C68.5,53.6,67.9,54.3,67.1,54.3z"/>
<path class="st1" d="M68.5,52.8v1.4h2.8v-2.8h-1.4C69.1,51.4,68.5,52,68.5,52.8z"/>
<rect x="71.3" y="51.4" class="st1" width="2.9" height="2.9"/>
<rect x="74.2" y="51.4" class="st1" width="2.9" height="2.9"/>
<path class="st1" d="M77.1,54.3h1.4c0.8,0,1.4-0.6,1.4-1.4s-0.6-1.4-1.4-1.4h-1.4V54.3z"/>
<path class="st1" d="M84.2,54.3h1.4v-2.8h-2.8v1.4C82.8,53.6,83.4,54.3,84.2,54.3z"/>
<rect x="85.6" y="51.4" class="st1" width="2.9" height="2.9"/>
<path class="st1" d="M89.9,54.3h-1.4v-2.8h2.8v1.4C91.3,53.6,90.7,54.3,89.9,54.3z"/>
<path class="st1" d="M20.1,54.3h-1.4c-0.8,0-1.4,0.6-1.4,1.4c0,0.8,0.6,1.4,1.4,1.4h1.4V54.3z"/>
<path class="st1" d="M20.1,57.1h1.4c0.8,0,1.4-0.6,1.4-1.4c0-0.8-0.6-1.4-1.4-1.4h-1.4V57.1z"/>
<path class="st1" d="M28.6,54.3h-1.4c-0.8,0-1.4,0.6-1.4,1.4c0,0.8,0.6,1.4,1.4,1.4h1.4V54.3z"/>
<rect x="28.6" y="54.3" class="st1" width="2.9" height="2.9"/>
<path class="st1" d="M34.3,55.7v1.4h-2.8v-2.9h1.4C33.7,54.3,34.3,54.9,34.3,55.7z"/>
<path class="st1" d="M65.7,55.7v1.4h2.8v-2.9h-1.4C66.3,54.3,65.7,54.9,65.7,55.7z"/>
<path class="st1" d="M69.9,57.1h-1.4v-2.9h2.8v1.4C71.3,56.5,70.7,57.1,69.9,57.1z"/>
<path class="st1" d="M71.3,55.7v-1.4h1.4C72,54.3,71.3,54.9,71.3,55.7z"/>
<path class="st1" d="M74.2,55.7v-1.4h-1.4C73.6,54.3,74.2,54.9,74.2,55.7z"/>
<path class="st1" d="M72.8,57.1h1.4v-1.4C74.2,56.5,73.6,57.1,72.8,57.1z"/>
<rect x="74.2" y="54.3" class="st1" width="2.9" height="2.9"/>
<path class="st1" d="M77.1,55.7v-1.4h1.4C77.7,54.3,77.1,54.9,77.1,55.7z"/>
<path class="st1" d="M8.7,58.5V60h2.8v-2.8h-1.4C9.3,57.1,8.7,57.7,8.7,58.5z"/>
<path class="st1" d="M11.5,60h1.4c0.8,0,1.4-0.6,1.4-1.4s-0.6-1.4-1.4-1.4h-1.4V60z"/>
<path class="st1" d="M22.9,58.5c0,0.8,0.6,1.4,1.4,1.4l0,0c0.8,0,1.4-0.6,1.4-1.4s-0.6-1.4-1.4-1.4l0,0
	C23.5,57.1,22.9,57.7,22.9,58.5z"/>
<path class="st1" d="M28.6,58.5v-1.4h-1.4C28,57.1,28.6,57.7,28.6,58.5z"/>
<path class="st1" d="M30,60h1.4v-2.8h-2.9v1.4C28.6,59.3,29.2,60,30,60z"/>
<path class="st1" d="M32.9,60h-1.4v-2.8h2.8v1.4C34.3,59.3,33.7,60,32.9,60z"/>
<path class="st1" d="M65.7,57.1v1.4c0,0.8,0.6,1.4,1.4,1.4c0.8,0,1.4-0.6,1.4-1.4l0,0v-1.4H65.7z"/>
<path class="st1" d="M68.5,58.5v-1.4h1.4C69.1,57.1,68.5,57.7,68.5,58.5z"/>
<path class="st1" d="M74.2,57.1h-1.4c-0.8,0-1.4,0.6-1.4,1.4S72,60,72.8,60h1.4V57.1z"/>
<path class="st1" d="M75.6,60h-1.4v-2.8h2.8v1.4C77.1,59.3,76.4,60,75.6,60z"/>
<path class="st1" d="M79.9,58.5c0,0.8,0.6,1.4,1.4,1.4l0,0c0.8,0,1.4-0.6,1.4-1.4s-0.6-1.4-1.4-1.4l0,0
	C80.5,57.1,79.9,57.7,79.9,58.5z"/>
<path class="st1" d="M85.6,58.5c0,0.8,0.6,1.4,1.4,1.4l0,0c0.8,0,1.4-0.6,1.4-1.4s-0.6-1.4-1.4-1.4l0,0
	C86.2,57.1,85.6,57.7,85.6,58.5z"/>
<rect x="8.7" y="60" class="st1" width="2.9" height="2.9"/>
<path class="st1" d="M11.5,61.4V60h1.4C12.1,60,11.5,60.6,11.5,61.4z"/>
<path class="st1" d="M14.4,61.4c0,0.8,0.6,1.4,1.4,1.4l0,0c0.8,0,1.4-0.6,1.4-1.4S16.6,60,15.8,60l0,0C15,60,14.4,60.6,14.4,61.4z"
	/>
<path class="st1" d="M20.1,61.4c0,0.8,0.6,1.4,1.4,1.4l0,0c0.8,0,1.4-0.6,1.4-1.4S22.3,60,21.5,60l0,0C20.7,60,20.1,60.6,20.1,61.4z
	"/>
<path class="st1" d="M25.8,61.4c0,0.8,0.6,1.4,1.4,1.4l0,0c0.8,0,1.4-0.6,1.4-1.4S28,60,27.2,60l0,0C26.4,60,25.8,60.6,25.8,61.4z"
	/>
<path class="st1" d="M68.5,61.4c0,0.8,0.6,1.4,1.4,1.4l0,0c0.8,0,1.4-0.6,1.4-1.4S70.7,60,69.9,60l0,0C69.1,60,68.5,60.6,68.5,61.4z
	"/>
<path class="st1" d="M82.8,61.4c0,0.8,0.6,1.4,1.4,1.4l0,0c0.8,0,1.4-0.6,1.4-1.4S85,60,84.2,60l0,0C83.4,60,82.8,60.6,82.8,61.4z"
	/>
<rect x="8.7" y="62.8" class="st1" width="2.9" height="2.9"/>
<path class="st1" d="M20.1,65.7v-1.4c0-0.8-0.6-1.4-1.4-1.4s-1.4,0.6-1.4,1.4l0,0v1.4H20.1z"/>
<path class="st1" d="M22.9,64.2c0,0.8,0.6,1.4,1.4,1.4l0,0c0.8,0,1.4-0.6,1.4-1.4c0-0.8-0.6-1.4-1.4-1.4l0,0
	C23.5,62.8,22.9,63.4,22.9,64.2z"/>
<path class="st1" d="M31.5,64.2c0,0.8,0.6,1.4,1.4,1.4l0,0c0.8,0,1.4-0.6,1.4-1.4c0-0.8-0.6-1.4-1.4-1.4l0,0
	C32.1,62.8,31.5,63.4,31.5,64.2z"/>
<path class="st1" d="M68.5,65.7v-1.4c0-0.8-0.6-1.4-1.4-1.4c-0.8,0-1.4,0.6-1.4,1.4l0,0v1.4H68.5z"/>
<path class="st1" d="M69.9,65.7h1.4v-1.4C71.3,65,70.7,65.7,69.9,65.7z"/>
<path class="st1" d="M68.5,64.2v1.4h1.4C69.1,65.7,68.5,65,68.5,64.2z"/>
<path class="st1" d="M74.2,65.7v-1.4c0-0.8-0.6-1.4-1.4-1.4s-1.4,0.6-1.4,1.4l0,0v1.4H74.2z"/>
<path class="st1" d="M75.6,65.7h1.4v-1.4C77.1,65,76.4,65.7,75.6,65.7z"/>
<path class="st1" d="M74.2,64.2v1.4h1.4C74.8,65.7,74.2,65,74.2,64.2z"/>
<path class="st1" d="M77.1,64.2v1.4h2.8v-2.9h-1.4C77.7,62.8,77.1,63.4,77.1,64.2z"/>
<path class="st1" d="M79.9,65.7h1.4c0.8,0,1.4-0.6,1.4-1.4c0-0.8-0.6-1.4-1.4-1.4h-1.4V65.7z"/>
<path class="st1" d="M85.6,64.2v1.4h2.9v-2.9H87C86.2,62.8,85.6,63.4,85.6,64.2z"/>
<path class="st1" d="M91.3,64.2v1.4h-2.8v-2.9h1.4C90.7,62.8,91.3,63.4,91.3,64.2z"/>
<path class="st1" d="M8.7,65.7v1.4c0,0.8,0.6,1.4,1.4,1.4c0.8,0,1.4-0.6,1.4-1.4l0,0v-1.4H8.7z"/>
<path class="st1" d="M17.2,65.7v1.4c0,0.8,0.6,1.4,1.4,1.4s1.4-0.6,1.4-1.4l0,0v-1.4H17.2z"/>
<path class="st1" d="M25.8,67.1c0,0.8,0.6,1.4,1.4,1.4l0,0c0.8,0,1.4-0.6,1.4-1.4c0-0.8-0.6-1.4-1.4-1.4l0,0
	C26.4,65.7,25.8,66.3,25.8,67.1z"/>
<path class="st1" d="M42.9,65.7h-1.4c-0.8,0-1.4,0.6-1.4,1.4c0,0.8,0.6,1.4,1.4,1.4h1.4V65.7z"/>
<rect x="42.9" y="65.7" class="st1" width="2.9" height="2.9"/>
<path class="st1" d="M48.5,67.1v1.4h-2.8v-2.8h1.4C47.9,65.7,48.5,66.3,48.5,67.1z"/>
<path class="st1" d="M50,68.5h1.4v-1.4C51.4,67.9,50.8,68.5,50,68.5z"/>
<path class="st1" d="M48.5,67.1v1.4H50C49.2,68.5,48.5,67.9,48.5,67.1z"/>
<path class="st1" d="M54.3,68.5v-1.4c0-0.8-0.6-1.4-1.4-1.4s-1.4,0.6-1.4,1.4l0,0v1.4H54.3z"/>
<path class="st1" d="M54.3,67.1v1.4h1.4C54.9,68.5,54.3,67.9,54.3,67.1z"/>
<path class="st1" d="M58.5,68.5H60v-1.4C60,67.9,59.3,68.5,58.5,68.5z"/>
<path class="st1" d="M62.8,68.5v-1.4c0-0.8-0.6-1.4-1.4-1.4S60,66.3,60,67.1l0,0v1.4H62.8z"/>
<path class="st1" d="M64.2,68.5h1.4v-1.4C65.7,67.9,65,68.5,64.2,68.5z"/>
<path class="st1" d="M62.8,67.1v1.4h1.4C63.4,68.5,62.8,67.9,62.8,67.1z"/>
<rect x="65.7" y="65.7" class="st1" width="2.9" height="2.9"/>
<rect x="68.5" y="65.7" class="st1" width="2.9" height="2.9"/>
<rect x="71.3" y="65.7" class="st1" width="2.9" height="2.9"/>
<rect x="74.2" y="65.7" class="st1" width="2.9" height="2.9"/>
<rect x="77.1" y="65.7" class="st1" width="2.9" height="2.9"/>
<path class="st1" d="M79.9,67.1v-1.4h1.4C80.5,65.7,79.9,66.3,79.9,67.1z"/>
<path class="st1" d="M79.9,67.1v1.4h1.4C80.5,68.5,79.9,67.9,79.9,67.1z"/>
<path class="st1" d="M87,68.5h1.4v-2.8h-2.9v1.4C85.6,67.9,86.2,68.5,87,68.5z"/>
<rect x="88.5" y="65.7" class="st1" width="2.9" height="2.9"/>
<path class="st1" d="M31.5,69.9c0,0.8,0.6,1.4,1.4,1.4l0,0c0.8,0,1.4-0.6,1.4-1.4c0-0.8-0.6-1.4-1.4-1.4l0,0
	C32.1,68.5,31.5,69.1,31.5,69.9z"/>
<path class="st1" d="M42.9,69.9v-1.4h-1.4C42.2,68.5,42.9,69.1,42.9,69.9z"/>
<path class="st1" d="M44.3,71.3h1.4v-2.8h-2.8v1.4C42.9,70.7,43.5,71.3,44.3,71.3z"/>
<rect x="45.7" y="68.5" class="st1" width="2.9" height="2.9"/>
<rect x="48.5" y="68.5" class="st1" width="2.9" height="2.9"/>
<rect x="51.4" y="68.5" class="st1" width="2.9" height="2.9"/>
<rect x="54.3" y="68.5" class="st1" width="2.9" height="2.9"/>
<rect x="57.1" y="68.5" class="st1" width="2.9" height="2.9"/>
<rect x="60" y="68.5" class="st1" width="2.9" height="2.9"/>
<rect x="62.8" y="68.5" class="st1" width="2.9" height="2.9"/>
<rect x="65.7" y="68.5" class="st1" width="2.9" height="2.9"/>
<path class="st1" d="M68.5,69.9v-1.4h1.4C69.1,68.5,68.5,69.1,68.5,69.9z"/>
<path class="st1" d="M77.1,69.9v-1.4h-1.4C76.4,68.5,77.1,69.1,77.1,69.9z"/>
<rect x="77.1" y="68.5" class="st1" width="2.9" height="2.9"/>
<path class="st1" d="M82.8,69.9v1.4h-2.8v-2.8h1.4C82.1,68.5,82.8,69.1,82.8,69.9z"/>
<path class="st1" d="M82.8,69.9v1.4h1.4C83.4,71.3,82.8,70.7,82.8,69.9z"/>
<path class="st1" d="M88.5,69.9v-1.4H87C87.8,68.5,88.5,69.1,88.5,69.9z"/>
<path class="st1" d="M88.5,68.5v1.4c0,0.8,0.6,1.4,1.4,1.4c0.8,0,1.4-0.6,1.4-1.4l0,0v-1.4H88.5z"/>
<path class="st1" d="M35.7,74.2h1.4v-1.4C37.2,73.6,36.5,74.2,35.7,74.2z"/>
<path class="st1" d="M40,74.2v-1.4c0-0.8-0.6-1.4-1.4-1.4s-1.4,0.6-1.4,1.4l0,0v1.4H40z"/>
<path class="st1" d="M45.7,72.8v-1.4h-1.4C45.1,71.3,45.7,72,45.7,72.8z"/>
<rect x="45.7" y="71.3" class="st1" width="2.9" height="2.9"/>
<path class="st1" d="M48.5,72.8v-1.4H50C49.2,71.3,48.5,72,48.5,72.8z"/>
<path class="st1" d="M57.1,72.8v-1.4h-1.4C56.5,71.3,57.1,72,57.1,72.8z"/>
<rect x="57.1" y="71.3" class="st1" width="2.9" height="2.9"/>
<path class="st1" d="M60,72.8v-1.4h1.4C60.6,71.3,60,72,60,72.8z"/>
<path class="st1" d="M62.8,72.8v-1.4h-1.4C62.2,71.3,62.8,72,62.8,72.8z"/>
<rect x="62.8" y="71.3" class="st1" width="2.9" height="2.9"/>
<rect x="65.7" y="71.3" class="st1" width="2.9" height="2.9"/>
<path class="st1" d="M71.3,72.8c0,0.8,0.6,1.4,1.4,1.4l0,0c0.8,0,1.4-0.6,1.4-1.4s-0.6-1.4-1.4-1.4l0,0C72,71.3,71.3,72,71.3,72.8z"
	/>
<rect x="77.1" y="71.3" class="st1" width="2.9" height="2.9"/>
<rect x="79.9" y="71.3" class="st1" width="2.9" height="2.9"/>
<rect x="82.8" y="71.3" class="st1" width="2.9" height="2.9"/>
<path class="st1" d="M88.5,72.8v1.4h-2.9v-2.9H87C87.8,71.3,88.5,72,88.5,72.8z"/>
<path class="st1" d="M88.5,72.8v1.4h1.4C89.1,74.2,88.5,73.6,88.5,72.8z"/>
<path class="st1" d="M32.9,77.1h1.4v-1.4C34.3,76.4,33.7,77.1,32.9,77.1z"/>
<path class="st1" d="M34.3,75.6v1.4h2.9v-2.8h-1.4C34.9,74.2,34.3,74.8,34.3,75.6z"/>
<rect x="37.2" y="74.2" class="st1" width="2.9" height="2.9"/>
<path class="st1" d="M40,75.6v1.4h1.4C40.6,77.1,40,76.4,40,75.6z"/>
<path class="st1" d="M45.7,74.2v1.4c0,0.8,0.6,1.4,1.4,1.4s1.4-0.6,1.4-1.4l0,0v-1.4H45.7z"/>
<rect x="57.1" y="74.2" class="st1" width="2.9" height="2.9"/>
<path class="st1" d="M61.4,77.1h1.4v-1.4C62.8,76.4,62.2,77.1,61.4,77.1z"/>
<path class="st1" d="M60,75.6v1.4h1.4C60.6,77.1,60,76.4,60,75.6z"/>
<rect x="62.8" y="74.2" class="st1" width="2.9" height="2.9"/>
<rect x="65.7" y="74.2" class="st1" width="2.9" height="2.9"/>
<path class="st1" d="M68.5,75.6v1.4h1.4C69.1,77.1,68.5,76.4,68.5,75.6z"/>
<path class="st1" d="M75.6,77.1h1.4v-1.4C77.1,76.4,76.4,77.1,75.6,77.1z"/>
<rect x="77.1" y="74.2" class="st1" width="2.9" height="2.9"/>
<path class="st1" d="M81.3,77.1h-1.4v-2.8h2.8v1.4C82.8,76.4,82.1,77.1,81.3,77.1z"/>
<path class="st1" d="M82.8,75.6v-1.4h1.4C83.4,74.2,82.8,74.8,82.8,75.6z"/>
<path class="st1" d="M85.6,75.6v-1.4h-1.4C85,74.2,85.6,74.8,85.6,75.6z"/>
<path class="st1" d="M87,77.1h1.4v-2.8h-2.9v1.4C85.6,76.4,86.2,77.1,87,77.1z"/>
<path class="st1" d="M88.5,77.1h1.4c0.8,0,1.4-0.6,1.4-1.4c0-0.8-0.6-1.4-1.4-1.4h-1.4V77.1z"/>
<path class="st1" d="M31.5,78.5v1.4h2.8v-2.8h-1.4C32.1,77.1,31.5,77.7,31.5,78.5z"/>
<rect x="34.3" y="77.1" class="st1" width="2.9" height="2.9"/>
<rect x="37.2" y="77.1" class="st1" width="2.9" height="2.9"/>
<rect x="40" y="77.1" class="st1" width="2.9" height="2.9"/>
<path class="st1" d="M45.7,78.5v1.4h-2.8v-2.8h1.4C45.1,77.1,45.7,77.7,45.7,78.5z"/>
<path class="st1" d="M45.7,78.5v1.4h1.4C46.3,79.9,45.7,79.3,45.7,78.5z"/>
<path class="st1" d="M51.4,78.5c0,0.8,0.6,1.4,1.4,1.4l0,0c0.8,0,1.4-0.6,1.4-1.4c0-0.8-0.6-1.4-1.4-1.4l0,0
	C52,77.1,51.4,77.7,51.4,78.5z"/>
<rect x="57.1" y="77.1" class="st1" width="2.9" height="2.9"/>
<rect x="60" y="77.1" class="st1" width="2.9" height="2.9"/>
<rect x="62.8" y="77.1" class="st1" width="2.9" height="2.9"/>
<rect x="65.7" y="77.1" class="st1" width="2.9" height="2.9"/>
<rect x="68.5" y="77.1" class="st1" width="2.9" height="2.9"/>
<rect x="71.3" y="77.1" class="st1" width="2.9" height="2.9"/>
<rect x="74.2" y="77.1" class="st1" width="2.9" height="2.9"/>
<rect x="77.1" y="77.1" class="st1" width="2.9" height="2.9"/>
<path class="st1" d="M79.9,78.5v-1.4h1.4C80.5,77.1,79.9,77.7,79.9,78.5z"/>
<path class="st1" d="M79.9,78.5v1.4h1.4C80.5,79.9,79.9,79.3,79.9,78.5z"/>
<rect x="31.5" y="79.9" class="st1" width="2.9" height="2.9"/>
<rect x="34.3" y="79.9" class="st1" width="2.9" height="2.9"/>
<path class="st1" d="M37.2,81.3v-1.4h1.4C37.8,79.9,37.2,80.5,37.2,81.3z"/>
<path class="st1" d="M42.9,81.3v-1.4h-1.4C42.2,79.9,42.9,80.5,42.9,81.3z"/>
<path class="st1" d="M41.4,82.8h1.4v-1.4C42.9,82.1,42.2,82.8,41.4,82.8z"/>
<rect x="42.9" y="79.9" class="st1" width="2.9" height="2.9"/>
<path class="st1" d="M48.5,81.3v1.4h-2.8v-2.8h1.4C47.9,79.9,48.5,80.5,48.5,81.3z"/>
<path class="st1" d="M48.5,81.3v1.4H50C49.2,82.8,48.5,82.1,48.5,81.3z"/>
<rect x="57.1" y="79.9" class="st1" width="2.9" height="2.9"/>
<path class="st1" d="M60,81.3v-1.4h1.4C60.6,79.9,60,80.5,60,81.3z"/>
<path class="st1" d="M60,81.3v1.4h1.4C60.6,82.8,60,82.1,60,81.3z"/>
<path class="st1" d="M65.7,81.3v-1.4h-1.4C65,79.9,65.7,80.5,65.7,81.3z"/>
<path class="st1" d="M67.1,82.8h1.4v-2.8h-2.8v1.4C65.7,82.1,66.3,82.8,67.1,82.8z"/>
<rect x="68.5" y="79.9" class="st1" width="2.9" height="2.9"/>
<rect x="71.3" y="79.9" class="st1" width="2.9" height="2.9"/>
<path class="st1" d="M74.2,81.3v-1.4h1.4C74.8,79.9,74.2,80.5,74.2,81.3z"/>
<path class="st1" d="M77.1,81.3v-1.4h-1.4C76.4,79.9,77.1,80.5,77.1,81.3z"/>
<path class="st1" d="M75.6,82.8h1.4v-1.4C77.1,82.1,76.4,82.8,75.6,82.8z"/>
<path class="st1" d="M74.2,81.3v1.4h1.4C74.8,82.8,74.2,82.1,74.2,81.3z"/>
<rect x="77.1" y="79.9" class="st1" width="2.9" height="2.9"/>
<path class="st1" d="M79.9,82.8h1.4c0.8,0,1.4-0.6,1.4-1.4c0-0.8-0.6-1.4-1.4-1.4h-1.4V82.8z"/>
<path class="st1" d="M32.9,85.6h1.4v-2.8h-2.8v1.4C31.5,85,32.1,85.6,32.9,85.6z"/>
<rect x="34.3" y="82.8" class="st1" width="2.9" height="2.9"/>
<path class="st1" d="M40,84.2v1.4h2.9v-2.8h-1.4C40.6,82.8,40,83.4,40,84.2z"/>
<rect x="42.9" y="82.8" class="st1" width="2.9" height="2.9"/>
<rect x="45.7" y="82.8" class="st1" width="2.9" height="2.9"/>
<path class="st1" d="M51.4,84.2v1.4h-2.9v-2.8H50C50.8,82.8,51.4,83.4,51.4,84.2z"/>
<path class="st1" d="M51.4,84.2v1.4h1.4C52,85.6,51.4,85,51.4,84.2z"/>
<rect x="57.1" y="82.8" class="st1" width="2.9" height="2.9"/>
<path class="st1" d="M62.8,84.2v1.4H60v-2.8h1.4C62.2,82.8,62.8,83.4,62.8,84.2z"/>
<path class="st1" d="M62.8,84.2v1.4h1.4C63.4,85.6,62.8,85,62.8,84.2z"/>
<path class="st1" d="M68.5,84.2v-1.4h-1.4C67.9,82.8,68.5,83.4,68.5,84.2z"/>
<path class="st1" d="M69.9,85.6h1.4v-2.8h-2.8v1.4C68.5,85,69.1,85.6,69.9,85.6z"/>
<rect x="71.3" y="82.8" class="st1" width="2.9" height="2.9"/>
<rect x="74.2" y="82.8" class="st1" width="2.9" height="2.9"/>
<path class="st1" d="M78.5,85.6h-1.4v-2.8h2.8v1.4C79.9,85,79.3,85.6,78.5,85.6z"/>
<path class="st1" d="M79.9,84.2v-1.4h1.4C80.5,82.8,79.9,83.4,79.9,84.2z"/>
<path class="st1" d="M85.6,82.8h-1.4c-0.8,0-1.4,0.6-1.4,1.4c0,0.8,0.6,1.4,1.4,1.4h1.4V82.8z"/>
<path class="st1" d="M85.6,85.6H87c0.8,0,1.4-0.6,1.4-1.4c0-0.8-0.6-1.4-1.4-1.4h-1.4V85.6z"/>
<path class="st1" d="M34.3,87v-1.4h-1.4C33.7,85.6,34.3,86.2,34.3,87z"/>
<path class="st1" d="M34.3,85.6V87c0,0.8,0.6,1.4,1.4,1.4c0.8,0,1.4-0.6,1.4-1.4l0,0v-1.4H34.3z"/>
<path class="st1" d="M38.6,88.5H40V87C40,87.8,39.4,88.5,38.6,88.5z"/>
<rect x="40" y="85.6" class="st1" width="2.9" height="2.9"/>
<path class="st1" d="M42.9,87v-1.4h1.4C43.5,85.6,42.9,86.2,42.9,87z"/>
<path class="st1" d="M48.5,87v-1.4h-1.4C47.9,85.6,48.5,86.2,48.5,87z"/>
<rect x="48.5" y="85.6" class="st1" width="2.9" height="2.9"/>
<path class="st1" d="M51.4,88.5h1.4c0.8,0,1.4-0.6,1.4-1.4s-0.6-1.4-1.4-1.4h-1.4V88.5z"/>
<rect x="57.1" y="85.6" class="st1" width="2.9" height="2.9"/>
<rect x="60" y="85.6" class="st1" width="2.9" height="2.9"/>
<path class="st1" d="M65.7,87v1.4h-2.9v-2.9h1.4C65,85.6,65.7,86.2,65.7,87z"/>
<path class="st1" d="M65.7,87v1.4h1.4C66.3,88.5,65.7,87.8,65.7,87z"/>
<path class="st1" d="M74.2,87v-1.4h-1.4C73.6,85.6,74.2,86.2,74.2,87z"/>
<rect x="74.2" y="85.6" class="st1" width="2.9" height="2.9"/>
<path class="st1" d="M77.1,87v-1.4h1.4C77.7,85.6,77.1,86.2,77.1,87z"/>
<path class="st1" d="M78.5,88.5h1.4V87C79.9,87.8,79.3,88.5,78.5,88.5z"/>
<path class="st1" d="M77.1,87v1.4h1.4C77.7,88.5,77.1,87.8,77.1,87z"/>
<path class="st1" d="M82.8,88.5V87c0-0.8-0.6-1.4-1.4-1.4c-0.8,0-1.4,0.6-1.4,1.4l0,0v1.4H82.8z"/>
<path class="st1" d="M88.5,87c0,0.8,0.6,1.4,1.4,1.4l0,0c0.8,0,1.4-0.6,1.4-1.4s-0.6-1.4-1.4-1.4l0,0C89.1,85.6,88.5,86.2,88.5,87z"
	/>
<path class="st1" d="M40,88.5h-1.4c-0.8,0-1.4,0.6-1.4,1.4c0,0.8,0.6,1.4,1.4,1.4H40V88.5z"/>
<path class="st1" d="M41.4,91.3H40v-2.8h2.9v1.4C42.9,90.7,42.2,91.3,41.4,91.3z"/>
<path class="st1" d="M48.5,88.5v1.4c0,0.8,0.6,1.4,1.4,1.4c0.8,0,1.4-0.6,1.4-1.4l0,0v-1.4H48.5z"/>
<path class="st1" d="M51.4,89.9v-1.4h1.4C52,88.5,51.4,89.1,51.4,89.9z"/>
<path class="st1" d="M58.5,91.3H60v-2.8h-2.8v1.4C57.1,90.7,57.7,91.3,58.5,91.3z"/>
<rect x="60" y="88.5" class="st1" width="2.9" height="2.9"/>
<rect x="62.8" y="88.5" class="st1" width="2.9" height="2.9"/>
<rect x="65.7" y="88.5" class="st1" width="2.9" height="2.9"/>
<path class="st1" d="M68.5,91.3h1.4c0.8,0,1.4-0.6,1.4-1.4c0-0.8-0.6-1.4-1.4-1.4h-1.4V91.3z"/>
<path class="st1" d="M75.6,91.3h1.4v-2.8h-2.8v1.4C74.2,90.7,74.8,91.3,75.6,91.3z"/>
<rect x="77.1" y="88.5" class="st1" width="2.9" height="2.9"/>
<path class="st1" d="M81.3,91.3h-1.4v-2.8h2.8v1.4C82.8,90.7,82.1,91.3,81.3,91.3z"/>
<path class="st2" d="M22.6,8.7h-7.9c-3.3,0-6,2.7-6,6v7.9c0,3.3,2.7,6,6,6h7.9c3.3,0,6-2.7,6-6v-7.9C28.6,11.4,25.9,8.7,22.6,8.7z
	 M25.8,21.4c0,2.4-1.9,4.3-4.3,4.3h-5.6c-2.4,0-4.3-1.9-4.3-4.3v-5.6c0-2.4,1.9-4.3,4.3-4.3h5.6c2.4,0,4.3,1.9,4.3,4.3V21.4z"/>
<path class="st1" d="M22.9,20.3c0,1.4-1.2,2.6-2.6,2.6h-3.4c-1.4,0-2.6-1.2-2.6-2.6v-3.4c0-1.4,1.2-2.6,2.6-2.6h3.4
	c1.4,0,2.6,1.2,2.6,2.6L22.9,20.3L22.9,20.3z"/>
<path class="st2" d="M85.3,8.7h-7.9c-3.3,0-6,2.7-6,6v7.9c0,3.3,2.7,6,6,6h7.9c3.3,0,6-2.7,6-6v-7.9C91.3,11.4,88.6,8.7,85.3,8.7z
	 M88.5,21.4c0,2.4-1.9,4.3-4.3,4.3h-5.6c-2.4,0-4.3-1.9-4.3-4.3v-5.6c0-2.4,1.9-4.3,4.3-4.3h5.6c2.4,0,4.3,1.9,4.3,4.3V21.4z"/>
<path class="st1" d="M85.6,20.3c0,1.4-1.2,2.6-2.6,2.6h-3.4c-1.4,0-2.6-1.2-2.6-2.6v-3.4c0-1.4,1.2-2.6,2.6-2.6H83
	c1.4,0,2.6,1.2,2.6,2.6L85.6,20.3L85.6,20.3z"/>
<path class="st2" d="M22.6,71.3h-7.9c-3.3,0-6,2.7-6,6v7.9c0,3.3,2.7,6,6,6h7.9c3.3,0,6-2.7,6-6v-7.9C28.6,74.1,25.9,71.3,22.6,71.3
	z M25.8,84.1c0,2.4-1.9,4.3-4.3,4.3h-5.6c-2.4,0-4.3-1.9-4.3-4.3v-5.6c0-2.4,1.9-4.3,4.3-4.3h5.6c2.4,0,4.3,1.9,4.3,4.3V84.1z"/>
<path class="st1" d="M22.9,83c0,1.4-1.2,2.6-2.6,2.6h-3.4c-1.4,0-2.6-1.2-2.6-2.6v-3.4c0-1.4,1.2-2.6,2.6-2.6h3.4
	c1.4,0,2.6,1.2,2.6,2.6L22.9,83L22.9,83z"/>
<g>
	<path class="st2" d="M56.7,46l-2.6,1.5v9.8L50,59.7c-0.1,0.1-0.2,0.2-0.2,0.3v2.7c0,0.1,0.1,0.2,0.2,0.2c0,0,0.1,0,0.1,0l11.2-6.5
		c0.1,0,0.1-0.1,0.1-0.2v-2.8c0-0.1-0.1-0.2-0.2-0.2c0,0-0.1,0-0.1,0L57,55.6v-9.5C57,46,56.9,46,56.7,46C56.8,46,56.7,46,56.7,46z"
		/>
</g>
<g>
	<path class="st2" d="M49.8,55.3l-8.3-4.8v-5.1c0-0.2-0.1-0.3-0.2-0.4l-2.3-1.3c-0.1-0.1-0.2,0-0.3,0.1l0,0c0,0,0,0.1,0,0.1v12.8
		c0,0.2,0.1,0.3,0.2,0.4l2.3,1.3c0.1,0.1,0.2,0,0.3-0.1l0,0c0,0,0-0.1,0-0.1v-4.5l8,4.6c0.1,0.1,0.2,0,0.3-0.1c0,0,0-0.1,0-0.1
		L49.8,55.3z"/>
</g>
<g>
	<path class="st2" d="M45.6,47.6l8-4.6l4,2.3c0.1,0.1,0.3,0.1,0.4,0l2.3-1.4c0.1,0,0.1-0.2,0.1-0.2c0,0,0,0,0,0c0,0,0-0.1-0.1-0.1
		l-11.1-6.4c-0.1-0.1-0.3-0.1-0.4,0l-2.3,1.3c-0.1,0.1-0.1,0.2-0.1,0.3c0,0,0.1,0.1,0.1,0.1l4.3,2.5l-7.7,4.5
		c-0.1,0.1-0.1,0.2-0.1,0.3c0,0,0,0.1,0.1,0.1L45.6,47.6z"/>
</g>
</svg>
