<?xml version="1.0" encoding="utf-8"?>
<!-- Generator: Adobe Illustrator 25.4.1, SVG Export Plug-In . SVG Version: 6.00 Build 0)  -->
<svg version="1.1" id="Layer_1" xmlns="http://www.w3.org/2000/svg" xmlns:xlink="http://www.w3.org/1999/xlink" x="0px" y="0px"
	 viewBox="0 0 360.4 125" style="enable-background:new 0 0 360.4 125;" xml:space="preserve">
<style type="text/css">
	.st0{fill:#FFFFFF;}
	.st1{fill:#E71D2B;}
</style>
<g id="g5110">
	<g id="g5116">
		<path id="path5118" class="st0" d="M347,77.9v-3.4h-10.1V7.1C352.3,6.3,355,9.7,357,23.7h3.4l-1.2-19.4h-58.9l-1.2,19.4h3.5
			c2-14.1,4.6-17.4,20.1-16.6v67.3h-10.1v3.4L347,77.9"/>
	</g>
	<g id="g5104">
		<path id="path5106" class="st0" d="M286.8,7.9h9.5V4.4h-33.1v3.5h9.5v66.6h-9.5v3.5h33.1v-3.5h-9.5V7.9z"/>
	</g>
	<g id="g5120">
		<path id="path5122" class="st0" d="M256.9,7.8V4.4h-27.1l-15.9,50.3L198.4,4.4h-27v3.5h9.5v66.6h-10.3c-9.5,0.2-9.7-7.9-9.6-9.6
			c0.1-17.9-3.9-24.4-21-27.1v-0.2c10.2-1.1,23.3-4,23.3-16.4c0-15.3-14.3-16.7-26.3-16.7h-35.5v3.5h9.5v66.6h-9.5v3.5h33v-3.5h-9.5
			V39.3c6.1-0.2,13,1.3,16.1,4c2.9,2.4,4.4,10,4.4,19.1c0,11.2,5.8,15.5,16.9,15.5h31.9v-3.4h-9.3V9h0.2l21.9,68.9h3.7l22-68.9h0.3
			v65.5h-9.5v3.4h33v-3.4h-9.5V7.8H256.9z M125.1,35.9v-28h9.6c9.8,0,13.4,2.5,13.4,14.8c0,9.9-4.1,13.2-14,13.2L125.1,35.9"/>
	</g>
	<g id="g5124">
		<path id="path5126" class="st1" d="M43,0H32v9H13.8v18.6H0v27.3h13.8v18.6H32v8.9h9.7c22.6,0,42.6-18.3,42.6-41
			C84.2,18.5,65.8,0.1,43,0"/>
	</g>
	<g id="g5128">
		<path id="path5130" class="st0" d="M111,100.1c0.1-0.4-0.3-0.8-0.7-0.9c-0.1,0-0.1,0-0.2,0h-1.8v-3.5h4.1c1.8,0,2.6,0.8,2.6,2.6
			v16c0,4.3,2.7,6.9,6.9,6.9s6.9-2.6,6.9-6.9v-16c0-1.8,0.8-2.6,2.6-2.6h4.1v3.5h-1.8c-0.4-0.1-0.8,0.2-0.9,0.7c0,0.1,0,0.1,0,0.2
			v14.3c0,6.3-4.4,10.6-11,10.6s-11-4.3-11-10.6L111,100.1z"/>
	</g>
	<g id="g5132">
		<path id="path5134" class="st0" d="M138.4,121h1.8c0.5,0,0.9-0.3,0.9-0.7c0-0.1,0-0.1,0-0.2V95.7h3.7l12.8,18.2
			c1.1,1.6,2.4,3.9,2.4,3.9h0.1c0,0-0.3-2.3-0.3-3.9V98.3c0-1.8,0.8-2.6,2.6-2.6h4.1v3.5h-1.8c-0.4-0.1-0.8,0.2-0.9,0.7
			c0,0.1,0,0.1,0,0.2v24.4h-3.7l-12.9-18.3c-1.1-1.6-2.4-3.9-2.4-3.9h-0.1c0,0,0.3,2.3,0.3,3.9v15.7c0,1.8-0.8,2.6-2.6,2.6h-4.1
			L138.4,121z"/>
	</g>
	<g id="g5136">
		<path id="path5138" class="st0" d="M171,121h2.8V99.2H171v-3.5h9.5v3.5h-2.8V121h2.8v3.5H171V121z"/>
	</g>
	<g id="g5140">
		<path id="path5142" class="st0" d="M184.9,100.1c-0.1-0.6-0.7-1-1.4-0.9H183v-3.5h2.3c2,0,2.7,0.5,3.4,2.4l6.3,17.8
			c0.5,1.6,1.1,4,1.1,4h0.1c0.3-1.4,0.7-2.7,1.1-4l6.3-17.8c0.7-1.9,1.3-2.4,3.4-2.4h2.3v3.5h-0.6c-0.7,0-1.1,0.2-1.4,0.9l-9.1,24.4
			H194L184.9,100.1z"/>
	</g>
	<g id="g5144">
		<path id="path5146" class="st0" d="M214.3,99.2h-2.6v-3.5h17c1.8,0,2.6,0.8,2.6,2.6v3.6h-3.7v-1.8c0.1-0.4-0.3-0.8-0.7-0.9
			c-0.1,0-0.1,0-0.2,0h-8.2v9h10.1v3.5h-10.1v8.4c0,0.5,0.3,0.8,0.7,0.9c0.1,0,0.1,0,0.2,0h8.4c0.5,0,0.9-0.3,0.9-0.7
			c0-0.1,0-0.1,0-0.2v-1.8h3.8v3.7c0,1.8-0.8,2.6-2.6,2.6h-12.8c-1.8,0-2.6-0.8-2.6-2.6V99.2z"/>
	</g>
	<g id="g5148">
		<path id="path5150" class="st0" d="M247.5,109.6c3.1,0,4.9-2,4.9-5.2s-1.8-5.1-4.9-5.1h-5.4v10.3H247.5z M238.1,99.2h-2.7v-3.5
			H248c5.1,0,8.6,3.2,8.6,8.4c0,4.8-3.1,7.2-5.2,7.6v0.1c0.5,0.3,1,0.8,1.2,1.3l3.5,6.9c0.4,0.9,1.1,0.9,2,0.9h0.5v3.5h-2
			c-2.2,0-3.1-0.3-4-2.2l-3.9-7.8c-0.7-1.4-1.3-1.6-2.9-1.6h-3.8v11.5H238L238.1,99.2z"/>
	</g>
	<g id="g5152">
		<path id="path5154" class="st0" d="M263.9,117.8c0,0,2.9,3.5,7.2,3.5c2.7,0,5-1.6,5-4.3c0-6-13.9-5.1-13.9-14.1
			c0-4.3,3.8-7.7,9.2-7.7c3.1,0,8.2,1.4,8.2,5.3v2.4h-3.8v-1.4c0-1.5-2.2-2.6-4.5-2.6c-3.1,0-5.1,1.7-5.1,3.9
			c0,5.8,13.9,4.5,13.9,14c0,4.4-3.4,8.2-9.1,8.2c-3.7,0-7.1-1.6-9.6-4.3L263.9,117.8z"/>
	</g>
	<g id="g5156">
		<path id="path5158" class="st0" d="M284.5,121h2.8V99.2h-2.8v-3.5h9.5v3.5h-2.8V121h2.8v3.5h-9.5V121z"/>
	</g>
	<g id="g5160">
		<path id="path5162" class="st0" d="M307,99.2h-5.8c-0.4-0.1-0.8,0.2-0.9,0.7c0,0.1,0,0.1,0,0.2v1.8h-3.6v-3.8
			c0-1.8,0.6-2.4,2.5-2.4H319c1.8,0,2.4,0.6,2.4,2.4v3.8h-3.6v-1.8c0.1-0.4-0.2-0.8-0.7-0.9c-0.1,0-0.2,0-0.2,0h-5.8v25.3H307
			L307,99.2z"/>
	</g>
	<g id="g5164">
		<path id="path5166" class="st0" d="M333,111.9l-7.3-11.7c-0.3-0.7-1-1.1-1.8-1h-0.8v-3.5h1.9c2,0,2.7,0.3,3.9,2.2l4.4,7.3
			c0.9,1.6,1.8,3.2,1.8,3.2h0.1c0,0,0.8-1.6,1.8-3.2l4.3-7.3c1.1-1.9,2-2.2,3.9-2.2h1.9v3.5h-0.8c-0.8-0.1-1.5,0.3-1.8,1l-7.3,11.7
			v12.6h-4.1L333,111.9z"/>
	</g>
</g>
</svg>
