<?xml version="1.0" encoding="UTF-8" standalone="no"?><svg xmlns="http://www.w3.org/2000/svg" xmlns:xlink="http://www.w3.org/1999/xlink" contentScriptType="application/ecmascript" contentStyleType="text/css" height="642px" preserveAspectRatio="none" style="width:912px;height:642px;" version="1.1" viewBox="0 0 912 642" width="912px" zoomAndPan="magnify"><defs><filter height="300%" id="f15grky4dsamxq" width="300%" x="-1" y="-1"><feGaussianBlur result="blurOut" stdDeviation="2.0"/><feColorMatrix in="blurOut" result="blurOut2" type="matrix" values="0 0 0 0 0 0 0 0 0 0 0 0 0 0 0 0 0 0 .4 0"/><feOffset dx="4.0" dy="4.0" in="blurOut2" result="blurOut3"/><feBlend in="SourceGraphic" in2="blurOut3" mode="normal"/></filter></defs><g><text fill="#000000" font-family="sans-serif" font-size="18" lengthAdjust="spacingAndGlyphs" textLength="151" x="384.5" y="16.708">Dauth Flow Class</text><!--MD5=[90ee30c066ebb39b09010d6532bfd155]
class com--><rect fill="#F8F8F8" filter="url(#f15grky4dsamxq)" height="48" id="com" style="stroke: #383838; stroke-width: 1.5;" width="135" x="502.5" y="28.9531"/><ellipse cx="517.5" cy="44.9531" fill="#C2C2C2" rx="11" ry="11" style="stroke: #383838; stroke-width: 1.0;"/><path d="M520.4688,50.5938 Q519.8906,50.8906 519.25,51.0313 Q518.6094,51.1875 517.9063,51.1875 Q515.4063,51.1875 514.0781,49.5469 Q512.7656,47.8906 512.7656,44.7656 Q512.7656,41.6406 514.0781,39.9844 Q515.4063,38.3281 517.9063,38.3281 Q518.6094,38.3281 519.25,38.4844 Q519.9063,38.6406 520.4688,38.9375 L520.4688,41.6563 Q519.8438,41.0781 519.25,40.8125 Q518.6563,40.5313 518.0313,40.5313 Q516.6875,40.5313 516,41.6094 Q515.3125,42.6719 515.3125,44.7656 Q515.3125,46.8594 516,47.9375 Q516.6875,49 518.0313,49 Q518.6563,49 519.25,48.7344 Q519.8438,48.4531 520.4688,47.875 L520.4688,50.5938 Z "/><text fill="#000000" font-family="sans-serif" font-size="12" lengthAdjust="spacingAndGlyphs" textLength="103" x="531.5" y="49.1074">ORKComunicator</text><line style="stroke: #383838; stroke-width: 1.5;" x1="503.5" x2="636.5" y1="60.9531" y2="60.9531"/><line style="stroke: #383838; stroke-width: 1.5;" x1="503.5" x2="636.5" y1="68.9531" y2="68.9531"/><!--MD5=[e6ef34c44c8e76aa7fe1e85c067f588c]
class cvk--><rect fill="#F8F8F8" filter="url(#f15grky4dsamxq)" height="124.8281" id="cvk" style="stroke: #383838; stroke-width: 1.5;" width="325" x="44.5" y="143.4531"/><ellipse cx="173.75" cy="159.4531" fill="#C2C2C2" rx="11" ry="11" style="stroke: #383838; stroke-width: 1.0;"/><path d="M176.7188,165.0938 Q176.1406,165.3906 175.5,165.5313 Q174.8594,165.6875 174.1563,165.6875 Q171.6563,165.6875 170.3281,164.0469 Q169.0156,162.3906 169.0156,159.2656 Q169.0156,156.1406 170.3281,154.4844 Q171.6563,152.8281 174.1563,152.8281 Q174.8594,152.8281 175.5,152.9844 Q176.1563,153.1406 176.7188,153.4375 L176.7188,156.1563 Q176.0938,155.5781 175.5,155.3125 Q174.9063,155.0313 174.2813,155.0313 Q172.9375,155.0313 172.25,156.1094 Q171.5625,157.1719 171.5625,159.2656 Q171.5625,161.3594 172.25,162.4375 Q172.9375,163.5 174.2813,163.5 Q174.9063,163.5 175.5,163.2344 Q176.0938,162.9531 176.7188,162.375 L176.7188,165.0938 Z "/><text fill="#000000" font-family="sans-serif" font-size="12" lengthAdjust="spacingAndGlyphs" textLength="58" x="194.25" y="163.6074">CVKClient</text><line style="stroke: #383838; stroke-width: 1.5;" x1="45.5" x2="368.5" y1="175.4531" y2="175.4531"/><rect fill="none" height="6" style="stroke: #595959; stroke-width: 1.0;" width="6" x="52.5" y="183.4531"/><text fill="#000000" font-family="sans-serif" font-size="11" lengthAdjust="spacingAndGlyphs" textLength="81" x="64.5" y="189.6636">communicator</text><line style="stroke: #383838; stroke-width: 1.5;" x1="45.5" x2="368.5" y1="196.2578" y2="196.2578"/><text fill="#000000" font-family="sans-serif" font-size="11" lengthAdjust="spacingAndGlyphs" textLength="313" x="50.5" y="210.4683">register(cvkPub, cvki, cvkAuthi, signedKeyId, signature)</text><text fill="#000000" font-family="sans-serif" font-size="11" lengthAdjust="spacingAndGlyphs" textLength="65" x="50.5" y="223.2729">getCvk(key)</text><text fill="#000000" font-family="sans-serif" font-size="11" lengthAdjust="spacingAndGlyphs" textLength="91" x="50.5" y="236.0776">challenge(keyId)</text><text fill="#000000" font-family="sans-serif" font-size="11" lengthAdjust="spacingAndGlyphs" textLength="183" x="50.5" y="248.8823">decrypt(data, keyId, token, sign)</text><text fill="#000000" font-family="sans-serif" font-size="11" lengthAdjust="spacingAndGlyphs" textLength="51" x="50.5" y="261.687">confirm()</text><!--MD5=[1a01d0075b43e2bc6d12266a6f76d24b]
class cmk--><rect fill="#F8F8F8" filter="url(#f15grky4dsamxq)" height="137.6328" id="cmk" style="stroke: #383838; stroke-width: 1.5;" width="296" x="422" y="136.9531"/><ellipse cx="535.75" cy="152.9531" fill="#C2C2C2" rx="11" ry="11" style="stroke: #383838; stroke-width: 1.0;"/><path d="M538.7188,158.5938 Q538.1406,158.8906 537.5,159.0313 Q536.8594,159.1875 536.1563,159.1875 Q533.6563,159.1875 532.3281,157.5469 Q531.0156,155.8906 531.0156,152.7656 Q531.0156,149.6406 532.3281,147.9844 Q533.6563,146.3281 536.1563,146.3281 Q536.8594,146.3281 537.5,146.4844 Q538.1563,146.6406 538.7188,146.9375 L538.7188,149.6563 Q538.0938,149.0781 537.5,148.8125 Q536.9063,148.5313 536.2813,148.5313 Q534.9375,148.5313 534.25,149.6094 Q533.5625,150.6719 533.5625,152.7656 Q533.5625,154.8594 534.25,155.9375 Q534.9375,157 536.2813,157 Q536.9063,157 537.5,156.7344 Q538.0938,156.4531 538.7188,155.875 L538.7188,158.5938 Z "/><text fill="#000000" font-family="sans-serif" font-size="12" lengthAdjust="spacingAndGlyphs" textLength="60" x="556.25" y="157.1074">CMKClient</text><line style="stroke: #383838; stroke-width: 1.5;" x1="423" x2="717" y1="168.9531" y2="168.9531"/><rect fill="none" height="6" style="stroke: #595959; stroke-width: 1.0;" width="6" x="430" y="176.9531"/><text fill="#000000" font-family="sans-serif" font-size="11" lengthAdjust="spacingAndGlyphs" textLength="81" x="442" y="183.1636">communicator</text><line style="stroke: #383838; stroke-width: 1.5;" x1="423" x2="717" y1="189.7578" y2="189.7578"/><text fill="#000000" font-family="sans-serif" font-size="11" lengthAdjust="spacingAndGlyphs" textLength="99" x="428" y="203.9683">applyPrism(pass)</text><text fill="#000000" font-family="sans-serif" font-size="11" lengthAdjust="spacingAndGlyphs" textLength="73" x="428" y="216.7729">signIn(token)</text><text fill="#000000" font-family="sans-serif" font-size="11" lengthAdjust="spacingAndGlyphs" textLength="284" x="428" y="229.5776">signUp(prismi, cmki, prismAuthi, cmkAuthi, email)</text><text fill="#000000" font-family="sans-serif" font-size="11" lengthAdjust="spacingAndGlyphs" textLength="277" x="428" y="242.3823">changePass(prismi, prismAuthi, token, withCmk)</text><text fill="#000000" font-family="sans-serif" font-size="11" lengthAdjust="spacingAndGlyphs" textLength="51" x="428" y="255.187">recover()</text><text fill="#000000" font-family="sans-serif" font-size="11" lengthAdjust="spacingAndGlyphs" textLength="51" x="428" y="267.9917">confirm()</text><!--MD5=[803fa0f60d833365c81945099e5eaf5a]
class rule--><rect fill="#F8F8F8" filter="url(#f15grky4dsamxq)" height="99.2188" id="rule" style="stroke: #383838; stroke-width: 1.5;" width="114" x="765" y="156.4531"/><ellipse cx="789" cy="172.4531" fill="#C2C2C2" rx="11" ry="11" style="stroke: #383838; stroke-width: 1.0;"/><path d="M791.9688,178.0938 Q791.3906,178.3906 790.75,178.5313 Q790.1094,178.6875 789.4063,178.6875 Q786.9063,178.6875 785.5781,177.0469 Q784.2656,175.3906 784.2656,172.2656 Q784.2656,169.1406 785.5781,167.4844 Q786.9063,165.8281 789.4063,165.8281 Q790.1094,165.8281 790.75,165.9844 Q791.4063,166.1406 791.9688,166.4375 L791.9688,169.1563 Q791.3438,168.5781 790.75,168.3125 Q790.1563,168.0313 789.5313,168.0313 Q788.1875,168.0313 787.5,169.1094 Q786.8125,170.1719 786.8125,172.2656 Q786.8125,174.3594 787.5,175.4375 Q788.1875,176.5 789.5313,176.5 Q790.1563,176.5 790.75,176.2344 Q791.3438,175.9531 791.9688,175.375 L791.9688,178.0938 Z "/><text fill="#000000" font-family="sans-serif" font-size="12" lengthAdjust="spacingAndGlyphs" textLength="62" x="805" y="176.6074">RuleClient</text><line style="stroke: #383838; stroke-width: 1.5;" x1="766" x2="878" y1="188.4531" y2="188.4531"/><rect fill="none" height="6" style="stroke: #595959; stroke-width: 1.0;" width="6" x="773" y="196.4531"/><text fill="#000000" font-family="sans-serif" font-size="11" lengthAdjust="spacingAndGlyphs" textLength="81" x="785" y="202.6636">communicator</text><line style="stroke: #383838; stroke-width: 1.5;" x1="766" x2="878" y1="209.2578" y2="209.2578"/><text fill="#000000" font-family="sans-serif" font-size="11" lengthAdjust="spacingAndGlyphs" textLength="82" x="771" y="223.4683">getById(ruleId)</text><text fill="#000000" font-family="sans-serif" font-size="11" lengthAdjust="spacingAndGlyphs" textLength="45" x="771" y="236.2729">getSet()</text><text fill="#000000" font-family="sans-serif" font-size="11" lengthAdjust="spacingAndGlyphs" textLength="102" x="771" y="249.0776">setOrUpdate(rule)</text><!--MD5=[95aac00dc9cbd3c55a94338f869a053a]
class cmkFlow--><rect fill="#F8F8F8" filter="url(#f15grky4dsamxq)" height="124.8281" id="cmkFlow" style="stroke: #383838; stroke-width: 1.5;" width="326" x="407" y="334.9531"/><ellipse cx="539.75" cy="350.9531" fill="#C2C2C2" rx="11" ry="11" style="stroke: #383838; stroke-width: 1.0;"/><path d="M542.7188,356.5938 Q542.1406,356.8906 541.5,357.0313 Q540.8594,357.1875 540.1563,357.1875 Q537.6563,357.1875 536.3281,355.5469 Q535.0156,353.8906 535.0156,350.7656 Q535.0156,347.6406 536.3281,345.9844 Q537.6563,344.3281 540.1563,344.3281 Q540.8594,344.3281 541.5,344.4844 Q542.1563,344.6406 542.7188,344.9375 L542.7188,347.6563 Q542.0938,347.0781 541.5,346.8125 Q540.9063,346.5313 540.2813,346.5313 Q538.9375,346.5313 538.25,347.6094 Q537.5625,348.6719 537.5625,350.7656 Q537.5625,352.8594 538.25,353.9375 Q538.9375,355 540.2813,355 Q540.9063,355 541.5,354.7344 Q542.0938,354.4531 542.7188,353.875 L542.7188,356.5938 Z "/><text fill="#000000" font-family="sans-serif" font-size="12" lengthAdjust="spacingAndGlyphs" textLength="52" x="560.25" y="355.1074">CMKFlow</text><line style="stroke: #383838; stroke-width: 1.5;" x1="408" x2="732" y1="366.9531" y2="366.9531"/><rect fill="none" height="6" style="stroke: #595959; stroke-width: 1.0;" width="6" x="415" y="374.9531"/><text fill="#000000" font-family="sans-serif" font-size="11" lengthAdjust="spacingAndGlyphs" textLength="76" x="427" y="381.1636">cmk[]: clients</text><line style="stroke: #383838; stroke-width: 1.5;" x1="408" x2="732" y1="387.7578" y2="387.7578"/><text fill="#000000" font-family="sans-serif" font-size="11" lengthAdjust="spacingAndGlyphs" textLength="291" x="413" y="401.9683">cmkAuth: signUp(password, email, threshold, cmk)</text><text fill="#000000" font-family="sans-serif" font-size="11" lengthAdjust="spacingAndGlyphs" textLength="147" x="413" y="414.7729">cmkAuth: logIn(password)</text><text fill="#000000" font-family="sans-serif" font-size="11" lengthAdjust="spacingAndGlyphs" textLength="178" x="413" y="427.5776">prismAuth: getPrismAuth(pass)</text><text fill="#000000" font-family="sans-serif" font-size="11" lengthAdjust="spacingAndGlyphs" textLength="314" x="413" y="440.3823">cmkAuth: Reconstruct(textShares, newPass, threshold)</text><text fill="#000000" font-family="sans-serif" font-size="11" lengthAdjust="spacingAndGlyphs" textLength="226" x="413" y="453.187">changePass(pass, newPass, threshold)</text><!--MD5=[ef83677d422b6061eb7fde8333b4ae3b]
class cvkFlow--><rect fill="#F8F8F8" filter="url(#f15grky4dsamxq)" height="99.2188" id="cvkFlow" style="stroke: #383838; stroke-width: 1.5;" width="366" x="6" y="347.9531"/><ellipse cx="159.75" cy="363.9531" fill="#C2C2C2" rx="11" ry="11" style="stroke: #383838; stroke-width: 1.0;"/><path d="M162.7188,369.5938 Q162.1406,369.8906 161.5,370.0313 Q160.8594,370.1875 160.1563,370.1875 Q157.6563,370.1875 156.3281,368.5469 Q155.0156,366.8906 155.0156,363.7656 Q155.0156,360.6406 156.3281,358.9844 Q157.6563,357.3281 160.1563,357.3281 Q160.8594,357.3281 161.5,357.4844 Q162.1563,357.6406 162.7188,357.9375 L162.7188,360.6563 Q162.0938,360.0781 161.5,359.8125 Q160.9063,359.5313 160.2813,359.5313 Q158.9375,359.5313 158.25,360.6094 Q157.5625,361.6719 157.5625,363.7656 Q157.5625,365.8594 158.25,366.9375 Q158.9375,368 160.2813,368 Q160.9063,368 161.5,367.7344 Q162.0938,367.4531 162.7188,366.875 L162.7188,369.5938 Z "/><text fill="#000000" font-family="sans-serif" font-size="12" lengthAdjust="spacingAndGlyphs" textLength="50" x="180.25" y="368.1074">CVKFlow</text><line style="stroke: #383838; stroke-width: 1.5;" x1="7" x2="371" y1="379.9531" y2="379.9531"/><rect fill="none" height="6" style="stroke: #595959; stroke-width: 1.0;" width="6" x="14" y="387.9531"/><text fill="#000000" font-family="sans-serif" font-size="11" lengthAdjust="spacingAndGlyphs" textLength="103" x="26" y="394.1636">cvkClient[]: clients</text><line style="stroke: #383838; stroke-width: 1.5;" x1="7" x2="371" y1="400.7578" y2="400.7578"/><text fill="#000000" font-family="sans-serif" font-size="11" lengthAdjust="spacingAndGlyphs" textLength="354" x="12" y="414.9683">cvk: signUp(cmkAuth, threshold, signedKeyId, signatures, cvk)</text><text fill="#000000" font-family="sans-serif" font-size="11" lengthAdjust="spacingAndGlyphs" textLength="120" x="12" y="427.7729">cvk: getKey(cmkAuth)</text><text fill="#000000" font-family="sans-serif" font-size="11" lengthAdjust="spacingAndGlyphs" textLength="172" x="12" y="440.5776">byte[]: decrypt(cipher, private)</text><!--MD5=[7fb17fca6a6c33e8615743cc57a9ca35]
class ruleSet--><rect fill="#F8F8F8" filter="url(#f15grky4dsamxq)" height="99.2188" id="ruleSet" style="stroke: #383838; stroke-width: 1.5;" width="133" x="768.5" y="347.9531"/><ellipse cx="791.6" cy="363.9531" fill="#C2C2C2" rx="11" ry="11" style="stroke: #383838; stroke-width: 1.0;"/><path d="M794.5688,369.5938 Q793.9906,369.8906 793.35,370.0313 Q792.7094,370.1875 792.0063,370.1875 Q789.5063,370.1875 788.1781,368.5469 Q786.8656,366.8906 786.8656,363.7656 Q786.8656,360.6406 788.1781,358.9844 Q789.5063,357.3281 792.0063,357.3281 Q792.7094,357.3281 793.35,357.4844 Q794.0063,357.6406 794.5688,357.9375 L794.5688,360.6563 Q793.9438,360.0781 793.35,359.8125 Q792.7563,359.5313 792.1313,359.5313 Q790.7875,359.5313 790.1,360.6094 Q789.4125,361.6719 789.4125,363.7656 Q789.4125,365.8594 790.1,366.9375 Q790.7875,368 792.1313,368 Q792.7563,368 793.35,367.7344 Q793.9438,367.4531 794.5688,366.875 L794.5688,369.5938 Z "/><text fill="#000000" font-family="sans-serif" font-size="12" lengthAdjust="spacingAndGlyphs" textLength="83" x="807.4" y="368.1074">RuleClientSet</text><line style="stroke: #383838; stroke-width: 1.5;" x1="769.5" x2="900.5" y1="379.9531" y2="379.9531"/><rect fill="none" height="6" style="stroke: #595959; stroke-width: 1.0;" width="6" x="776.5" y="387.9531"/><text fill="#000000" font-family="sans-serif" font-size="11" lengthAdjust="spacingAndGlyphs" textLength="107" x="788.5" y="394.1636">ruleClient[]: clients</text><line style="stroke: #383838; stroke-width: 1.5;" x1="769.5" x2="900.5" y1="400.7578" y2="400.7578"/><text fill="#000000" font-family="sans-serif" font-size="11" lengthAdjust="spacingAndGlyphs" textLength="82" x="774.5" y="414.9683">getById(ruleId)</text><text fill="#000000" font-family="sans-serif" font-size="11" lengthAdjust="spacingAndGlyphs" textLength="45" x="774.5" y="427.7729">getSet()</text><text fill="#000000" font-family="sans-serif" font-size="11" lengthAdjust="spacingAndGlyphs" textLength="102" x="774.5" y="440.5776">setOrUpdate(rule)</text><!--MD5=[468d598148db5a98f3118422765c4d93]
class dauth--><rect fill="#F8F8F8" filter="url(#f15grky4dsamxq)" height="112.0234" id="dauth" style="stroke: #383838; stroke-width: 1.5;" width="270" x="435" y="519.9531"/><ellipse cx="533.25" cy="535.9531" fill="#C2C2C2" rx="11" ry="11" style="stroke: #383838; stroke-width: 1.0;"/><path d="M536.2188,541.5938 Q535.6406,541.8906 535,542.0313 Q534.3594,542.1875 533.6563,542.1875 Q531.1563,542.1875 529.8281,540.5469 Q528.5156,538.8906 528.5156,535.7656 Q528.5156,532.6406 529.8281,530.9844 Q531.1563,529.3281 533.6563,529.3281 Q534.3594,529.3281 535,529.4844 Q535.6563,529.6406 536.2188,529.9375 L536.2188,532.6563 Q535.5938,532.0781 535,531.8125 Q534.4063,531.5313 533.7813,531.5313 Q532.4375,531.5313 531.75,532.6094 Q531.0625,533.6719 531.0625,535.7656 Q531.0625,537.8594 531.75,538.9375 Q532.4375,540 533.7813,540 Q534.4063,540 535,539.7344 Q535.5938,539.4531 536.2188,538.875 L536.2188,541.5938 Z "/><text fill="#000000" font-family="sans-serif" font-size="12" lengthAdjust="spacingAndGlyphs" textLength="65" x="553.75" y="540.1074">DAuthFlow</text><line style="stroke: #383838; stroke-width: 1.5;" x1="436" x2="704" y1="551.9531" y2="551.9531"/><line style="stroke: #383838; stroke-width: 1.5;" x1="436" x2="704" y1="559.9531" y2="559.9531"/><text fill="#000000" font-family="sans-serif" font-size="11" lengthAdjust="spacingAndGlyphs" textLength="204" x="441" y="574.1636">signUp(password, email, threshold)</text><text fill="#000000" font-family="sans-serif" font-size="11" lengthAdjust="spacingAndGlyphs" textLength="91" x="441" y="586.9683">logIn(password)</text><text fill="#000000" font-family="sans-serif" font-size="11" lengthAdjust="spacingAndGlyphs" textLength="53" x="441" y="599.7729">Recover()</text><text fill="#000000" font-family="sans-serif" font-size="11" lengthAdjust="spacingAndGlyphs" textLength="258" x="441" y="612.5776">Reconstruct(textShares, newPass, threshold)</text><text fill="#000000" font-family="sans-serif" font-size="11" lengthAdjust="spacingAndGlyphs" textLength="226" x="441" y="625.3823">changePass(pass, newPass, threshold)</text><!--MD5=[40a35184bb90072991ba45e70685caab]
link com to cvk--><path d="M512.8819,77.0277 C473.6129,93.5791 419.3765,116.4391 367.4664,138.3185 " fill="none" id="com-&gt;cvk" style="stroke: #383838; stroke-width: 1.0;"/><polygon fill="#383838" points="355.3864,143.4101,362.4689,144.7657,366.4443,138.7494,359.3618,137.3938,355.3864,143.4101" style="stroke: #383838; stroke-width: 1.0;"/><!--MD5=[e1537ef24234ad7dcc446ebf65acdb96]
link com to cmk--><path d="M570,77.1964 C570,90.0884 570,106.7732 570,123.8327 " fill="none" id="com-&gt;cmk" style="stroke: #383838; stroke-width: 1.0;"/><polygon fill="#383838" points="570,136.8947,574,130.8947,570,124.8947,566,130.8947,570,136.8947" style="stroke: #383838; stroke-width: 1.0;"/><!--MD5=[8e1bc20d129f7b299811e34f9f3ed5f1]
link com to rule--><path d="M624.6412,77.0868 C657.7959,92.5793 700.4304,114.0382 736,136.9531 C742.0345,140.8407 748.1464,145.0699 754.1836,149.4572 " fill="none" id="com-&gt;rule" style="stroke: #383838; stroke-width: 1.0;"/><polygon fill="#383838" points="764.937,157.4856,762.5221,150.6909,755.3213,150.3067,757.7361,157.1014,764.937,157.4856" style="stroke: #383838; stroke-width: 1.0;"/><!--MD5=[d56ebb2920a711f0a236a511a1e14dbe]
link cmk to cmkFlow--><path d="M570,275.089 C570,290.1699 570,306.2075 570,321.536 " fill="none" id="cmk-&gt;cmkFlow" style="stroke: #383838; stroke-width: 1.0;"/><polygon fill="#383838" points="570,334.782,574,328.782,570,322.782,566,328.782,570,334.782" style="stroke: #383838; stroke-width: 1.0;"/><text fill="#000000" font-family="sans-serif" font-size="13" lengthAdjust="spacingAndGlyphs" textLength="7" x="562.5953" y="323.753">*</text><!--MD5=[35e4b31c21f14f01031485289b2f41a8]
link cvk to cvkFlow--><path d="M201.1061,268.6574 C199.1202,289.7854 196.9043,313.3603 194.9166,334.5069 " fill="none" id="cvk-&gt;cvkFlow" style="stroke: #383838; stroke-width: 1.0;"/><polygon fill="#383838" points="193.6805,347.6581,198.2244,342.0588,194.8035,335.7108,190.2595,341.3101,193.6805,347.6581" style="stroke: #383838; stroke-width: 1.0;"/><text fill="#000000" font-family="sans-serif" font-size="13" lengthAdjust="spacingAndGlyphs" textLength="7" x="186.8391" y="337.0202">*</text><!--MD5=[c518a128692205db3780cf5b0483bb4a]
link rule to ruleSet--><path d="M825.3817,255.7676 C827.0217,279.9266 829.0089,309.1989 830.7502,334.8503 " fill="none" id="rule-&gt;ruleSet" style="stroke: #383838; stroke-width: 1.0;"/><polygon fill="#383838" points="831.6353,347.888,835.2197,341.6309,830.8225,335.9156,827.2381,342.1728,831.6353,347.888" style="stroke: #383838; stroke-width: 1.0;"/><text fill="#000000" font-family="sans-serif" font-size="13" lengthAdjust="spacingAndGlyphs" textLength="7" x="823.67" y="336.9241">*</text><!--MD5=[8d313e87f43b4b5329ff6eedcb372c00]
link cmkFlow to dauth--><path d="M570,460.1345 C570,475.1298 570,491.2261 570,506.5067 " fill="none" id="cmkFlow-&gt;dauth" style="stroke: #383838; stroke-width: 1.0;"/><polygon fill="#383838" points="570,519.677,574,513.677,570,507.677,566,513.677,570,519.677" style="stroke: #383838; stroke-width: 1.0;"/><!--MD5=[216fc76aecc9355cecf91fbbcea7cbf0]
link cvkFlow to dauth--><path d="M294.8767,447.0567 C339.334,467.8852 391.5087,492.3292 438.402,514.2989 " fill="none" id="cvkFlow-&gt;dauth" style="stroke: #383838; stroke-width: 1.0;"/><polygon fill="#383838" points="450.2023,519.8274,446.4661,513.6597,439.3358,514.7364,443.072,520.9041,450.2023,519.8274" style="stroke: #383838; stroke-width: 1.0;"/><!--MD5=[a0eae7e7d0ec2517696ed3afbc08eb0b]
link ruleSet to dauth--><path d="M769.2856,447.0226 C763.1439,451.4506 756.9811,455.8188 751,459.9531 C725.4786,477.594 697.4475,496.0091 671.2274,512.8356 " fill="none" id="ruleSet-&gt;dauth" style="stroke: #383838; stroke-width: 1.0;"/><polygon fill="#383838" points="660.1136,519.9429,667.3234,520.0802,670.2231,513.4778,663.0133,513.3405,660.1136,519.9429" style="stroke: #383838; stroke-width: 1.0;"/><!--MD5=[4ef3fdb1375b12b3d62c64842e9a828d]
@startuml dAuthFlowClass
skinparam monochrome true

title Dauth Flow Class
class "ORKComunicator" as com
class "CVKClient" as cvk
class "CMKClient" as cmk
class "RuleClient" as rule
class "CMKFlow" as cmkFlow
class "CVKFlow" as cvkFlow
class "RuleClientSet" as ruleSet
class "DAuthFlow" as dauth

com - -* cvk
com - -* cmk
com - -* rule

cmk - -* "*" cmkFlow
cvk - -* "*" cvkFlow
rule - -* "*" ruleSet

 cmkFlow - -* dauth
 cvkFlow - -* dauth
 ruleSet - -* dauth

class cmk {
  -communicator
  applyPrism(pass)
  signIn(token)
  signUp(prismi, cmki, prismAuthi, cmkAuthi, email)
  changePass(prismi, prismAuthi, token, withCmk)
  recover()
  confirm()

}

class cvk {
  -communicator
  register(cvkPub, cvki, cvkAuthi, signedKeyId, signature)
  getCvk(key)
  challenge(keyId)
  decrypt(data, keyId, token, sign)
  confirm()
}

class rule {
  -communicator
  getById(ruleId)
  getSet()
  setOrUpdate(rule)
}


class cmkFlow {
  - cmk[]: clients
  cmkAuth: signUp(password, email, threshold, cmk)
  cmkAuth: logIn(password)
  prismAuth: getPrismAuth(pass)
  cmkAuth: Reconstruct(textShares, newPass, threshold)
  changePass(pass, newPass, threshold)
}

class cvkFlow {
  - cvkClient[]: clients
  cvk: signUp(cmkAuth, threshold, signedKeyId, signatures, cvk)
  cvk: getKey(cmkAuth)
  byte[]: decrypt(cipher, private)
}

class ruleSet {
  - ruleClient[]: clients
  getById(ruleId)
  getSet()
  setOrUpdate(rule)
}


class dauth {
  
  signUp(password, email, threshold)
  logIn(password)
  Recover()
  Reconstruct(textShares, newPass, threshold)
  changePass(pass, newPass, threshold)
}

@enduml

PlantUML version 1.2020.10(Sun May 17 19:35:57 AEST 2020)
(GPL source distribution)
Java Runtime: OpenJDK Runtime Environment
JVM: OpenJDK 64-Bit Server VM
Java Version: 11.0.8+10-post-Ubuntu-0ubuntu118.04.1
Operating System: Linux
Default Encoding: UTF-8
Language: en
Country: AU
--></g></svg>