<?xml version="1.0" encoding="UTF-8" standalone="no"?><svg xmlns="http://www.w3.org/2000/svg" xmlns:xlink="http://www.w3.org/1999/xlink" contentScriptType="application/ecmascript" contentStyleType="text/css" height="743px" preserveAspectRatio="none" style="width:2105px;height:743px;" version="1.1" viewBox="0 0 2105 743" width="2105px" zoomAndPan="magnify"><defs><filter height="300%" id="f1a9vo7jbqdr04" width="300%" x="-1" y="-1"><feGaussianBlur result="blurOut" stdDeviation="2.0"/><feColorMatrix in="blurOut" result="blurOut2" type="matrix" values="0 0 0 0 0 0 0 0 0 0 0 0 0 0 0 0 0 0 .4 0"/><feOffset dx="4.0" dy="4.0" in="blurOut2" result="blurOut3"/><feBlend in="SourceGraphic" in2="blurOut3" mode="normal"/></filter></defs><g><text fill="#000000" font-family="sans-serif" font-size="18" lengthAdjust="spacingAndGlyphs" textLength="85" x="1003.6372" y="16.708">Ork Node</text><!--MD5=[9d1231581fcdf11088b46bb4d4652791]
class stub--><rect codeLine="5" fill="#F8F8F8" filter="url(#f1a9vo7jbqdr04)" height="53.9375" id="stub" style="stroke: #383838; stroke-width: 1.5;" width="99" x="1081.7577" y="135.9531"/><ellipse cx="1096.7577" cy="154.9219" fill="#B1B1B1" rx="11" ry="11" style="stroke: #383838; stroke-width: 1.0;"/><path d="M1092.6796,150.6875 L1092.6796,148.5313 L1100.0702,148.5313 L1100.0702,150.6875 L1097.6014,150.6875 L1097.6014,158.7656 L1100.0702,158.7656 L1100.0702,160.9219 L1092.6796,160.9219 L1092.6796,158.7656 L1095.1483,158.7656 L1095.1483,150.6875 L1092.6796,150.6875 Z "/><text fill="#000000" font-family="sans-serif" font-size="12" font-style="italic" lengthAdjust="spacingAndGlyphs" textLength="71" x="1108.7577" y="152.0918">«Interface»</text><text fill="#000000" font-family="sans-serif" font-size="12" font-style="italic" lengthAdjust="spacingAndGlyphs" textLength="29" x="1129.7577" y="166.0605">Stub</text><line style="stroke: #383838; stroke-width: 1.5;" x1="1082.7577" x2="1179.7577" y1="173.8906" y2="173.8906"/><line style="stroke: #383838; stroke-width: 1.5;" x1="1082.7577" x2="1179.7577" y1="181.8906" y2="181.8906"/><path d="M1083.2577,39.4531 L1083.2577,64.5859 A0,0 0 0 0 1083.2577,64.5859 L1141.4223,64.5859 L1135.2006,135.5995 L1149.4223,64.5859 L1211.2577,64.5859 A0,0 0 0 0 1211.2577,64.5859 L1211.2577,49.4531 L1201.2577,39.4531 L1083.2577,39.4531 A0,0 0 0 0 1083.2577,39.4531 " fill="#ECECEC" filter="url(#f1a9vo7jbqdr04)" style="stroke: #383838; stroke-width: 1.0;"/><path d="M1201.2577,39.4531 L1201.2577,49.4531 L1211.2577,49.4531 L1201.2577,39.4531 " fill="#ECECEC" style="stroke: #383838; stroke-width: 1.0;"/><text fill="#000000" font-family="sans-serif" font-size="13" lengthAdjust="spacingAndGlyphs" textLength="107" x="1089.2577" y="56.52">Inbound Channel</text><!--MD5=[1a8d55622698c33518b95b931c147dc9]
class blockCh--><rect codeLine="8" fill="#F8F8F8" filter="url(#f1a9vo7jbqdr04)" height="48" id="blockCh" style="stroke: #383838; stroke-width: 1.5;" width="151" x="895.7577" y="138.9531"/><ellipse cx="910.7577" cy="154.9531" fill="#C2C2C2" rx="11" ry="11" style="stroke: #383838; stroke-width: 1.0;"/><path d="M913.7265,160.5938 Q913.1483,160.8906 912.5077,161.0313 Q911.8671,161.1875 911.164,161.1875 Q908.664,161.1875 907.3358,159.5469 Q906.0233,157.8906 906.0233,154.7656 Q906.0233,151.6406 907.3358,149.9844 Q908.664,148.3281 911.164,148.3281 Q911.8671,148.3281 912.5077,148.4844 Q913.164,148.6406 913.7265,148.9375 L913.7265,151.6563 Q913.1015,151.0781 912.5077,150.8125 Q911.914,150.5313 911.289,150.5313 Q909.9452,150.5313 909.2577,151.6094 Q908.5702,152.6719 908.5702,154.7656 Q908.5702,156.8594 909.2577,157.9375 Q909.9452,159 911.289,159 Q911.914,159 912.5077,158.7344 Q913.1015,158.4531 913.7265,157.875 L913.7265,160.5938 Z "/><text fill="#000000" font-family="sans-serif" font-size="12" lengthAdjust="spacingAndGlyphs" textLength="119" x="924.7577" y="159.1074">BlockChainChannel</text><line style="stroke: #383838; stroke-width: 1.5;" x1="896.7577" x2="1045.7577" y1="170.9531" y2="170.9531"/><line style="stroke: #383838; stroke-width: 1.5;" x1="896.7577" x2="1045.7577" y1="178.9531" y2="178.9531"/><path d="M862.7577,39.4531 L862.7577,64.5859 A0,0 0 0 0 862.7577,64.5859 L953.0931,64.5859 L967.7601,138.688 L961.0931,64.5859 L1047.7577,64.5859 A0,0 0 0 0 1047.7577,64.5859 L1047.7577,49.4531 L1037.7577,39.4531 L862.7577,39.4531 A0,0 0 0 0 862.7577,39.4531 " fill="#ECECEC" filter="url(#f1a9vo7jbqdr04)" style="stroke: #383838; stroke-width: 1.0;"/><path d="M1037.7577,39.4531 L1037.7577,49.4531 L1047.7577,49.4531 L1037.7577,39.4531 " fill="#ECECEC" style="stroke: #383838; stroke-width: 1.0;"/><text fill="#000000" font-family="sans-serif" font-size="13" lengthAdjust="spacingAndGlyphs" textLength="164" x="868.7577" y="56.52">Currently Simulator Client</text><!--MD5=[74b7b53c31b1a34eaa3831903e6d58b0]
class orkCh--><rect codeLine="11" fill="#F8F8F8" filter="url(#f1a9vo7jbqdr04)" height="48" id="orkCh" style="stroke: #383838; stroke-width: 1.5;" width="107" x="1246.7577" y="27.9531"/><ellipse cx="1261.7577" cy="43.9531" fill="#C2C2C2" rx="11" ry="11" style="stroke: #383838; stroke-width: 1.0;"/><path d="M1264.7264,49.5938 Q1264.1483,49.8906 1263.5077,50.0313 Q1262.8671,50.1875 1262.1639,50.1875 Q1259.6639,50.1875 1258.3358,48.5469 Q1257.0233,46.8906 1257.0233,43.7656 Q1257.0233,40.6406 1258.3358,38.9844 Q1259.6639,37.3281 1262.1639,37.3281 Q1262.8671,37.3281 1263.5077,37.4844 Q1264.1639,37.6406 1264.7264,37.9375 L1264.7264,40.6563 Q1264.1014,40.0781 1263.5077,39.8125 Q1262.9139,39.5313 1262.2889,39.5313 Q1260.9452,39.5313 1260.2577,40.6094 Q1259.5702,41.6719 1259.5702,43.7656 Q1259.5702,45.8594 1260.2577,46.9375 Q1260.9452,48 1262.2889,48 Q1262.9139,48 1263.5077,47.7344 Q1264.1014,47.4531 1264.7264,46.875 L1264.7264,49.5938 Z "/><text fill="#000000" font-family="sans-serif" font-size="12" lengthAdjust="spacingAndGlyphs" textLength="75" x="1275.7577" y="48.1074">ORKChannel</text><line style="stroke: #383838; stroke-width: 1.5;" x1="1247.7577" x2="1352.7577" y1="59.9531" y2="59.9531"/><line style="stroke: #383838; stroke-width: 1.5;" x1="1247.7577" x2="1352.7577" y1="67.9531" y2="67.9531"/><!--MD5=[2a1b37f5e92a9849a6e9277388e0abbf]
class discovery--><rect codeLine="13" fill="#F8F8F8" filter="url(#f1a9vo7jbqdr04)" height="48" id="discovery" style="stroke: #383838; stroke-width: 1.5;" width="152" x="1223.2577" y="249.9531"/><ellipse cx="1238.2577" cy="265.9531" fill="#C2C2C2" rx="11" ry="11" style="stroke: #383838; stroke-width: 1.0;"/><path d="M1241.2264,271.5938 Q1240.6483,271.8906 1240.0077,272.0313 Q1239.3671,272.1875 1238.6639,272.1875 Q1236.1639,272.1875 1234.8358,270.5469 Q1233.5233,268.8906 1233.5233,265.7656 Q1233.5233,262.6406 1234.8358,260.9844 Q1236.1639,259.3281 1238.6639,259.3281 Q1239.3671,259.3281 1240.0077,259.4844 Q1240.6639,259.6406 1241.2264,259.9375 L1241.2264,262.6563 Q1240.6014,262.0781 1240.0077,261.8125 Q1239.4139,261.5313 1238.7889,261.5313 Q1237.4452,261.5313 1236.7577,262.6094 Q1236.0702,263.6719 1236.0702,265.7656 Q1236.0702,267.8594 1236.7577,268.9375 Q1237.4452,270 1238.7889,270 Q1239.4139,270 1240.0077,269.7344 Q1240.6014,269.4531 1241.2264,268.875 L1241.2264,271.5938 Z "/><text fill="#000000" font-family="sans-serif" font-size="12" lengthAdjust="spacingAndGlyphs" textLength="120" x="1252.2577" y="270.1074">DiscoveryController</text><line style="stroke: #383838; stroke-width: 1.5;" x1="1224.2577" x2="1374.2577" y1="281.9531" y2="281.9531"/><line style="stroke: #383838; stroke-width: 1.5;" x1="1224.2577" x2="1374.2577" y1="289.9531" y2="289.9531"/><!--MD5=[e6ef34c44c8e76aa7fe1e85c067f588c]
class cvk--><rect codeLine="14" fill="#F8F8F8" filter="url(#f1a9vo7jbqdr04)" height="48" id="cvk" style="stroke: #383838; stroke-width: 1.5;" width="116" x="764.2577" y="249.9531"/><ellipse cx="779.2577" cy="265.9531" fill="#C2C2C2" rx="11" ry="11" style="stroke: #383838; stroke-width: 1.0;"/><path d="M782.2265,271.5938 Q781.6483,271.8906 781.0077,272.0313 Q780.3671,272.1875 779.664,272.1875 Q777.164,272.1875 775.8358,270.5469 Q774.5233,268.8906 774.5233,265.7656 Q774.5233,262.6406 775.8358,260.9844 Q777.164,259.3281 779.664,259.3281 Q780.3671,259.3281 781.0077,259.4844 Q781.664,259.6406 782.2265,259.9375 L782.2265,262.6563 Q781.6015,262.0781 781.0077,261.8125 Q780.414,261.5313 779.789,261.5313 Q778.4452,261.5313 777.7577,262.6094 Q777.0702,263.6719 777.0702,265.7656 Q777.0702,267.8594 777.7577,268.9375 Q778.4452,270 779.789,270 Q780.414,270 781.0077,269.7344 Q781.6015,269.4531 782.2265,268.875 L782.2265,271.5938 Z "/><text fill="#000000" font-family="sans-serif" font-size="12" lengthAdjust="spacingAndGlyphs" textLength="84" x="793.2577" y="270.1074">CVKController</text><line style="stroke: #383838; stroke-width: 1.5;" x1="765.2577" x2="879.2577" y1="281.9531" y2="281.9531"/><line style="stroke: #383838; stroke-width: 1.5;" x1="765.2577" x2="879.2577" y1="289.9531" y2="289.9531"/><!--MD5=[1a01d0075b43e2bc6d12266a6f76d24b]
class cmk--><rect codeLine="15" fill="#F8F8F8" filter="url(#f1a9vo7jbqdr04)" height="48" id="cmk" style="stroke: #383838; stroke-width: 1.5;" width="118" x="915.2577" y="249.9531"/><ellipse cx="930.2577" cy="265.9531" fill="#C2C2C2" rx="11" ry="11" style="stroke: #383838; stroke-width: 1.0;"/><path d="M933.2265,271.5938 Q932.6483,271.8906 932.0077,272.0313 Q931.3671,272.1875 930.664,272.1875 Q928.164,272.1875 926.8358,270.5469 Q925.5233,268.8906 925.5233,265.7656 Q925.5233,262.6406 926.8358,260.9844 Q928.164,259.3281 930.664,259.3281 Q931.3671,259.3281 932.0077,259.4844 Q932.664,259.6406 933.2265,259.9375 L933.2265,262.6563 Q932.6015,262.0781 932.0077,261.8125 Q931.414,261.5313 930.789,261.5313 Q929.4452,261.5313 928.7577,262.6094 Q928.0702,263.6719 928.0702,265.7656 Q928.0702,267.8594 928.7577,268.9375 Q929.4452,270 930.789,270 Q931.414,270 932.0077,269.7344 Q932.6015,269.4531 933.2265,268.875 L933.2265,271.5938 Z "/><text fill="#000000" font-family="sans-serif" font-size="12" lengthAdjust="spacingAndGlyphs" textLength="86" x="944.2577" y="270.1074">CMKController</text><line style="stroke: #383838; stroke-width: 1.5;" x1="916.2577" x2="1032.2577" y1="281.9531" y2="281.9531"/><line style="stroke: #383838; stroke-width: 1.5;" x1="916.2577" x2="1032.2577" y1="289.9531" y2="289.9531"/><!--MD5=[803fa0f60d833365c81945099e5eaf5a]
class rule--><rect codeLine="16" fill="#F8F8F8" filter="url(#f1a9vo7jbqdr04)" height="48" id="rule" style="stroke: #383838; stroke-width: 1.5;" width="120" x="1068.2577" y="249.9531"/><ellipse cx="1083.2577" cy="265.9531" fill="#C2C2C2" rx="11" ry="11" style="stroke: #383838; stroke-width: 1.0;"/><path d="M1086.2264,271.5938 Q1085.6483,271.8906 1085.0077,272.0313 Q1084.3671,272.1875 1083.6639,272.1875 Q1081.1639,272.1875 1079.8358,270.5469 Q1078.5233,268.8906 1078.5233,265.7656 Q1078.5233,262.6406 1079.8358,260.9844 Q1081.1639,259.3281 1083.6639,259.3281 Q1084.3671,259.3281 1085.0077,259.4844 Q1085.6639,259.6406 1086.2264,259.9375 L1086.2264,262.6563 Q1085.6014,262.0781 1085.0077,261.8125 Q1084.4139,261.5313 1083.7889,261.5313 Q1082.4452,261.5313 1081.7577,262.6094 Q1081.0702,263.6719 1081.0702,265.7656 Q1081.0702,267.8594 1081.7577,268.9375 Q1082.4452,270 1083.7889,270 Q1084.4139,270 1085.0077,269.7344 Q1085.6014,269.4531 1086.2264,268.875 L1086.2264,271.5938 Z "/><text fill="#000000" font-family="sans-serif" font-size="12" lengthAdjust="spacingAndGlyphs" textLength="88" x="1097.2577" y="270.1074">RuleController</text><line style="stroke: #383838; stroke-width: 1.5;" x1="1069.2577" x2="1187.2577" y1="281.9531" y2="281.9531"/><line style="stroke: #383838; stroke-width: 1.5;" x1="1069.2577" x2="1187.2577" y1="289.9531" y2="289.9531"/><!--MD5=[f5e7ee3b479df05c99880ad25cfdce2c]
class manager--><rect codeLine="18" fill="#F8F8F8" filter="url(#f1a9vo7jbqdr04)" height="48" id="manager" style="stroke: #383838; stroke-width: 1.5;" width="138" x="982.2577" y="357.9531"/><ellipse cx="997.2577" cy="373.9531" fill="#B1B1B1" rx="11" ry="11" style="stroke: #383838; stroke-width: 1.0;"/><path d="M993.1796,369.7188 L993.1796,367.5625 L1000.5702,367.5625 L1000.5702,369.7188 L998.1015,369.7188 L998.1015,377.7969 L1000.5702,377.7969 L1000.5702,379.9531 L993.1796,379.9531 L993.1796,377.7969 L995.6483,377.7969 L995.6483,369.7188 L993.1796,369.7188 Z "/><text fill="#000000" font-family="sans-serif" font-size="12" font-style="italic" lengthAdjust="spacingAndGlyphs" textLength="106" x="1011.2577" y="378.1074">IManagerFactory</text><line style="stroke: #383838; stroke-width: 1.5;" x1="983.2577" x2="1119.2577" y1="389.9531" y2="389.9531"/><line style="stroke: #383838; stroke-width: 1.5;" x1="983.2577" x2="1119.2577" y1="397.9531" y2="397.9531"/><!--MD5=[4cbab1865767f5216473070697284a1b]
class cvkRepo--><rect codeLine="20" fill="#F8F8F8" filter="url(#f1a9vo7jbqdr04)" height="48" id="cvkRepo" style="stroke: #383838; stroke-width: 1.5;" width="92" x="226.2577" y="465.9531"/><ellipse cx="241.2577" cy="481.9531" fill="#B1B1B1" rx="11" ry="11" style="stroke: #383838; stroke-width: 1.0;"/><path d="M237.1796,477.7188 L237.1796,475.5625 L244.5702,475.5625 L244.5702,477.7188 L242.1015,477.7188 L242.1015,485.7969 L244.5702,485.7969 L244.5702,487.9531 L237.1796,487.9531 L237.1796,485.7969 L239.6483,485.7969 L239.6483,477.7188 L237.1796,477.7188 Z "/><text fill="#000000" font-family="sans-serif" font-size="12" font-style="italic" lengthAdjust="spacingAndGlyphs" textLength="60" x="255.2577" y="486.1074">ICVKRepo</text><line style="stroke: #383838; stroke-width: 1.5;" x1="227.2577" x2="317.2577" y1="497.9531" y2="497.9531"/><line style="stroke: #383838; stroke-width: 1.5;" x1="227.2577" x2="317.2577" y1="505.9531" y2="505.9531"/><!--MD5=[710e22861c0ca26d312f8d7cd2b2753b]
class cmkRepo--><rect codeLine="21" fill="#F8F8F8" filter="url(#f1a9vo7jbqdr04)" height="48" id="cmkRepo" style="stroke: #383838; stroke-width: 1.5;" width="94" x="924.2577" y="465.9531"/><ellipse cx="939.2577" cy="481.9531" fill="#B1B1B1" rx="11" ry="11" style="stroke: #383838; stroke-width: 1.0;"/><path d="M935.1796,477.7188 L935.1796,475.5625 L942.5702,475.5625 L942.5702,477.7188 L940.1015,477.7188 L940.1015,485.7969 L942.5702,485.7969 L942.5702,487.9531 L935.1796,487.9531 L935.1796,485.7969 L937.6483,485.7969 L937.6483,477.7188 L935.1796,477.7188 Z "/><text fill="#000000" font-family="sans-serif" font-size="12" font-style="italic" lengthAdjust="spacingAndGlyphs" textLength="62" x="953.2577" y="486.1074">ICMKRepo</text><line style="stroke: #383838; stroke-width: 1.5;" x1="925.2577" x2="1017.2577" y1="497.9531" y2="497.9531"/><line style="stroke: #383838; stroke-width: 1.5;" x1="925.2577" x2="1017.2577" y1="505.9531" y2="505.9531"/><!--MD5=[4466cc25ffd782342f9131b3b30f683e]
class keyRepo--><rect codeLine="22" fill="#F8F8F8" filter="url(#f1a9vo7jbqdr04)" height="48" id="keyRepo" style="stroke: #383838; stroke-width: 1.5;" width="91" x="1086.7577" y="465.9531"/><ellipse cx="1101.7577" cy="481.9531" fill="#B1B1B1" rx="11" ry="11" style="stroke: #383838; stroke-width: 1.0;"/><path d="M1097.6796,477.7188 L1097.6796,475.5625 L1105.0702,475.5625 L1105.0702,477.7188 L1102.6014,477.7188 L1102.6014,485.7969 L1105.0702,485.7969 L1105.0702,487.9531 L1097.6796,487.9531 L1097.6796,485.7969 L1100.1483,485.7969 L1100.1483,477.7188 L1097.6796,477.7188 Z "/><text fill="#000000" font-family="sans-serif" font-size="12" font-style="italic" lengthAdjust="spacingAndGlyphs" textLength="59" x="1115.7577" y="486.1074">IKeyRepo</text><line style="stroke: #383838; stroke-width: 1.5;" x1="1087.7577" x2="1176.7577" y1="497.9531" y2="497.9531"/><line style="stroke: #383838; stroke-width: 1.5;" x1="1087.7577" x2="1176.7577" y1="505.9531" y2="505.9531"/><!--MD5=[947e80d3d864063a160461eb7a38ad0a]
class ruleRepo--><rect codeLine="23" fill="#F8F8F8" filter="url(#f1a9vo7jbqdr04)" height="48" id="ruleRepo" style="stroke: #383838; stroke-width: 1.5;" width="95" x="1594.7577" y="465.9531"/><ellipse cx="1609.7577" cy="481.9531" fill="#B1B1B1" rx="11" ry="11" style="stroke: #383838; stroke-width: 1.0;"/><path d="M1605.6796,477.7188 L1605.6796,475.5625 L1613.0702,475.5625 L1613.0702,477.7188 L1610.6014,477.7188 L1610.6014,485.7969 L1613.0702,485.7969 L1613.0702,487.9531 L1605.6796,487.9531 L1605.6796,485.7969 L1608.1483,485.7969 L1608.1483,477.7188 L1605.6796,477.7188 Z "/><text fill="#000000" font-family="sans-serif" font-size="12" font-style="italic" lengthAdjust="spacingAndGlyphs" textLength="63" x="1623.7577" y="486.1074">IRuleRepo</text><line style="stroke: #383838; stroke-width: 1.5;" x1="1595.7577" x2="1688.7577" y1="497.9531" y2="497.9531"/><line style="stroke: #383838; stroke-width: 1.5;" x1="1595.7577" x2="1688.7577" y1="505.9531" y2="505.9531"/><!--MD5=[13f8256bd2d3ae899c5d41c5cd9ef698]
class cvkRepoSim--><rect codeLine="25" fill="#F8F8F8" filter="url(#f1a9vo7jbqdr04)" height="48" id="cvkRepoSim" style="stroke: #383838; stroke-width: 1.5;" width="146" x="199.2577" y="573.9531"/><ellipse cx="214.2577" cy="589.9531" fill="#C2C2C2" rx="11" ry="11" style="stroke: #383838; stroke-width: 1.0;"/><path d="M217.2265,595.5938 Q216.6483,595.8906 216.0077,596.0313 Q215.3671,596.1875 214.664,596.1875 Q212.164,596.1875 210.8358,594.5469 Q209.5233,592.8906 209.5233,589.7656 Q209.5233,586.6406 210.8358,584.9844 Q212.164,583.3281 214.664,583.3281 Q215.3671,583.3281 216.0077,583.4844 Q216.664,583.6406 217.2265,583.9375 L217.2265,586.6563 Q216.6015,586.0781 216.0077,585.8125 Q215.414,585.5313 214.789,585.5313 Q213.4452,585.5313 212.7577,586.6094 Q212.0702,587.6719 212.0702,589.7656 Q212.0702,591.8594 212.7577,592.9375 Q213.4452,594 214.789,594 Q215.414,594 216.0077,593.7344 Q216.6015,593.4531 217.2265,592.875 L217.2265,595.5938 Z "/><text fill="#000000" font-family="sans-serif" font-size="12" lengthAdjust="spacingAndGlyphs" textLength="114" x="228.2577" y="594.1074">SimulatorCVKRepo</text><line style="stroke: #383838; stroke-width: 1.5;" x1="200.2577" x2="344.2577" y1="605.9531" y2="605.9531"/><line style="stroke: #383838; stroke-width: 1.5;" x1="200.2577" x2="344.2577" y1="613.9531" y2="613.9531"/><!--MD5=[24ed090b9089d075bc23e63e10993267]
class cvkRepoCh--><rect codeLine="26" fill="#F8F8F8" filter="url(#f1a9vo7jbqdr04)" height="48" id="cvkRepoCh" style="stroke: #383838; stroke-width: 1.5;" width="126" x="38.2577" y="573.9531"/><ellipse cx="53.2577" cy="589.9531" fill="#C2C2C2" rx="11" ry="11" style="stroke: #383838; stroke-width: 1.0;"/><path d="M56.2265,595.5938 Q55.6483,595.8906 55.0077,596.0313 Q54.3671,596.1875 53.664,596.1875 Q51.164,596.1875 49.8358,594.5469 Q48.5233,592.8906 48.5233,589.7656 Q48.5233,586.6406 49.8358,584.9844 Q51.164,583.3281 53.664,583.3281 Q54.3671,583.3281 55.0077,583.4844 Q55.664,583.6406 56.2265,583.9375 L56.2265,586.6563 Q55.6015,586.0781 55.0077,585.8125 Q54.414,585.5313 53.789,585.5313 Q52.4452,585.5313 51.7577,586.6094 Q51.0702,587.6719 51.0702,589.7656 Q51.0702,591.8594 51.7577,592.9375 Q52.4452,594 53.789,594 Q54.414,594 55.0077,593.7344 Q55.6015,593.4531 56.2265,592.875 L56.2265,595.5938 Z "/><text fill="#000000" font-family="sans-serif" font-size="12" lengthAdjust="spacingAndGlyphs" textLength="94" x="67.2577" y="594.1074">CacheCVKRepo</text><line style="stroke: #383838; stroke-width: 1.5;" x1="39.2577" x2="163.2577" y1="605.9531" y2="605.9531"/><line style="stroke: #383838; stroke-width: 1.5;" x1="39.2577" x2="163.2577" y1="613.9531" y2="613.9531"/><!--MD5=[85114c207413a5ca6003d10607fb7da9]
class cvkRepoMem--><rect codeLine="27" fill="#F8F8F8" filter="url(#f1a9vo7jbqdr04)" height="48" id="cvkRepoMem" style="stroke: #383838; stroke-width: 1.5;" width="135" x="380.7577" y="573.9531"/><ellipse cx="395.7577" cy="589.9531" fill="#C2C2C2" rx="11" ry="11" style="stroke: #383838; stroke-width: 1.0;"/><path d="M398.7265,595.5938 Q398.1483,595.8906 397.5077,596.0313 Q396.8671,596.1875 396.164,596.1875 Q393.664,596.1875 392.3358,594.5469 Q391.0233,592.8906 391.0233,589.7656 Q391.0233,586.6406 392.3358,584.9844 Q393.664,583.3281 396.164,583.3281 Q396.8671,583.3281 397.5077,583.4844 Q398.164,583.6406 398.7265,583.9375 L398.7265,586.6563 Q398.1015,586.0781 397.5077,585.8125 Q396.914,585.5313 396.289,585.5313 Q394.9452,585.5313 394.2577,586.6094 Q393.5702,587.6719 393.5702,589.7656 Q393.5702,591.8594 394.2577,592.9375 Q394.9452,594 396.289,594 Q396.914,594 397.5077,593.7344 Q398.1015,593.4531 398.7265,592.875 L398.7265,595.5938 Z "/><text fill="#000000" font-family="sans-serif" font-size="12" lengthAdjust="spacingAndGlyphs" textLength="103" x="409.7577" y="594.1074">MemoryCVKRepo</text><line style="stroke: #383838; stroke-width: 1.5;" x1="381.7577" x2="514.7577" y1="605.9531" y2="605.9531"/><line style="stroke: #383838; stroke-width: 1.5;" x1="381.7577" x2="514.7577" y1="613.9531" y2="613.9531"/><!--MD5=[53a579c93d2e94ebdd1758aff04a3499]
class cmkRepoSim--><rect codeLine="29" fill="#F8F8F8" filter="url(#f1a9vo7jbqdr04)" height="48" id="cmkRepoSim" style="stroke: #383838; stroke-width: 1.5;" width="148" x="551.2577" y="573.9531"/><ellipse cx="566.2577" cy="589.9531" fill="#C2C2C2" rx="11" ry="11" style="stroke: #383838; stroke-width: 1.0;"/><path d="M569.2265,595.5938 Q568.6483,595.8906 568.0077,596.0313 Q567.3671,596.1875 566.664,596.1875 Q564.164,596.1875 562.8358,594.5469 Q561.5233,592.8906 561.5233,589.7656 Q561.5233,586.6406 562.8358,584.9844 Q564.164,583.3281 566.664,583.3281 Q567.3671,583.3281 568.0077,583.4844 Q568.664,583.6406 569.2265,583.9375 L569.2265,586.6563 Q568.6015,586.0781 568.0077,585.8125 Q567.414,585.5313 566.789,585.5313 Q565.4452,585.5313 564.7577,586.6094 Q564.0702,587.6719 564.0702,589.7656 Q564.0702,591.8594 564.7577,592.9375 Q565.4452,594 566.789,594 Q567.414,594 568.0077,593.7344 Q568.6015,593.4531 569.2265,592.875 L569.2265,595.5938 Z "/><text fill="#000000" font-family="sans-serif" font-size="12" lengthAdjust="spacingAndGlyphs" textLength="116" x="580.2577" y="594.1074">SimulatorCMKRepo</text><line style="stroke: #383838; stroke-width: 1.5;" x1="552.2577" x2="698.2577" y1="605.9531" y2="605.9531"/><line style="stroke: #383838; stroke-width: 1.5;" x1="552.2577" x2="698.2577" y1="613.9531" y2="613.9531"/><!--MD5=[a0d9c1a4d42e2b8259a9d760e2c710eb]
class cmkRepoCh--><rect codeLine="30" fill="#F8F8F8" filter="url(#f1a9vo7jbqdr04)" height="48" id="cmkRepoCh" style="stroke: #383838; stroke-width: 1.5;" width="128" x="907.2577" y="573.9531"/><ellipse cx="922.2577" cy="589.9531" fill="#C2C2C2" rx="11" ry="11" style="stroke: #383838; stroke-width: 1.0;"/><path d="M925.2265,595.5938 Q924.6483,595.8906 924.0077,596.0313 Q923.3671,596.1875 922.664,596.1875 Q920.164,596.1875 918.8358,594.5469 Q917.5233,592.8906 917.5233,589.7656 Q917.5233,586.6406 918.8358,584.9844 Q920.164,583.3281 922.664,583.3281 Q923.3671,583.3281 924.0077,583.4844 Q924.664,583.6406 925.2265,583.9375 L925.2265,586.6563 Q924.6015,586.0781 924.0077,585.8125 Q923.414,585.5313 922.789,585.5313 Q921.4452,585.5313 920.7577,586.6094 Q920.0702,587.6719 920.0702,589.7656 Q920.0702,591.8594 920.7577,592.9375 Q921.4452,594 922.789,594 Q923.414,594 924.0077,593.7344 Q924.6015,593.4531 925.2265,592.875 L925.2265,595.5938 Z "/><text fill="#000000" font-family="sans-serif" font-size="12" lengthAdjust="spacingAndGlyphs" textLength="96" x="936.2577" y="594.1074">CacheCMKRepo</text><line style="stroke: #383838; stroke-width: 1.5;" x1="908.2577" x2="1034.2577" y1="605.9531" y2="605.9531"/><line style="stroke: #383838; stroke-width: 1.5;" x1="908.2577" x2="1034.2577" y1="613.9531" y2="613.9531"/><!--MD5=[6d9d8cdbaf0440cce7daa9eacc9ebf1d]
class cmkRepoMem--><rect codeLine="31" fill="#F8F8F8" filter="url(#f1a9vo7jbqdr04)" height="48" id="cmkRepoMem" style="stroke: #383838; stroke-width: 1.5;" width="137" x="734.7577" y="573.9531"/><ellipse cx="749.7577" cy="589.9531" fill="#C2C2C2" rx="11" ry="11" style="stroke: #383838; stroke-width: 1.0;"/><path d="M752.7265,595.5938 Q752.1483,595.8906 751.5077,596.0313 Q750.8671,596.1875 750.164,596.1875 Q747.664,596.1875 746.3358,594.5469 Q745.0233,592.8906 745.0233,589.7656 Q745.0233,586.6406 746.3358,584.9844 Q747.664,583.3281 750.164,583.3281 Q750.8671,583.3281 751.5077,583.4844 Q752.164,583.6406 752.7265,583.9375 L752.7265,586.6563 Q752.1015,586.0781 751.5077,585.8125 Q750.914,585.5313 750.289,585.5313 Q748.9452,585.5313 748.2577,586.6094 Q747.5702,587.6719 747.5702,589.7656 Q747.5702,591.8594 748.2577,592.9375 Q748.9452,594 750.289,594 Q750.914,594 751.5077,593.7344 Q752.1015,593.4531 752.7265,592.875 L752.7265,595.5938 Z "/><text fill="#000000" font-family="sans-serif" font-size="12" lengthAdjust="spacingAndGlyphs" textLength="105" x="763.7577" y="594.1074">MemoryCMKRepo</text><line style="stroke: #383838; stroke-width: 1.5;" x1="735.7577" x2="870.7577" y1="605.9531" y2="605.9531"/><line style="stroke: #383838; stroke-width: 1.5;" x1="735.7577" x2="870.7577" y1="613.9531" y2="613.9531"/><!--MD5=[ab28b118a95b5229f28e6825853a8e22]
class keyRepoSim--><rect codeLine="33" fill="#F8F8F8" filter="url(#f1a9vo7jbqdr04)" height="48" id="keyRepoSim" style="stroke: #383838; stroke-width: 1.5;" width="144" x="1229.2577" y="573.9531"/><ellipse cx="1244.2577" cy="589.9531" fill="#C2C2C2" rx="11" ry="11" style="stroke: #383838; stroke-width: 1.0;"/><path d="M1247.2264,595.5938 Q1246.6483,595.8906 1246.0077,596.0313 Q1245.3671,596.1875 1244.6639,596.1875 Q1242.1639,596.1875 1240.8358,594.5469 Q1239.5233,592.8906 1239.5233,589.7656 Q1239.5233,586.6406 1240.8358,584.9844 Q1242.1639,583.3281 1244.6639,583.3281 Q1245.3671,583.3281 1246.0077,583.4844 Q1246.6639,583.6406 1247.2264,583.9375 L1247.2264,586.6563 Q1246.6014,586.0781 1246.0077,585.8125 Q1245.4139,585.5313 1244.7889,585.5313 Q1243.4452,585.5313 1242.7577,586.6094 Q1242.0702,587.6719 1242.0702,589.7656 Q1242.0702,591.8594 1242.7577,592.9375 Q1243.4452,594 1244.7889,594 Q1245.4139,594 1246.0077,593.7344 Q1246.6014,593.4531 1247.2264,592.875 L1247.2264,595.5938 Z "/><text fill="#000000" font-family="sans-serif" font-size="12" lengthAdjust="spacingAndGlyphs" textLength="112" x="1258.2577" y="594.1074">SimulatorKeyRepo</text><line style="stroke: #383838; stroke-width: 1.5;" x1="1230.2577" x2="1372.2577" y1="605.9531" y2="605.9531"/><line style="stroke: #383838; stroke-width: 1.5;" x1="1230.2577" x2="1372.2577" y1="613.9531" y2="613.9531"/><!--MD5=[9328f9c1e0815c6d7dc37fb5f1ecda35]
class keyRepoCh--><rect codeLine="34" fill="#F8F8F8" filter="url(#f1a9vo7jbqdr04)" height="48" id="keyRepoCh" style="stroke: #383838; stroke-width: 1.5;" width="124" x="1070.2577" y="573.9531"/><ellipse cx="1085.2577" cy="589.9531" fill="#C2C2C2" rx="11" ry="11" style="stroke: #383838; stroke-width: 1.0;"/><path d="M1088.2264,595.5938 Q1087.6483,595.8906 1087.0077,596.0313 Q1086.3671,596.1875 1085.6639,596.1875 Q1083.1639,596.1875 1081.8358,594.5469 Q1080.5233,592.8906 1080.5233,589.7656 Q1080.5233,586.6406 1081.8358,584.9844 Q1083.1639,583.3281 1085.6639,583.3281 Q1086.3671,583.3281 1087.0077,583.4844 Q1087.6639,583.6406 1088.2264,583.9375 L1088.2264,586.6563 Q1087.6014,586.0781 1087.0077,585.8125 Q1086.4139,585.5313 1085.7889,585.5313 Q1084.4452,585.5313 1083.7577,586.6094 Q1083.0702,587.6719 1083.0702,589.7656 Q1083.0702,591.8594 1083.7577,592.9375 Q1084.4452,594 1085.7889,594 Q1086.4139,594 1087.0077,593.7344 Q1087.6014,593.4531 1088.2264,592.875 L1088.2264,595.5938 Z "/><text fill="#000000" font-family="sans-serif" font-size="12" lengthAdjust="spacingAndGlyphs" textLength="92" x="1099.2577" y="594.1074">CacheKeyRepo</text><line style="stroke: #383838; stroke-width: 1.5;" x1="1071.2577" x2="1193.2577" y1="605.9531" y2="605.9531"/><line style="stroke: #383838; stroke-width: 1.5;" x1="1071.2577" x2="1193.2577" y1="613.9531" y2="613.9531"/><!--MD5=[cdc7c1bcf4ecbf86e06e3c295023de87]
class keyRepoMem--><rect codeLine="35" fill="#F8F8F8" filter="url(#f1a9vo7jbqdr04)" height="48" id="keyRepoMem" style="stroke: #383838; stroke-width: 1.5;" width="133" x="1408.7577" y="573.9531"/><ellipse cx="1423.7577" cy="589.9531" fill="#C2C2C2" rx="11" ry="11" style="stroke: #383838; stroke-width: 1.0;"/><path d="M1426.7264,595.5938 Q1426.1483,595.8906 1425.5077,596.0313 Q1424.8671,596.1875 1424.1639,596.1875 Q1421.6639,596.1875 1420.3358,594.5469 Q1419.0233,592.8906 1419.0233,589.7656 Q1419.0233,586.6406 1420.3358,584.9844 Q1421.6639,583.3281 1424.1639,583.3281 Q1424.8671,583.3281 1425.5077,583.4844 Q1426.1639,583.6406 1426.7264,583.9375 L1426.7264,586.6563 Q1426.1014,586.0781 1425.5077,585.8125 Q1424.9139,585.5313 1424.2889,585.5313 Q1422.9452,585.5313 1422.2577,586.6094 Q1421.5702,587.6719 1421.5702,589.7656 Q1421.5702,591.8594 1422.2577,592.9375 Q1422.9452,594 1424.2889,594 Q1424.9139,594 1425.5077,593.7344 Q1426.1014,593.4531 1426.7264,592.875 L1426.7264,595.5938 Z "/><text fill="#000000" font-family="sans-serif" font-size="12" lengthAdjust="spacingAndGlyphs" textLength="101" x="1437.7577" y="594.1074">MemoryKeyRepo</text><line style="stroke: #383838; stroke-width: 1.5;" x1="1409.7577" x2="1540.7577" y1="605.9531" y2="605.9531"/><line style="stroke: #383838; stroke-width: 1.5;" x1="1409.7577" x2="1540.7577" y1="613.9531" y2="613.9531"/><!--MD5=[986b2fb3fce1d8c1c8a41d6c2a074e5a]
class ruleRepoSim--><rect codeLine="37" fill="#F8F8F8" filter="url(#f1a9vo7jbqdr04)" height="48" id="ruleRepoSim" style="stroke: #383838; stroke-width: 1.5;" width="150" x="1742.2577" y="573.9531"/><ellipse cx="1757.2577" cy="589.9531" fill="#C2C2C2" rx="11" ry="11" style="stroke: #383838; stroke-width: 1.0;"/><path d="M1760.2264,595.5938 Q1759.6483,595.8906 1759.0077,596.0313 Q1758.3671,596.1875 1757.6639,596.1875 Q1755.1639,596.1875 1753.8358,594.5469 Q1752.5233,592.8906 1752.5233,589.7656 Q1752.5233,586.6406 1753.8358,584.9844 Q1755.1639,583.3281 1757.6639,583.3281 Q1758.3671,583.3281 1759.0077,583.4844 Q1759.6639,583.6406 1760.2264,583.9375 L1760.2264,586.6563 Q1759.6014,586.0781 1759.0077,585.8125 Q1758.4139,585.5313 1757.7889,585.5313 Q1756.4452,585.5313 1755.7577,586.6094 Q1755.0702,587.6719 1755.0702,589.7656 Q1755.0702,591.8594 1755.7577,592.9375 Q1756.4452,594 1757.7889,594 Q1758.4139,594 1759.0077,593.7344 Q1759.6014,593.4531 1760.2264,592.875 L1760.2264,595.5938 Z "/><text fill="#000000" font-family="sans-serif" font-size="12" lengthAdjust="spacingAndGlyphs" textLength="118" x="1771.2577" y="594.1074">SimulatorRuleRepo</text><line style="stroke: #383838; stroke-width: 1.5;" x1="1743.2577" x2="1891.2577" y1="605.9531" y2="605.9531"/><line style="stroke: #383838; stroke-width: 1.5;" x1="1743.2577" x2="1891.2577" y1="613.9531" y2="613.9531"/><!--MD5=[1c9465e7ebce0516b393431c0af187a4]
class ruleRepoCh--><rect codeLine="38" fill="#F8F8F8" filter="url(#f1a9vo7jbqdr04)" height="48" id="ruleRepoCh" style="stroke: #383838; stroke-width: 1.5;" width="130" x="1577.2577" y="573.9531"/><ellipse cx="1592.2577" cy="589.9531" fill="#C2C2C2" rx="11" ry="11" style="stroke: #383838; stroke-width: 1.0;"/><path d="M1595.2264,595.5938 Q1594.6483,595.8906 1594.0077,596.0313 Q1593.3671,596.1875 1592.6639,596.1875 Q1590.1639,596.1875 1588.8358,594.5469 Q1587.5233,592.8906 1587.5233,589.7656 Q1587.5233,586.6406 1588.8358,584.9844 Q1590.1639,583.3281 1592.6639,583.3281 Q1593.3671,583.3281 1594.0077,583.4844 Q1594.6639,583.6406 1595.2264,583.9375 L1595.2264,586.6563 Q1594.6014,586.0781 1594.0077,585.8125 Q1593.4139,585.5313 1592.7889,585.5313 Q1591.4452,585.5313 1590.7577,586.6094 Q1590.0702,587.6719 1590.0702,589.7656 Q1590.0702,591.8594 1590.7577,592.9375 Q1591.4452,594 1592.7889,594 Q1593.4139,594 1594.0077,593.7344 Q1594.6014,593.4531 1595.2264,592.875 L1595.2264,595.5938 Z "/><text fill="#000000" font-family="sans-serif" font-size="12" lengthAdjust="spacingAndGlyphs" textLength="98" x="1606.2577" y="594.1074">CacheRuleRepo</text><line style="stroke: #383838; stroke-width: 1.5;" x1="1578.2577" x2="1706.2577" y1="605.9531" y2="605.9531"/><line style="stroke: #383838; stroke-width: 1.5;" x1="1578.2577" x2="1706.2577" y1="613.9531" y2="613.9531"/><!--MD5=[2de2cf952ee855e745efef9e29d7277a]
class ruleRepoMem--><rect codeLine="39" fill="#F8F8F8" filter="url(#f1a9vo7jbqdr04)" height="48" id="ruleRepoMem" style="stroke: #383838; stroke-width: 1.5;" width="139" x="1927.7577" y="573.9531"/><ellipse cx="1942.7577" cy="589.9531" fill="#C2C2C2" rx="11" ry="11" style="stroke: #383838; stroke-width: 1.0;"/><path d="M1945.7264,595.5938 Q1945.1483,595.8906 1944.5077,596.0313 Q1943.8671,596.1875 1943.1639,596.1875 Q1940.6639,596.1875 1939.3358,594.5469 Q1938.0233,592.8906 1938.0233,589.7656 Q1938.0233,586.6406 1939.3358,584.9844 Q1940.6639,583.3281 1943.1639,583.3281 Q1943.8671,583.3281 1944.5077,583.4844 Q1945.1639,583.6406 1945.7264,583.9375 L1945.7264,586.6563 Q1945.1014,586.0781 1944.5077,585.8125 Q1943.9139,585.5313 1943.2889,585.5313 Q1941.9452,585.5313 1941.2577,586.6094 Q1940.5702,587.6719 1940.5702,589.7656 Q1940.5702,591.8594 1941.2577,592.9375 Q1941.9452,594 1943.2889,594 Q1943.9139,594 1944.5077,593.7344 Q1945.1014,593.4531 1945.7264,592.875 L1945.7264,595.5938 Z "/><text fill="#000000" font-family="sans-serif" font-size="12" lengthAdjust="spacingAndGlyphs" textLength="107" x="1956.7577" y="594.1074">MemoryRuleRepo</text><line style="stroke: #383838; stroke-width: 1.5;" x1="1928.7577" x2="2065.7577" y1="605.9531" y2="605.9531"/><line style="stroke: #383838; stroke-width: 1.5;" x1="1928.7577" x2="2065.7577" y1="613.9531" y2="613.9531"/><!--MD5=[d7d1b0567e9ed7a7e840dc3579adaf45]
class memory--><rect codeLine="41" fill="#F8F8F8" filter="url(#f1a9vo7jbqdr04)" height="48" id="memory" style="stroke: #383838; stroke-width: 1.5;" width="126" x="1412.2577" y="681.9531"/><ellipse cx="1427.2577" cy="697.9531" fill="#C2C2C2" rx="11" ry="11" style="stroke: #383838; stroke-width: 1.0;"/><path d="M1430.2264,703.5938 Q1429.6483,703.8906 1429.0077,704.0313 Q1428.3671,704.1875 1427.6639,704.1875 Q1425.1639,704.1875 1423.8358,702.5469 Q1422.5233,700.8906 1422.5233,697.7656 Q1422.5233,694.6406 1423.8358,692.9844 Q1425.1639,691.3281 1427.6639,691.3281 Q1428.3671,691.3281 1429.0077,691.4844 Q1429.6639,691.6406 1430.2264,691.9375 L1430.2264,694.6563 Q1429.6014,694.0781 1429.0077,693.8125 Q1428.4139,693.5313 1427.7889,693.5313 Q1426.4452,693.5313 1425.7577,694.6094 Q1425.0702,695.6719 1425.0702,697.7656 Q1425.0702,699.8594 1425.7577,700.9375 Q1426.4452,702 1427.7889,702 Q1428.4139,702 1429.0077,701.7344 Q1429.6014,701.4531 1430.2264,700.875 L1430.2264,703.5938 Z "/><text fill="#000000" font-family="sans-serif" font-size="12" lengthAdjust="spacingAndGlyphs" textLength="94" x="1441.2577" y="702.1074">MemoryFactory</text><line style="stroke: #383838; stroke-width: 1.5;" x1="1413.2577" x2="1537.2577" y1="713.9531" y2="713.9531"/><line style="stroke: #383838; stroke-width: 1.5;" x1="1413.2577" x2="1537.2577" y1="721.9531" y2="721.9531"/><!--MD5=[63056715c62dfd072f9753338480104f]
class simulator--><rect codeLine="42" fill="#F8F8F8" filter="url(#f1a9vo7jbqdr04)" height="48" id="simulator" style="stroke: #383838; stroke-width: 1.5;" width="137" x="734.7577" y="681.9531"/><ellipse cx="749.7577" cy="697.9531" fill="#C2C2C2" rx="11" ry="11" style="stroke: #383838; stroke-width: 1.0;"/><path d="M752.7265,703.5938 Q752.1483,703.8906 751.5077,704.0313 Q750.8671,704.1875 750.164,704.1875 Q747.664,704.1875 746.3358,702.5469 Q745.0233,700.8906 745.0233,697.7656 Q745.0233,694.6406 746.3358,692.9844 Q747.664,691.3281 750.164,691.3281 Q750.8671,691.3281 751.5077,691.4844 Q752.164,691.6406 752.7265,691.9375 L752.7265,694.6563 Q752.1015,694.0781 751.5077,693.8125 Q750.914,693.5313 750.289,693.5313 Q748.9452,693.5313 748.2577,694.6094 Q747.5702,695.6719 747.5702,697.7656 Q747.5702,699.8594 748.2577,700.9375 Q748.9452,702 750.289,702 Q750.914,702 751.5077,701.7344 Q752.1015,701.4531 752.7265,700.875 L752.7265,703.5938 Z "/><text fill="#000000" font-family="sans-serif" font-size="12" lengthAdjust="spacingAndGlyphs" textLength="105" x="763.7577" y="702.1074">SimulatorFactory</text><line style="stroke: #383838; stroke-width: 1.5;" x1="735.7577" x2="870.7577" y1="713.9531" y2="713.9531"/><line style="stroke: #383838; stroke-width: 1.5;" x1="735.7577" x2="870.7577" y1="721.9531" y2="721.9531"/><!--MD5=[bd4f035138fd63dce9c500dc23624179]
link blockCh to discovery--><path codeLine="44" d="M1042.4288,187.0384 C1097.4454,205.6569 1173.244,231.3082 1228.2255,249.9148 " fill="none" id="blockCh-discovery" style="stroke: #383838; stroke-width: 1.0;"/><!--MD5=[5ebab01bb8f7506dd72ae6f81af28c83]
link blockCh to cvk--><path codeLine="45" d="M938.927,187.0384 C913.9347,205.6569 879.5018,231.3082 854.5254,249.9148 " fill="none" id="blockCh-cvk" style="stroke: #383838; stroke-width: 1.0;"/><!--MD5=[c0ed14a4142e156897aacd3c0913f12c]
link blockCh to cmk--><path codeLine="46" d="M971.9087,187.0384 C972.4119,205.6569 973.1052,231.3082 973.608,249.9148 " fill="none" id="blockCh-cmk" style="stroke: #383838; stroke-width: 1.0;"/><!--MD5=[74c7b66521092597c480f9c9a2aba456]
link blockCh to rule--><path codeLine="47" d="M1005.3244,187.0384 C1031.6586,205.6569 1067.9402,231.3082 1094.2576,249.9148 " fill="none" id="blockCh-rule" style="stroke: #383838; stroke-width: 1.0;"/><!--MD5=[2684958ea04e40b6a9533fdc62661c37]
link stub to discovery--><path codeLine="49" d="M1172.3552,190.1068 C1200.0403,208.3987 1236.2247,232.3063 1262.8681,249.91 " fill="none" id="stub-discovery" style="stroke: #383838; stroke-width: 1.0;"/><!--MD5=[da5a253ee683283b5230d18cc44f55b1]
link stub to cvk--><path codeLine="50" d="M1081.6043,183.2775 C1075.7729,185.5709 1069.8945,187.8405 1064.2577,189.9531 C1001.9997,213.2868 929.926,238.0146 880.7333,254.5506 " fill="none" id="stub-cvk" style="stroke: #383838; stroke-width: 1.0;"/><!--MD5=[25813d47d12b7be1106c7094b37c08b6]
link stub to cmk--><path codeLine="51" d="M1092.8512,190.1068 C1066.9788,208.3987 1033.1636,232.3063 1008.2647,249.91 " fill="none" id="stub-cmk" style="stroke: #383838; stroke-width: 1.0;"/><!--MD5=[a693139ae48b0f19c3d47d6117496cdd]
link stub to rule--><path codeLine="52" d="M1130.5239,190.1068 C1130.0312,208.3346 1129.3879,232.1386 1128.9126,249.7244 " fill="none" id="stub-rule" style="stroke: #383838; stroke-width: 1.0;"/><!--MD5=[3cee2ed27189d8a73052af6c4d62fab9]
reverse link discovery to manager--><path codeLine="54" d="M1231.7716,303.3422 C1192.4365,320.472 1143.4495,341.8051 1106.4359,357.9239 " fill="none" id="discovery-backto-manager" style="stroke: #383838; stroke-width: 1.0;"/><polygon fill="#383838" points="1243.9104,298.056,1236.8123,296.7843,1232.9084,302.8473,1240.0065,304.119,1243.9104,298.056" style="stroke: #383838; stroke-width: 1.0;"/><!--MD5=[3a8db4603b6164a149045a252b6ea4fa]
reverse link cvk to manager--><path codeLine="55" d="M885.2807,303.6757 C921.4808,320.7483 966.3505,341.9095 1000.3069,357.9239 " fill="none" id="cvk-backto-manager" style="stroke: #383838; stroke-width: 1.0;"/><polygon fill="#383838" points="873.3648,298.056,877.0853,304.2332,884.2183,303.1747,880.4978,296.9975,873.3648,298.056" style="stroke: #383838; stroke-width: 1.0;"/><!--MD5=[ed55d23c5d9c8fff66e87dd4e825c822]
reverse link cmk to manager--><path codeLine="56" d="M999.413,309.2358 C1010.7469,325.1327 1023.8416,343.4992 1034.0351,357.7967 " fill="none" id="cmk-backto-manager" style="stroke: #383838; stroke-width: 1.0;"/><polygon fill="#383838" points="991.538,298.1904,991.7642,305.398,998.5043,307.9613,998.2781,300.7538,991.538,298.1904" style="stroke: #383838; stroke-width: 1.0;"/><!--MD5=[d8b4a8ea13727623e6b25bf68d79df1a]
reverse link rule to manager--><path codeLine="57" d="M1103.1025,309.2358 C1091.7686,325.1327 1078.6739,343.4992 1068.4804,357.7967 " fill="none" id="rule-backto-manager" style="stroke: #383838; stroke-width: 1.0;"/><polygon fill="#383838" points="1110.9774,298.1904,1104.2373,300.7538,1104.0111,307.9613,1110.7512,305.398,1110.9774,298.1904" style="stroke: #383838; stroke-width: 1.0;"/><!--MD5=[9e257bb3b82ee3fedc3b750d828c3c80]
link manager to cvkRepo--><path codeLine="59" d="M982.1267,391.5374 C826.106,413.168 450.0395,465.3056 318.5692,483.5325 " fill="none" id="manager-cvkRepo" style="stroke: #383838; stroke-width: 1.0;"/><!--MD5=[304daa0cdfe544554ee0dd10a86e1765]
link manager to cmkRepo--><path codeLine="60" d="M1033.3042,406.1904 C1020.1288,423.9771 1002.3126,448.029 989.1514,465.7967 " fill="none" id="manager-cmkRepo" style="stroke: #383838; stroke-width: 1.0;"/><!--MD5=[b95ba0614bfaca9423d9bd067b190c45]
link manager to keyRepo--><path codeLine="61" d="M1069.4357,406.1904 C1082.7758,423.9771 1100.8146,448.029 1114.1404,465.7967 " fill="none" id="manager-keyRepo" style="stroke: #383838; stroke-width: 1.0;"/><!--MD5=[de66f0ce2a8d061df21eaeda2abc8b35]
link manager to ruleRepo--><path codeLine="62" d="M1120.5,394.6065 C1241.967,416.8035 1490.4253,462.2071 1594.6124,481.2463 " fill="none" id="manager-ruleRepo" style="stroke: #383838; stroke-width: 1.0;"/><!--MD5=[7433fe6cd7904014dd7ceffa2f228419]
reverse link cvkRepo to cvkRepoSim--><path codeLine="64" d="M272.2577,534.2442 C272.2577,547.7702 272.2577,562.1366 272.2577,573.7967 " fill="none" id="cvkRepo-backto-cvkRepoSim" style="stroke: #383838; stroke-width: 1.0;"/><polygon fill="none" points="265.2578,534.1904,272.2577,514.1904,279.2578,534.1904,265.2578,534.1904" style="stroke: #383838; stroke-width: 1.0;"/><!--MD5=[5b05d8fc1a314864e802398fab982a86]
reverse link cvkRepo to cvkRepoCh--><path codeLine="65" d="M208.2999,522.8674 C180.7964,539.3001 150.2241,558.8234 128.6073,573.8429 " fill="none" id="cvkRepo-backto-cvkRepoCh" style="stroke: #383838; stroke-width: 1.0;"/><polygon fill="none" points="205.0135,516.6797,225.8054,512.5934,212.0998,528.7538,205.0135,516.6797" style="stroke: #383838; stroke-width: 1.0;"/><!--MD5=[32349d46afc6f427cdb97254863a9347]
reverse link cvkRepoCh to cvkRepo--><path codeLine="77" d="M162.4601,567.0878 C190.8495,550.2958 222.9805,529.8233 245.3631,514.1904 " fill="none" id="cvkRepoCh-backto-cvkRepo" style="stroke: #383838; stroke-width: 1.0;"/><polygon fill="#383838" points="150.9742,573.7967,158.1726,574.2245,161.3361,567.7444,154.1377,567.3166,150.9742,573.7967" style="stroke: #383838; stroke-width: 1.0;"/><!--MD5=[068197719e455d4133aa3ae2a8fc553f]
reverse link cvkRepo to cvkRepoMem--><path codeLine="66" d="M329.0021,524.7735 C355.0797,540.7757 385.366,559.3604 408.8917,573.7967 " fill="none" id="cvkRepo-backto-cvkRepoMem" style="stroke: #383838; stroke-width: 1.0;"/><polygon fill="none" points="325.1409,530.617,311.7556,514.1904,332.4632,518.6845,325.1409,530.617" style="stroke: #383838; stroke-width: 1.0;"/><!--MD5=[1860aa1a96627993ab883369c8d9f962]
reverse link cmkRepo to cmkRepoSim--><path codeLine="67" d="M905.0354,510.6237 C846.2641,528.9684 760.4935,555.7408 699.4345,574.7997 " fill="none" id="cmkRepo-backto-cmkRepoSim" style="stroke: #383838; stroke-width: 1.0;"/><polygon fill="none" points="903.0572,503.9081,924.2345,504.6309,907.2287,517.2722,903.0572,503.9081" style="stroke: #383838; stroke-width: 1.0;"/><!--MD5=[71df8259a462d9b8ce239efe5c65d11e]
reverse link cmkRepo to cmkRepoCh--><path codeLine="68" d="M958.6927,534.2442 C958.1723,547.7702 958.7501,562.1366 960.4261,573.7967 " fill="none" id="cmkRepo-backto-cmkRepoCh" style="stroke: #383838; stroke-width: 1.0;"/><polygon fill="none" points="951.7292,533.5182,960.4145,514.1904,965.6779,534.7159,951.7292,533.5182" style="stroke: #383838; stroke-width: 1.0;"/><!--MD5=[62549b960536af73cff824bd7159f5a1]
reverse link cmkRepoCh to cmkRepo--><path codeLine="78" d="M984.1829,560.4297 C985.2843,545.0988 984.8029,527.8084 982.7388,514.1904 " fill="none" id="cmkRepoCh-backto-cmkRepo" style="stroke: #383838; stroke-width: 1.0;"/><polygon fill="#383838" points="982.7265,573.7967,987.3529,568.2653,984.0263,561.8673,979.4,567.3988,982.7265,573.7967" style="stroke: #383838; stroke-width: 1.0;"/><!--MD5=[415688aec8ab0b46c7974a20596a694e]
reverse link cmkRepo to cmkRepoMem--><path codeLine="69" d="M916.3735,525.2358 C891.6451,541.1327 863.0749,559.4992 840.8344,573.7967 " fill="none" id="cmkRepo-backto-cmkRepoMem" style="stroke: #383838; stroke-width: 1.0;"/><polygon fill="none" points="912.9464,519.1174,933.5553,514.1904,920.517,530.8939,912.9464,519.1174" style="stroke: #383838; stroke-width: 1.0;"/><!--MD5=[4cb324aa293f764a6cddfbb337dbdb34]
reverse link keyRepo to keyRepoSim--><path codeLine="70" d="M1187.1066,525.0045 C1212.0651,540.9543 1240.976,559.4298 1263.4574,573.7967 " fill="none" id="keyRepo-backto-keyRepoSim" style="stroke: #383838; stroke-width: 1.0;"/><polygon fill="none" points="1183.2679,530.8586,1170.1846,514.1904,1190.8067,519.0618,1183.2679,530.8586" style="stroke: #383838; stroke-width: 1.0;"/><!--MD5=[e42d5e836ce52744864d81d21af8f0a3]
reverse link keyRepo to keyRepoCh--><path codeLine="71" d="M1119.6927,534.2442 C1119.1723,547.7702 1119.7501,562.1366 1121.4261,573.7967 " fill="none" id="keyRepo-backto-keyRepoCh" style="stroke: #383838; stroke-width: 1.0;"/><polygon fill="none" points="1112.7292,533.5182,1121.4145,514.1904,1126.6779,534.7159,1112.7292,533.5182" style="stroke: #383838; stroke-width: 1.0;"/><!--MD5=[363da117c5c76ac977f7595bc7c39e13]
reverse link keyRepoCh to keyRepo--><path codeLine="79" d="M1145.1829,560.4297 C1146.2843,545.0988 1145.8029,527.8084 1143.7388,514.1904 " fill="none" id="keyRepoCh-backto-keyRepo" style="stroke: #383838; stroke-width: 1.0;"/><polygon fill="#383838" points="1143.7265,573.7967,1148.3529,568.2653,1145.0263,561.8673,1140.4,567.3988,1143.7265,573.7967" style="stroke: #383838; stroke-width: 1.0;"/><!--MD5=[d37db9f1d6cbe5ec9b80b1f3fefd6997]
reverse link keyRepo to keyRepoMem--><path codeLine="72" d="M1197.1168,510.3752 C1257.6278,529.4282 1347.5053,557.7279 1408.5923,576.9622 " fill="none" id="keyRepo-backto-keyRepoMem" style="stroke: #383838; stroke-width: 1.0;"/><polygon fill="none" points="1194.7798,516.9782,1177.8055,504.2947,1198.9845,503.6245,1194.7798,516.9782" style="stroke: #383838; stroke-width: 1.0;"/><!--MD5=[66bd5821a026089cd26281ffd81e3397]
reverse link ruleRepo to ruleRepoSim--><path codeLine="73" d="M1698.6797,524.7735 C1724.6091,540.7757 1754.7233,559.3604 1778.1154,573.7967 " fill="none" id="ruleRepo-backto-ruleRepoSim" style="stroke: #383838; stroke-width: 1.0;"/><polygon fill="none" points="1694.8747,530.651,1681.5312,514.1904,1702.2273,518.7372,1694.8747,530.651" style="stroke: #383838; stroke-width: 1.0;"/><!--MD5=[ba87e03ad8441bfb8d302ab090c557c4]
reverse link ruleRepo to ruleRepoCh--><path codeLine="74" d="M1629.6927,534.2442 C1629.1723,547.7702 1629.7501,562.1366 1631.4261,573.7967 " fill="none" id="ruleRepo-backto-ruleRepoCh" style="stroke: #383838; stroke-width: 1.0;"/><polygon fill="none" points="1622.7292,533.5182,1631.4145,514.1904,1636.6779,534.7159,1622.7292,533.5182" style="stroke: #383838; stroke-width: 1.0;"/><!--MD5=[1e815171a32659c1f2122e32fff569f6]
reverse link ruleRepoCh to ruleRepo--><path codeLine="80" d="M1655.1829,560.4297 C1656.2843,545.0988 1655.8029,527.8084 1653.7388,514.1904 " fill="none" id="ruleRepoCh-backto-ruleRepo" style="stroke: #383838; stroke-width: 1.0;"/><polygon fill="#383838" points="1653.7265,573.7967,1658.3529,568.2653,1655.0263,561.8673,1650.4,567.3988,1653.7265,573.7967" style="stroke: #383838; stroke-width: 1.0;"/><!--MD5=[326b001c660a9de99a29c5804de9c557]
reverse link ruleRepo to ruleRepoMem--><path codeLine="75" d="M1709.2726,510.3407 C1771.631,529.3117 1864.1936,557.4716 1927.4381,576.7122 " fill="none" id="ruleRepo-backto-ruleRepoMem" style="stroke: #383838; stroke-width: 1.0;"/><polygon fill="none" points="1706.863,516.9245,1689.7663,504.4064,1710.9378,503.5306,1706.863,516.9245" style="stroke: #383838; stroke-width: 1.0;"/><!--MD5=[f6c922f380f43544d49c9c26756fc5d7]
link memory to manager--><path codeLine="82" d="M1538.4565,701.8744 C1687.029,691.6444 2048.6915,662.7617 2084.2577,621.9531 C2098.2743,605.8706 2097.0986,590.989 2084.2577,573.9531 C1971.0736,423.7922 1370.1972,390.9664 1140.5692,383.8767 " fill="none" id="memory-to-manager" style="stroke: #383838; stroke-width: 1.0;"/><polygon fill="none" points="1140.2836,390.8715,1120.4952,383.2939,1140.69,376.8774,1140.2836,390.8715" style="stroke: #383838; stroke-width: 1.0;"/><!--MD5=[915891042eef1039184b4680ca04f3af]
link simulator to manager--><path codeLine="83" d="M734.6989,703.7313 C552.6379,697.1297 67.6572,674.7096 20.2577,621.9531 C6,606.084 9.5711,592.4168 20.2577,573.9531 C68.5287,490.5538 116.5005,495.3834 208.2577,465.9531 C346.7922,421.5194 774.6518,395.5964 961.9296,386.1103 " fill="none" id="simulator-to-manager" style="stroke: #383838; stroke-width: 1.0;"/><polygon fill="none" points="961.6254,379.1169,981.9491,385.1127,962.3223,393.0996,961.6254,379.1169" style="stroke: #383838; stroke-width: 1.0;"/><!--MD5=[c05e638bbfe64680c32f7bef70ca2d78]
link cvkRepoMem to memory--><path codeLine="86" d="M516.1939,618.3387 C521.9355,619.6942 527.678,620.9259 533.2577,621.9531 C860.4503,682.1898 1259.8372,699.6955 1412.1551,704.3767 " fill="none" id="cvkRepoMem-memory" style="stroke: #383838; stroke-width: 1.0;"/><!--MD5=[093a7950ca4f4d858de47d479338c01d]
link cmkRepoMem to memory--><path codeLine="87" d="M872.0651,618.0028 C877.8584,619.4325 883.6451,620.7729 889.2577,621.9531 C1077.5871,661.555 1303.9284,688.1647 1411.9158,699.6008 " fill="none" id="cmkRepoMem-memory" style="stroke: #383838; stroke-width: 1.0;"/><!--MD5=[617177e2bb243395560bf68f83d4956e]
link keyRepoMem to memory--><path codeLine="88" d="M1475.2577,622.1904 C1475.2577,639.9771 1475.2577,664.029 1475.2577,681.7967 " fill="none" id="keyRepoMem-memory" style="stroke: #383838; stroke-width: 1.0;"/><!--MD5=[1462d59faeece17099ecf68a038d681f]
link ruleRepoMem to memory--><path codeLine="89" d="M1927.5773,617.6928 C1921.7328,619.1909 1915.9024,620.6317 1910.2577,621.9531 C1779.0109,652.6783 1623.6026,680.7019 1538.6203,695.3237 " fill="none" id="ruleRepoMem-memory" style="stroke: #383838; stroke-width: 1.0;"/><!--MD5=[c87f5afca62c3ba2efd75b97ef7b7102]
link cvkRepoSim to simulator--><path codeLine="91" d="M345.6566,617.7775 C351.5994,619.2402 357.5217,620.6508 363.2577,621.9531 C493.8895,651.6113 647.9305,679.3876 734.7381,694.3874 " fill="none" id="cvkRepoSim-simulator" style="stroke: #383838; stroke-width: 1.0;"/><!--MD5=[18751862bb120bb3d8a1bfdc795dc791]
link cvkRepoMem to simulator--><path codeLine="92" d="M515.8661,618.5213 C578.6317,637.6162 671.6212,665.9059 734.6919,685.0936 " fill="none" id="cvkRepoMem-simulator" style="stroke: #383838; stroke-width: 1.0;"/><!--MD5=[c101c140342875068c01d565d46cf606]
link cmkRepoSim to simulator--><path codeLine="93" d="M665.2044,622.1904 C694.5196,639.9771 734.1606,664.029 763.4444,681.7967 " fill="none" id="cmkRepoSim-simulator" style="stroke: #383838; stroke-width: 1.0;"/><!--MD5=[82c06460a74313e2cad482e8e77b14ae]
link cmkRepoMem to simulator--><path codeLine="94" d="M803.2577,622.1904 C803.2577,639.9771 803.2577,664.029 803.2577,681.7967 " fill="none" id="cmkRepoMem-simulator" style="stroke: #383838; stroke-width: 1.0;"/><!--MD5=[4b5cc5e89c7e91eceb92366daee695fb]
link keyRepoSim to simulator--><path codeLine="95" d="M1228.9782,617.8387 C1223.3308,619.2717 1217.7076,620.6599 1212.2577,621.9531 C1093.2374,650.1953 953.4108,677.7036 871.9246,693.1739 " fill="none" id="keyRepoSim-simulator" style="stroke: #383838; stroke-width: 1.0;"/><!--MD5=[c0dde72558749f63da089cd715e3c44b]
link keyRepoMem to simulator--><path codeLine="96" d="M1408.5232,617.9087 C1402.7085,619.3771 1396.8944,620.7511 1391.2577,621.9531 C1205.4376,661.5784 982.5091,687.6775 872.144,699.1945 " fill="none" id="keyRepoMem-simulator" style="stroke: #383838; stroke-width: 1.0;"/><!--MD5=[b4576450227686ebede4da08af6e5c37]
link ruleRepoSim to simulator--><path codeLine="97" d="M1742.1676,618.6158 C1736.469,619.854 1730.7862,620.9869 1725.2577,621.9531 C1409.3842,677.1572 1025.8953,697.334 872.007,703.5512 " fill="none" id="ruleRepoSim-simulator" style="stroke: #383838; stroke-width: 1.0;"/><!--MD5=[db6b4d7651022dbf0fcd7fd33b473d4a]
link ruleRepoMem to simulator--><path codeLine="98" d="M1927.7235,618.4099 C1921.8468,619.7497 1915.969,620.9583 1910.2577,621.9531 C1708.8651,657.032 1081.1595,691.6516 871.9143,702.4879 " fill="none" id="ruleRepoMem-simulator" style="stroke: #383838; stroke-width: 1.0;"/><!--MD5=[23cae4bad347d809f271c67e03b2e82a]
@startuml dauthOrkClass
skinparam monochrome true

title Ork Node

interface "Stub" as stub <<Interface>>
note top: Inbound Channel

class "BlockChainChannel" as blockCh
note top: Currently Simulator Client

class "ORKChannel" as orkCh

class "DiscoveryController" as discovery
class "CVKController" as cvk
class "CMKController" as cmk
class "RuleController" as rule

interface "IManagerFactory" as manager

interface "ICVKRepo" as cvkRepo
interface "ICMKRepo" as cmkRepo
interface "IKeyRepo" as keyRepo
interface "IRuleRepo" as ruleRepo

class "SimulatorCVKRepo" as cvkRepoSim
class "CacheCVKRepo" as cvkRepoCh
class "MemoryCVKRepo" as cvkRepoMem

class "SimulatorCMKRepo" as cmkRepoSim
class "CacheCMKRepo" as cmkRepoCh
class "MemoryCMKRepo" as cmkRepoMem

class "SimulatorKeyRepo" as keyRepoSim
class "CacheKeyRepo" as keyRepoCh
class "MemoryKeyRepo" as keyRepoMem

class "SimulatorRuleRepo" as ruleRepoSim
class "CacheRuleRepo" as ruleRepoCh
class "MemoryRuleRepo" as ruleRepoMem

class "MemoryFactory" as memory
class "SimulatorFactory" as simulator

blockCh - - discovery
blockCh - - cvk
blockCh - - cmk
blockCh - - rule

stub - - discovery
stub - - cvk
stub - - cmk
stub - - rule

discovery *- - manager
cvk *- - manager
cmk *- - manager
rule *- - manager

manager - - cvkRepo
manager - - cmkRepo
manager - - keyRepo
manager - - ruleRepo

cvkRepo <|- - cvkRepoSim
cvkRepo <|- - cvkRepoCh
cvkRepo <|- - cvkRepoMem
cmkRepo <|- - cmkRepoSim
cmkRepo <|- - cmkRepoCh
cmkRepo <|- - cmkRepoMem
keyRepo <|- - keyRepoSim
keyRepo <|- - keyRepoCh
keyRepo <|- - keyRepoMem
ruleRepo <|- - ruleRepoSim
ruleRepo <|- - ruleRepoCh
ruleRepo <|- - ruleRepoMem

cvkRepoCh *- - cvkRepo
cmkRepoCh *- - cmkRepo
keyRepoCh *- - keyRepo
ruleRepoCh *- - ruleRepo

memory - -|> manager
simulator - -|> manager


cvkRepoMem - - memory
cmkRepoMem - - memory
keyRepoMem - - memory
ruleRepoMem - - memory

cvkRepoSim - - simulator
cvkRepoMem - - simulator
cmkRepoSim - - simulator
cmkRepoMem - - simulator
keyRepoSim - - simulator
keyRepoMem - - simulator
ruleRepoSim - - simulator
ruleRepoMem - - simulator

@enduml

PlantUML version 1.2020.18(Thu Oct 01 05:40:44 AEST 2020)
(GPL source distribution)
Java Runtime: OpenJDK Runtime Environment
JVM: OpenJDK 64-Bit Server VM
Default Encoding: UTF-8
Language: en
Country: AU
--></g></svg>