<?xml version="1.0" encoding="UTF-8" standalone="no"?><svg xmlns="http://www.w3.org/2000/svg" xmlns:xlink="http://www.w3.org/1999/xlink" contentScriptType="application/ecmascript" contentStyleType="text/css" height="883px" preserveAspectRatio="none" style="width:967px;height:883px;" version="1.1" viewBox="0 0 967 883" width="967px" zoomAndPan="magnify"><defs><filter height="300%" id="f1hsibl5azip83" width="300%" x="-1" y="-1"><feGaussianBlur result="blurOut" stdDeviation="2.0"/><feColorMatrix in="blurOut" result="blurOut2" type="matrix" values="0 0 0 0 0 0 0 0 0 0 0 0 0 0 0 0 0 0 .4 0"/><feOffset dx="4.0" dy="4.0" in="blurOut2" result="blurOut3"/><feBlend in="SourceGraphic" in2="blurOut3" mode="normal"/></filter></defs><g><text fill="#000000" font-family="sans-serif" font-size="18" lengthAdjust="spacingAndGlyphs" textLength="141" x="406.75" y="18.6855">Dauth Flow Class</text><!--MD5=[90ee30c066ebb39b09010d6532bfd155]
class com--><rect codeLine="4" fill="#F8F8F8" filter="url(#f1hsibl5azip83)" height="48" id="com" style="stroke: #383838; stroke-width: 1.5;" width="129" x="433.5" y="29.6406"/><ellipse cx="448.5" cy="45.6406" fill="#C2C2C2" rx="11" ry="11" style="stroke: #383838; stroke-width: 1.0;"/><path d="M451.2656,41.5156 Q451.4219,41.2969 451.6094,41.1875 Q451.7969,41.0781 452.0156,41.0781 Q452.3906,41.0781 452.625,41.3438 Q452.8594,41.5938 452.8594,42.2031 L452.8594,43.6563 Q452.8594,44.2656 452.625,44.5313 Q452.3906,44.7969 452.0156,44.7969 Q451.6719,44.7969 451.4688,44.5938 Q451.2656,44.4063 451.1563,43.8906 Q451.1094,43.5313 450.9219,43.3438 Q450.5938,42.9688 449.9844,42.75 Q449.375,42.5313 448.75,42.5313 Q447.9844,42.5313 447.3438,42.8594 Q446.7188,43.1875 446.2188,43.9375 Q445.7344,44.6875 445.7344,45.7188 L445.7344,46.8125 Q445.7344,48.0469 446.625,48.875 Q447.5156,49.6875 449.1094,49.6875 Q450.0469,49.6875 450.7031,49.4375 Q451.0938,49.2813 451.5156,48.8438 Q451.7813,48.5781 451.9219,48.5 Q452.0781,48.4219 452.2813,48.4219 Q452.6094,48.4219 452.8594,48.6875 Q453.125,48.9375 453.125,49.2813 Q453.125,49.625 452.7813,50.0313 Q452.2813,50.6094 451.4844,50.9375 Q450.4063,51.3906 449.1094,51.3906 Q447.5938,51.3906 446.3906,50.7656 Q445.4063,50.2656 444.7188,49.2031 Q444.0313,48.125 444.0313,46.8438 L444.0313,45.6875 Q444.0313,44.3594 444.6406,43.2188 Q445.2656,42.0625 446.3594,41.4531 Q447.4531,40.8281 448.6875,40.8281 Q449.4219,40.8281 450.0625,41 Q450.7188,41.1563 451.2656,41.5156 Z "/><text fill="#000000" font-family="sans-serif" font-size="12" lengthAdjust="spacingAndGlyphs" textLength="97" x="462.5" y="50.5508">ORKComunicator</text><line style="stroke: #383838; stroke-width: 1.5;" x1="434.5" x2="561.5" y1="61.6406" y2="61.6406"/><line style="stroke: #383838; stroke-width: 1.5;" x1="434.5" x2="561.5" y1="69.6406" y2="69.6406"/><!--MD5=[e6ef34c44c8e76aa7fe1e85c067f588c]
class cvk--><rect codeLine="79" fill="#F8F8F8" filter="url(#f1hsibl5azip83)" height="131.0156" id="cvk" style="stroke: #383838; stroke-width: 1.5;" width="281" x="41.5" y="144.6406"/><ellipse cx="149.75" cy="160.6406" fill="#C2C2C2" rx="11" ry="11" style="stroke: #383838; stroke-width: 1.0;"/><path d="M152.5156,156.5156 Q152.6719,156.2969 152.8594,156.1875 Q153.0469,156.0781 153.2656,156.0781 Q153.6406,156.0781 153.875,156.3438 Q154.1094,156.5938 154.1094,157.2031 L154.1094,158.6563 Q154.1094,159.2656 153.875,159.5313 Q153.6406,159.7969 153.2656,159.7969 Q152.9219,159.7969 152.7188,159.5938 Q152.5156,159.4063 152.4063,158.8906 Q152.3594,158.5313 152.1719,158.3438 Q151.8438,157.9688 151.2344,157.75 Q150.625,157.5313 150,157.5313 Q149.2344,157.5313 148.5938,157.8594 Q147.9688,158.1875 147.4688,158.9375 Q146.9844,159.6875 146.9844,160.7188 L146.9844,161.8125 Q146.9844,163.0469 147.875,163.875 Q148.7656,164.6875 150.3594,164.6875 Q151.2969,164.6875 151.9531,164.4375 Q152.3438,164.2813 152.7656,163.8438 Q153.0313,163.5781 153.1719,163.5 Q153.3281,163.4219 153.5313,163.4219 Q153.8594,163.4219 154.1094,163.6875 Q154.375,163.9375 154.375,164.2813 Q154.375,164.625 154.0313,165.0313 Q153.5313,165.6094 152.7344,165.9375 Q151.6563,166.3906 150.3594,166.3906 Q148.8438,166.3906 147.6406,165.7656 Q146.6563,165.2656 145.9688,164.2031 Q145.2813,163.125 145.2813,161.8438 L145.2813,160.6875 Q145.2813,159.3594 145.8906,158.2188 Q146.5156,157.0625 147.6094,156.4531 Q148.7031,155.8281 149.9375,155.8281 Q150.6719,155.8281 151.3125,156 Q151.9688,156.1563 152.5156,156.5156 Z "/><text fill="#000000" font-family="sans-serif" font-size="12" lengthAdjust="spacingAndGlyphs" textLength="56" x="170.25" y="165.5508">CVKClient</text><line style="stroke: #383838; stroke-width: 1.5;" x1="42.5" x2="321.5" y1="176.6406" y2="176.6406"/><rect fill="none" height="6" style="stroke: #595959; stroke-width: 1.0;" width="6" x="49.5" y="184.6406"/><text fill="#000000" font-family="sans-serif" font-size="11" lengthAdjust="spacingAndGlyphs" textLength="67" x="61.5" y="192.0596">communicator</text><line style="stroke: #383838; stroke-width: 1.5;" x1="42.5" x2="321.5" y1="198.4766" y2="198.4766"/><text fill="#000000" font-family="sans-serif" font-size="11" lengthAdjust="spacingAndGlyphs" textLength="269" x="47.5" y="213.8955">register(cvkPub, cvki, cvkAuthi, signedKeyId, signature)</text><text fill="#000000" font-family="sans-serif" font-size="11" lengthAdjust="spacingAndGlyphs" textLength="58" x="47.5" y="227.7314">getCvk(key)</text><text fill="#000000" font-family="sans-serif" font-size="11" lengthAdjust="spacingAndGlyphs" textLength="79" x="47.5" y="241.5674">challenge(keyId)</text><text fill="#000000" font-family="sans-serif" font-size="11" lengthAdjust="spacingAndGlyphs" textLength="155" x="47.5" y="255.4033">decrypt(data, keyId, token, sign)</text><text fill="#000000" font-family="sans-serif" font-size="11" lengthAdjust="spacingAndGlyphs" textLength="44" x="47.5" y="269.2393">confirm()</text><!--MD5=[1a01d0075b43e2bc6d12266a6f76d24b]
class cmk--><rect codeLine="68" fill="#F8F8F8" filter="url(#f1hsibl5azip83)" height="144.8516" id="cmk" style="stroke: #383838; stroke-width: 1.5;" width="245" x="375.5" y="137.6406"/><ellipse cx="464.75" cy="153.6406" fill="#C2C2C2" rx="11" ry="11" style="stroke: #383838; stroke-width: 1.0;"/><path d="M467.5156,149.5156 Q467.6719,149.2969 467.8594,149.1875 Q468.0469,149.0781 468.2656,149.0781 Q468.6406,149.0781 468.875,149.3438 Q469.1094,149.5938 469.1094,150.2031 L469.1094,151.6563 Q469.1094,152.2656 468.875,152.5313 Q468.6406,152.7969 468.2656,152.7969 Q467.9219,152.7969 467.7188,152.5938 Q467.5156,152.4063 467.4063,151.8906 Q467.3594,151.5313 467.1719,151.3438 Q466.8438,150.9688 466.2344,150.75 Q465.625,150.5313 465,150.5313 Q464.2344,150.5313 463.5938,150.8594 Q462.9688,151.1875 462.4688,151.9375 Q461.9844,152.6875 461.9844,153.7188 L461.9844,154.8125 Q461.9844,156.0469 462.875,156.875 Q463.7656,157.6875 465.3594,157.6875 Q466.2969,157.6875 466.9531,157.4375 Q467.3438,157.2813 467.7656,156.8438 Q468.0313,156.5781 468.1719,156.5 Q468.3281,156.4219 468.5313,156.4219 Q468.8594,156.4219 469.1094,156.6875 Q469.375,156.9375 469.375,157.2813 Q469.375,157.625 469.0313,158.0313 Q468.5313,158.6094 467.7344,158.9375 Q466.6563,159.3906 465.3594,159.3906 Q463.8438,159.3906 462.6406,158.7656 Q461.6563,158.2656 460.9688,157.2031 Q460.2813,156.125 460.2813,154.8438 L460.2813,153.6875 Q460.2813,152.3594 460.8906,151.2188 Q461.5156,150.0625 462.6094,149.4531 Q463.7031,148.8281 464.9375,148.8281 Q465.6719,148.8281 466.3125,149 Q466.9688,149.1563 467.5156,149.5156 Z "/><text fill="#000000" font-family="sans-serif" font-size="12" lengthAdjust="spacingAndGlyphs" textLength="58" x="485.25" y="158.5508">CMKClient</text><line style="stroke: #383838; stroke-width: 1.5;" x1="376.5" x2="619.5" y1="169.6406" y2="169.6406"/><rect fill="none" height="6" style="stroke: #595959; stroke-width: 1.0;" width="6" x="383.5" y="177.6406"/><text fill="#000000" font-family="sans-serif" font-size="11" lengthAdjust="spacingAndGlyphs" textLength="67" x="395.5" y="185.0596">communicator</text><line style="stroke: #383838; stroke-width: 1.5;" x1="376.5" x2="619.5" y1="191.4766" y2="191.4766"/><text fill="#000000" font-family="sans-serif" font-size="11" lengthAdjust="spacingAndGlyphs" textLength="84" x="381.5" y="206.8955">applyPrism(pass)</text><text fill="#000000" font-family="sans-serif" font-size="11" lengthAdjust="spacingAndGlyphs" textLength="62" x="381.5" y="220.7314">signIn(token)</text><text fill="#000000" font-family="sans-serif" font-size="11" lengthAdjust="spacingAndGlyphs" textLength="233" x="381.5" y="234.5674">signUp(prismi, cmki, prismAuthi, cmkAuthi, email)</text><text fill="#000000" font-family="sans-serif" font-size="11" lengthAdjust="spacingAndGlyphs" textLength="232" x="381.5" y="248.4033">changePass(prismi, prismAuthi, token, withCmk)</text><text fill="#000000" font-family="sans-serif" font-size="11" lengthAdjust="spacingAndGlyphs" textLength="46" x="381.5" y="262.2393">recover()</text><text fill="#000000" font-family="sans-serif" font-size="11" lengthAdjust="spacingAndGlyphs" textLength="44" x="381.5" y="276.0752">confirm()</text><!--MD5=[803fa0f60d833365c81945099e5eaf5a]
class rule--><rect codeLine="88" fill="#F8F8F8" filter="url(#f1hsibl5azip83)" height="103.3438" id="rule" style="stroke: #383838; stroke-width: 1.5;" width="99" x="668.5" y="158.6406"/><ellipse cx="687.55" cy="174.6406" fill="#C2C2C2" rx="11" ry="11" style="stroke: #383838; stroke-width: 1.0;"/><path d="M690.3156,170.5156 Q690.4719,170.2969 690.6594,170.1875 Q690.8469,170.0781 691.0656,170.0781 Q691.4406,170.0781 691.675,170.3438 Q691.9094,170.5938 691.9094,171.2031 L691.9094,172.6563 Q691.9094,173.2656 691.675,173.5313 Q691.4406,173.7969 691.0656,173.7969 Q690.7219,173.7969 690.5188,173.5938 Q690.3156,173.4063 690.2063,172.8906 Q690.1594,172.5313 689.9719,172.3438 Q689.6438,171.9688 689.0344,171.75 Q688.425,171.5313 687.8,171.5313 Q687.0344,171.5313 686.3938,171.8594 Q685.7688,172.1875 685.2688,172.9375 Q684.7844,173.6875 684.7844,174.7188 L684.7844,175.8125 Q684.7844,177.0469 685.675,177.875 Q686.5656,178.6875 688.1594,178.6875 Q689.0969,178.6875 689.7531,178.4375 Q690.1438,178.2813 690.5656,177.8438 Q690.8313,177.5781 690.9719,177.5 Q691.1281,177.4219 691.3313,177.4219 Q691.6594,177.4219 691.9094,177.6875 Q692.175,177.9375 692.175,178.2813 Q692.175,178.625 691.8313,179.0313 Q691.3313,179.6094 690.5344,179.9375 Q689.4563,180.3906 688.1594,180.3906 Q686.6438,180.3906 685.4406,179.7656 Q684.4563,179.2656 683.7688,178.2031 Q683.0813,177.125 683.0813,175.8438 L683.0813,174.6875 Q683.0813,173.3594 683.6906,172.2188 Q684.3156,171.0625 685.4094,170.4531 Q686.5031,169.8281 687.7375,169.8281 Q688.4719,169.8281 689.1125,170 Q689.7688,170.1563 690.3156,170.5156 Z "/><text fill="#000000" font-family="sans-serif" font-size="12" lengthAdjust="spacingAndGlyphs" textLength="58" x="702.45" y="179.5508">RuleClient</text><line style="stroke: #383838; stroke-width: 1.5;" x1="669.5" x2="766.5" y1="190.6406" y2="190.6406"/><rect fill="none" height="6" style="stroke: #595959; stroke-width: 1.0;" width="6" x="676.5" y="198.6406"/><text fill="#000000" font-family="sans-serif" font-size="11" lengthAdjust="spacingAndGlyphs" textLength="67" x="688.5" y="206.0596">communicator</text><line style="stroke: #383838; stroke-width: 1.5;" x1="669.5" x2="766.5" y1="212.4766" y2="212.4766"/><text fill="#000000" font-family="sans-serif" font-size="11" lengthAdjust="spacingAndGlyphs" textLength="70" x="674.5" y="227.8955">getById(ruleId)</text><text fill="#000000" font-family="sans-serif" font-size="11" lengthAdjust="spacingAndGlyphs" textLength="39" x="674.5" y="241.7314">getSet()</text><text fill="#000000" font-family="sans-serif" font-size="11" lengthAdjust="spacingAndGlyphs" textLength="87" x="674.5" y="255.5674">setOrUpdate(rule)</text><!--MD5=[95aac00dc9cbd3c55a94338f869a053a]
class cmkFlow--><rect codeLine="96" fill="#F8F8F8" filter="url(#f1hsibl5azip83)" height="131.0156" id="cmkFlow" style="stroke: #383838; stroke-width: 1.5;" width="283" x="356.5" y="342.6406"/><ellipse cx="467.75" cy="358.6406" fill="#C2C2C2" rx="11" ry="11" style="stroke: #383838; stroke-width: 1.0;"/><path d="M470.5156,354.5156 Q470.6719,354.2969 470.8594,354.1875 Q471.0469,354.0781 471.2656,354.0781 Q471.6406,354.0781 471.875,354.3438 Q472.1094,354.5938 472.1094,355.2031 L472.1094,356.6563 Q472.1094,357.2656 471.875,357.5313 Q471.6406,357.7969 471.2656,357.7969 Q470.9219,357.7969 470.7188,357.5938 Q470.5156,357.4063 470.4063,356.8906 Q470.3594,356.5313 470.1719,356.3438 Q469.8438,355.9688 469.2344,355.75 Q468.625,355.5313 468,355.5313 Q467.2344,355.5313 466.5938,355.8594 Q465.9688,356.1875 465.4688,356.9375 Q464.9844,357.6875 464.9844,358.7188 L464.9844,359.8125 Q464.9844,361.0469 465.875,361.875 Q466.7656,362.6875 468.3594,362.6875 Q469.2969,362.6875 469.9531,362.4375 Q470.3438,362.2813 470.7656,361.8438 Q471.0313,361.5781 471.1719,361.5 Q471.3281,361.4219 471.5313,361.4219 Q471.8594,361.4219 472.1094,361.6875 Q472.375,361.9375 472.375,362.2813 Q472.375,362.625 472.0313,363.0313 Q471.5313,363.6094 470.7344,363.9375 Q469.6563,364.3906 468.3594,364.3906 Q466.8438,364.3906 465.6406,363.7656 Q464.6563,363.2656 463.9688,362.2031 Q463.2813,361.125 463.2813,359.8438 L463.2813,358.6875 Q463.2813,357.3594 463.8906,356.2188 Q464.5156,355.0625 465.6094,354.4531 Q466.7031,353.8281 467.9375,353.8281 Q468.6719,353.8281 469.3125,354 Q469.9688,354.1563 470.5156,354.5156 Z "/><text fill="#000000" font-family="sans-serif" font-size="12" lengthAdjust="spacingAndGlyphs" textLength="52" x="488.25" y="363.5508">CMKFlow</text><line style="stroke: #383838; stroke-width: 1.5;" x1="357.5" x2="638.5" y1="374.6406" y2="374.6406"/><rect fill="none" height="6" style="stroke: #595959; stroke-width: 1.0;" width="6" x="364.5" y="382.6406"/><text fill="#000000" font-family="sans-serif" font-size="11" lengthAdjust="spacingAndGlyphs" textLength="62" x="376.5" y="390.0596">cmk[]: clients</text><line style="stroke: #383838; stroke-width: 1.5;" x1="357.5" x2="638.5" y1="396.4766" y2="396.4766"/><text fill="#000000" font-family="sans-serif" font-size="11" lengthAdjust="spacingAndGlyphs" textLength="245" x="362.5" y="411.8955">cmkAuth: signUp(password, email, threshold, cmk)</text><text fill="#000000" font-family="sans-serif" font-size="11" lengthAdjust="spacingAndGlyphs" textLength="128" x="362.5" y="425.7314">cmkAuth: logIn(password)</text><text fill="#000000" font-family="sans-serif" font-size="11" lengthAdjust="spacingAndGlyphs" textLength="151" x="362.5" y="439.5674">prismAuth: getPrismAuth(pass)</text><text fill="#000000" font-family="sans-serif" font-size="11" lengthAdjust="spacingAndGlyphs" textLength="271" x="362.5" y="453.4033">cmkAuth: Reconstruct(textShares, newPass, threshold)</text><text fill="#000000" font-family="sans-serif" font-size="11" lengthAdjust="spacingAndGlyphs" textLength="195" x="362.5" y="467.2393">changePass(pass, newPass, threshold)</text><!--MD5=[ef83677d422b6061eb7fde8333b4ae3b]
class cvkFlow--><rect codeLine="105" fill="#F8F8F8" filter="url(#f1hsibl5azip83)" height="103.3438" id="cvkFlow" style="stroke: #383838; stroke-width: 1.5;" width="314" x="7" y="356.6406"/><ellipse cx="134.75" cy="372.6406" fill="#C2C2C2" rx="11" ry="11" style="stroke: #383838; stroke-width: 1.0;"/><path d="M137.5156,368.5156 Q137.6719,368.2969 137.8594,368.1875 Q138.0469,368.0781 138.2656,368.0781 Q138.6406,368.0781 138.875,368.3438 Q139.1094,368.5938 139.1094,369.2031 L139.1094,370.6563 Q139.1094,371.2656 138.875,371.5313 Q138.6406,371.7969 138.2656,371.7969 Q137.9219,371.7969 137.7188,371.5938 Q137.5156,371.4063 137.4063,370.8906 Q137.3594,370.5313 137.1719,370.3438 Q136.8438,369.9688 136.2344,369.75 Q135.625,369.5313 135,369.5313 Q134.2344,369.5313 133.5938,369.8594 Q132.9688,370.1875 132.4688,370.9375 Q131.9844,371.6875 131.9844,372.7188 L131.9844,373.8125 Q131.9844,375.0469 132.875,375.875 Q133.7656,376.6875 135.3594,376.6875 Q136.2969,376.6875 136.9531,376.4375 Q137.3438,376.2813 137.7656,375.8438 Q138.0313,375.5781 138.1719,375.5 Q138.3281,375.4219 138.5313,375.4219 Q138.8594,375.4219 139.1094,375.6875 Q139.375,375.9375 139.375,376.2813 Q139.375,376.625 139.0313,377.0313 Q138.5313,377.6094 137.7344,377.9375 Q136.6563,378.3906 135.3594,378.3906 Q133.8438,378.3906 132.6406,377.7656 Q131.6563,377.2656 130.9688,376.2031 Q130.2813,375.125 130.2813,373.8438 L130.2813,372.6875 Q130.2813,371.3594 130.8906,370.2188 Q131.5156,369.0625 132.6094,368.4531 Q133.7031,367.8281 134.9375,367.8281 Q135.6719,367.8281 136.3125,368 Q136.9688,368.1563 137.5156,368.5156 Z "/><text fill="#000000" font-family="sans-serif" font-size="12" lengthAdjust="spacingAndGlyphs" textLength="50" x="155.25" y="377.5508">CVKFlow</text><line style="stroke: #383838; stroke-width: 1.5;" x1="8" x2="320" y1="388.6406" y2="388.6406"/><rect fill="none" height="6" style="stroke: #595959; stroke-width: 1.0;" width="6" x="15" y="396.6406"/><text fill="#000000" font-family="sans-serif" font-size="11" lengthAdjust="spacingAndGlyphs" textLength="86" x="27" y="404.0596">cvkClient[]: clients</text><line style="stroke: #383838; stroke-width: 1.5;" x1="8" x2="320" y1="410.4766" y2="410.4766"/><text fill="#000000" font-family="sans-serif" font-size="11" lengthAdjust="spacingAndGlyphs" textLength="302" x="13" y="425.8955">cvk: signUp(cmkAuth, threshold, signedKeyId, signatures, cvk)</text><text fill="#000000" font-family="sans-serif" font-size="11" lengthAdjust="spacingAndGlyphs" textLength="107" x="13" y="439.7314">cvk: getKey(cmkAuth)</text><text fill="#000000" font-family="sans-serif" font-size="11" lengthAdjust="spacingAndGlyphs" textLength="147" x="13" y="453.5674">byte[]: decrypt(cipher, private)</text><!--MD5=[7fb17fca6a6c33e8615743cc57a9ca35]
class ruleSet--><rect codeLine="112" fill="#F8F8F8" filter="url(#f1hsibl5azip83)" height="103.3438" id="ruleSet" style="stroke: #383838; stroke-width: 1.5;" width="113" x="674.5" y="356.6406"/><ellipse cx="691.75" cy="372.6406" fill="#C2C2C2" rx="11" ry="11" style="stroke: #383838; stroke-width: 1.0;"/><path d="M694.5156,368.5156 Q694.6719,368.2969 694.8594,368.1875 Q695.0469,368.0781 695.2656,368.0781 Q695.6406,368.0781 695.875,368.3438 Q696.1094,368.5938 696.1094,369.2031 L696.1094,370.6563 Q696.1094,371.2656 695.875,371.5313 Q695.6406,371.7969 695.2656,371.7969 Q694.9219,371.7969 694.7188,371.5938 Q694.5156,371.4063 694.4063,370.8906 Q694.3594,370.5313 694.1719,370.3438 Q693.8438,369.9688 693.2344,369.75 Q692.625,369.5313 692,369.5313 Q691.2344,369.5313 690.5938,369.8594 Q689.9688,370.1875 689.4688,370.9375 Q688.9844,371.6875 688.9844,372.7188 L688.9844,373.8125 Q688.9844,375.0469 689.875,375.875 Q690.7656,376.6875 692.3594,376.6875 Q693.2969,376.6875 693.9531,376.4375 Q694.3438,376.2813 694.7656,375.8438 Q695.0313,375.5781 695.1719,375.5 Q695.3281,375.4219 695.5313,375.4219 Q695.8594,375.4219 696.1094,375.6875 Q696.375,375.9375 696.375,376.2813 Q696.375,376.625 696.0313,377.0313 Q695.5313,377.6094 694.7344,377.9375 Q693.6563,378.3906 692.3594,378.3906 Q690.8438,378.3906 689.6406,377.7656 Q688.6563,377.2656 687.9688,376.2031 Q687.2813,375.125 687.2813,373.8438 L687.2813,372.6875 Q687.2813,371.3594 687.8906,370.2188 Q688.5156,369.0625 689.6094,368.4531 Q690.7031,367.8281 691.9375,367.8281 Q692.6719,367.8281 693.3125,368 Q693.9688,368.1563 694.5156,368.5156 Z "/><text fill="#000000" font-family="sans-serif" font-size="12" lengthAdjust="spacingAndGlyphs" textLength="76" x="706.25" y="377.5508">RuleClientSet</text><line style="stroke: #383838; stroke-width: 1.5;" x1="675.5" x2="786.5" y1="388.6406" y2="388.6406"/><rect fill="none" height="6" style="stroke: #595959; stroke-width: 1.0;" width="6" x="682.5" y="396.6406"/><text fill="#000000" font-family="sans-serif" font-size="11" lengthAdjust="spacingAndGlyphs" textLength="87" x="694.5" y="404.0596">ruleClient[]: clients</text><line style="stroke: #383838; stroke-width: 1.5;" x1="675.5" x2="786.5" y1="410.4766" y2="410.4766"/><text fill="#000000" font-family="sans-serif" font-size="11" lengthAdjust="spacingAndGlyphs" textLength="70" x="680.5" y="425.8955">getById(ruleId)</text><text fill="#000000" font-family="sans-serif" font-size="11" lengthAdjust="spacingAndGlyphs" textLength="39" x="680.5" y="439.7314">getSet()</text><text fill="#000000" font-family="sans-serif" font-size="11" lengthAdjust="spacingAndGlyphs" textLength="87" x="680.5" y="453.5674">setOrUpdate(rule)</text><!--MD5=[468d598148db5a98f3118422765c4d93]
class dauth--><rect codeLine="120" fill="#F8F8F8" filter="url(#f1hsibl5azip83)" height="117.1797" id="dauth" style="stroke: #383838; stroke-width: 1.5;" width="235" x="458.5" y="533.6406"/><ellipse cx="542.25" cy="549.6406" fill="#C2C2C2" rx="11" ry="11" style="stroke: #383838; stroke-width: 1.0;"/><path d="M545.0156,545.5156 Q545.1719,545.2969 545.3594,545.1875 Q545.5469,545.0781 545.7656,545.0781 Q546.1406,545.0781 546.375,545.3438 Q546.6094,545.5938 546.6094,546.2031 L546.6094,547.6563 Q546.6094,548.2656 546.375,548.5313 Q546.1406,548.7969 545.7656,548.7969 Q545.4219,548.7969 545.2188,548.5938 Q545.0156,548.4063 544.9063,547.8906 Q544.8594,547.5313 544.6719,547.3438 Q544.3438,546.9688 543.7344,546.75 Q543.125,546.5313 542.5,546.5313 Q541.7344,546.5313 541.0938,546.8594 Q540.4688,547.1875 539.9688,547.9375 Q539.4844,548.6875 539.4844,549.7188 L539.4844,550.8125 Q539.4844,552.0469 540.375,552.875 Q541.2656,553.6875 542.8594,553.6875 Q543.7969,553.6875 544.4531,553.4375 Q544.8438,553.2813 545.2656,552.8438 Q545.5313,552.5781 545.6719,552.5 Q545.8281,552.4219 546.0313,552.4219 Q546.3594,552.4219 546.6094,552.6875 Q546.875,552.9375 546.875,553.2813 Q546.875,553.625 546.5313,554.0313 Q546.0313,554.6094 545.2344,554.9375 Q544.1563,555.3906 542.8594,555.3906 Q541.3438,555.3906 540.1406,554.7656 Q539.1563,554.2656 538.4688,553.2031 Q537.7813,552.125 537.7813,550.8438 L537.7813,549.6875 Q537.7813,548.3594 538.3906,547.2188 Q539.0156,546.0625 540.1094,545.4531 Q541.2031,544.8281 542.4375,544.8281 Q543.1719,544.8281 543.8125,545 Q544.4688,545.1563 545.0156,545.5156 Z "/><text fill="#000000" font-family="sans-serif" font-size="12" lengthAdjust="spacingAndGlyphs" textLength="59" x="562.75" y="554.5508">DAuthFlow</text><line style="stroke: #383838; stroke-width: 1.5;" x1="459.5" x2="692.5" y1="565.6406" y2="565.6406"/><line style="stroke: #383838; stroke-width: 1.5;" x1="459.5" x2="692.5" y1="573.6406" y2="573.6406"/><text fill="#000000" font-family="sans-serif" font-size="11" lengthAdjust="spacingAndGlyphs" textLength="172" x="464.5" y="589.0596">signUp(password, email, threshold)</text><text fill="#000000" font-family="sans-serif" font-size="11" lengthAdjust="spacingAndGlyphs" textLength="80" x="464.5" y="602.8955">logIn(password)</text><text fill="#000000" font-family="sans-serif" font-size="11" lengthAdjust="spacingAndGlyphs" textLength="49" x="464.5" y="616.7314">Recover()</text><text fill="#000000" font-family="sans-serif" font-size="11" lengthAdjust="spacingAndGlyphs" textLength="223" x="464.5" y="630.5674">Reconstruct(textShares, newPass, threshold)</text><text fill="#000000" font-family="sans-serif" font-size="11" lengthAdjust="spacingAndGlyphs" textLength="195" x="464.5" y="644.4033">changePass(pass, newPass, threshold)</text><!--MD5=[8c4e9b5fad7ae17e0347e23b5872551f]
class dcmk--><rect codeLine="53" fill="#F8F8F8" filter="url(#f1hsibl5azip83)" height="61.8359" id="dcmk" style="stroke: #383838; stroke-width: 1.5;" width="135" x="18.5" y="561.1406"/><ellipse cx="33.5" cy="577.1406" fill="#C2C2C2" rx="11" ry="11" style="stroke: #383838; stroke-width: 1.0;"/><path d="M36.2656,573.0156 Q36.4219,572.7969 36.6094,572.6875 Q36.7969,572.5781 37.0156,572.5781 Q37.3906,572.5781 37.625,572.8438 Q37.8594,573.0938 37.8594,573.7031 L37.8594,575.1563 Q37.8594,575.7656 37.625,576.0313 Q37.3906,576.2969 37.0156,576.2969 Q36.6719,576.2969 36.4688,576.0938 Q36.2656,575.9063 36.1563,575.3906 Q36.1094,575.0313 35.9219,574.8438 Q35.5938,574.4688 34.9844,574.25 Q34.375,574.0313 33.75,574.0313 Q32.9844,574.0313 32.3438,574.3594 Q31.7188,574.6875 31.2188,575.4375 Q30.7344,576.1875 30.7344,577.2188 L30.7344,578.3125 Q30.7344,579.5469 31.625,580.375 Q32.5156,581.1875 34.1094,581.1875 Q35.0469,581.1875 35.7031,580.9375 Q36.0938,580.7813 36.5156,580.3438 Q36.7813,580.0781 36.9219,580 Q37.0781,579.9219 37.2813,579.9219 Q37.6094,579.9219 37.8594,580.1875 Q38.125,580.4375 38.125,580.7813 Q38.125,581.125 37.7813,581.5313 Q37.2813,582.1094 36.4844,582.4375 Q35.4063,582.8906 34.1094,582.8906 Q32.5938,582.8906 31.3906,582.2656 Q30.4063,581.7656 29.7188,580.7031 Q29.0313,579.625 29.0313,578.3438 L29.0313,577.1875 Q29.0313,575.8594 29.6406,574.7188 Q30.2656,573.5625 31.3594,572.9531 Q32.4531,572.3281 33.6875,572.3281 Q34.4219,572.3281 35.0625,572.5 Q35.7188,572.6563 36.2656,573.0156 Z "/><text fill="#000000" font-family="sans-serif" font-size="12" lengthAdjust="spacingAndGlyphs" textLength="103" x="47.5" y="582.0508">DAuthCmkJwtFlow</text><line style="stroke: #383838; stroke-width: 1.5;" x1="19.5" x2="152.5" y1="593.1406" y2="593.1406"/><line style="stroke: #383838; stroke-width: 1.5;" x1="19.5" x2="152.5" y1="601.1406" y2="601.1406"/><text fill="#000000" font-family="sans-serif" font-size="11" lengthAdjust="spacingAndGlyphs" textLength="30" x="24.5" y="616.5596">logIn()</text><!--MD5=[a3d38b14081b80b3841fdb717ce8eaad]
class djwt--><rect codeLine="45" fill="#F8F8F8" filter="url(#f1hsibl5azip83)" height="117.1797" id="djwt" style="stroke: #383838; stroke-width: 1.5;" width="235" x="188.5" y="533.6406"/><ellipse cx="263.25" cy="549.6406" fill="#C2C2C2" rx="11" ry="11" style="stroke: #383838; stroke-width: 1.0;"/><path d="M266.0156,545.5156 Q266.1719,545.2969 266.3594,545.1875 Q266.5469,545.0781 266.7656,545.0781 Q267.1406,545.0781 267.375,545.3438 Q267.6094,545.5938 267.6094,546.2031 L267.6094,547.6563 Q267.6094,548.2656 267.375,548.5313 Q267.1406,548.7969 266.7656,548.7969 Q266.4219,548.7969 266.2188,548.5938 Q266.0156,548.4063 265.9063,547.8906 Q265.8594,547.5313 265.6719,547.3438 Q265.3438,546.9688 264.7344,546.75 Q264.125,546.5313 263.5,546.5313 Q262.7344,546.5313 262.0938,546.8594 Q261.4688,547.1875 260.9688,547.9375 Q260.4844,548.6875 260.4844,549.7188 L260.4844,550.8125 Q260.4844,552.0469 261.375,552.875 Q262.2656,553.6875 263.8594,553.6875 Q264.7969,553.6875 265.4531,553.4375 Q265.8438,553.2813 266.2656,552.8438 Q266.5313,552.5781 266.6719,552.5 Q266.8281,552.4219 267.0313,552.4219 Q267.3594,552.4219 267.6094,552.6875 Q267.875,552.9375 267.875,553.2813 Q267.875,553.625 267.5313,554.0313 Q267.0313,554.6094 266.2344,554.9375 Q265.1563,555.3906 263.8594,555.3906 Q262.3438,555.3906 261.1406,554.7656 Q260.1563,554.2656 259.4688,553.2031 Q258.7813,552.125 258.7813,550.8438 L258.7813,549.6875 Q258.7813,548.3594 259.3906,547.2188 Q260.0156,546.0625 261.1094,545.4531 Q262.2031,544.8281 263.4375,544.8281 Q264.1719,544.8281 264.8125,545 Q265.4688,545.1563 266.0156,545.5156 Z "/><text fill="#000000" font-family="sans-serif" font-size="12" lengthAdjust="spacingAndGlyphs" textLength="77" x="283.75" y="554.5508">DAuthJwtFlow</text><line style="stroke: #383838; stroke-width: 1.5;" x1="189.5" x2="422.5" y1="565.6406" y2="565.6406"/><line style="stroke: #383838; stroke-width: 1.5;" x1="189.5" x2="422.5" y1="573.6406" y2="573.6406"/><text fill="#000000" font-family="sans-serif" font-size="11" lengthAdjust="spacingAndGlyphs" textLength="172" x="194.5" y="589.0596">signUp(password, email, threshold)</text><text fill="#000000" font-family="sans-serif" font-size="11" lengthAdjust="spacingAndGlyphs" textLength="80" x="194.5" y="602.8955">logIn(password)</text><text fill="#000000" font-family="sans-serif" font-size="11" lengthAdjust="spacingAndGlyphs" textLength="49" x="194.5" y="616.7314">Recover()</text><text fill="#000000" font-family="sans-serif" font-size="11" lengthAdjust="spacingAndGlyphs" textLength="223" x="194.5" y="630.5674">Reconstruct(textShares, newPass, threshold)</text><text fill="#000000" font-family="sans-serif" font-size="11" lengthAdjust="spacingAndGlyphs" textLength="195" x="194.5" y="644.4033">changePass(pass, newPass, threshold)</text><!--MD5=[e69dd8a04fc9f73c9275f4e225d3a088]
class tide--><rect codeLine="57" fill="#F8F8F8" filter="url(#f1hsibl5azip83)" height="158.6875" id="tide" style="stroke: #383838; stroke-width: 1.5;" width="320" x="416" y="710.6406"/><ellipse cx="521.25" cy="726.6406" fill="#C2C2C2" rx="11" ry="11" style="stroke: #383838; stroke-width: 1.0;"/><path d="M524.0156,722.5156 Q524.1719,722.2969 524.3594,722.1875 Q524.5469,722.0781 524.7656,722.0781 Q525.1406,722.0781 525.375,722.3438 Q525.6094,722.5938 525.6094,723.2031 L525.6094,724.6563 Q525.6094,725.2656 525.375,725.5313 Q525.1406,725.7969 524.7656,725.7969 Q524.4219,725.7969 524.2188,725.5938 Q524.0156,725.4063 523.9063,724.8906 Q523.8594,724.5313 523.6719,724.3438 Q523.3438,723.9688 522.7344,723.75 Q522.125,723.5313 521.5,723.5313 Q520.7344,723.5313 520.0938,723.8594 Q519.4688,724.1875 518.9688,724.9375 Q518.4844,725.6875 518.4844,726.7188 L518.4844,727.8125 Q518.4844,729.0469 519.375,729.875 Q520.2656,730.6875 521.8594,730.6875 Q522.7969,730.6875 523.4531,730.4375 Q523.8438,730.2813 524.2656,729.8438 Q524.5313,729.5781 524.6719,729.5 Q524.8281,729.4219 525.0313,729.4219 Q525.3594,729.4219 525.6094,729.6875 Q525.875,729.9375 525.875,730.2813 Q525.875,730.625 525.5313,731.0313 Q525.0313,731.6094 524.2344,731.9375 Q523.1563,732.3906 521.8594,732.3906 Q520.3438,732.3906 519.1406,731.7656 Q518.1563,731.2656 517.4688,730.2031 Q516.7813,729.125 516.7813,727.8438 L516.7813,726.6875 Q516.7813,725.3594 517.3906,724.2188 Q518.0156,723.0625 519.1094,722.4531 Q520.2031,721.8281 521.4375,721.8281 Q522.1719,721.8281 522.8125,722 Q523.4688,722.1563 524.0156,722.5156 Z "/><text fill="#000000" font-family="sans-serif" font-size="12" lengthAdjust="spacingAndGlyphs" textLength="101" x="541.75" y="731.5508">TideAuthentication</text><line style="stroke: #383838; stroke-width: 1.5;" x1="417" x2="735" y1="742.6406" y2="742.6406"/><line style="stroke: #383838; stroke-width: 1.5;" x1="417" x2="735" y1="750.6406" y2="750.6406"/><text fill="#000000" font-family="sans-serif" font-size="11" lengthAdjust="spacingAndGlyphs" textLength="179" x="422" y="766.0596">register(username, password, email)</text><text fill="#000000" font-family="sans-serif" font-size="11" lengthAdjust="spacingAndGlyphs" textLength="308" x="422" y="779.8955">registerJwt(username, password, email, serverTime, threshold)</text><text fill="#000000" font-family="sans-serif" font-size="11" lengthAdjust="spacingAndGlyphs" textLength="212" x="422" y="793.7314">loginJwt(username, password, serverTime)</text><text fill="#000000" font-family="sans-serif" font-size="11" lengthAdjust="spacingAndGlyphs" textLength="228" x="422" y="807.5674">loginUsingCmkJwt(username, cmk, serverTime)</text><text fill="#000000" font-family="sans-serif" font-size="11" lengthAdjust="spacingAndGlyphs" textLength="94" x="422" y="821.4033">recover(username)</text><text fill="#000000" font-family="sans-serif" font-size="11" lengthAdjust="spacingAndGlyphs" textLength="204" x="422" y="835.2393">reconstruct(username, shares, newPass)</text><text fill="#000000" font-family="sans-serif" font-size="11" lengthAdjust="spacingAndGlyphs" textLength="37" x="422" y="849.0752">logout()</text><text fill="#000000" font-family="sans-serif" font-size="11" lengthAdjust="spacingAndGlyphs" textLength="170" x="422" y="862.9111">changePassword(pass, newPass)</text><!--MD5=[5f998458ab23b7caea39a3170de0c890]
class dns--><rect codeLine="41" fill="#F8F8F8" filter="url(#f1hsibl5azip83)" height="61.8359" id="dns" style="stroke: #383838; stroke-width: 1.5;" width="87" x="728.5" y="561.1406"/><ellipse cx="743.5" cy="577.1406" fill="#C2C2C2" rx="11" ry="11" style="stroke: #383838; stroke-width: 1.0;"/><path d="M746.2656,573.0156 Q746.4219,572.7969 746.6094,572.6875 Q746.7969,572.5781 747.0156,572.5781 Q747.3906,572.5781 747.625,572.8438 Q747.8594,573.0938 747.8594,573.7031 L747.8594,575.1563 Q747.8594,575.7656 747.625,576.0313 Q747.3906,576.2969 747.0156,576.2969 Q746.6719,576.2969 746.4688,576.0938 Q746.2656,575.9063 746.1563,575.3906 Q746.1094,575.0313 745.9219,574.8438 Q745.5938,574.4688 744.9844,574.25 Q744.375,574.0313 743.75,574.0313 Q742.9844,574.0313 742.3438,574.3594 Q741.7188,574.6875 741.2188,575.4375 Q740.7344,576.1875 740.7344,577.2188 L740.7344,578.3125 Q740.7344,579.5469 741.625,580.375 Q742.5156,581.1875 744.1094,581.1875 Q745.0469,581.1875 745.7031,580.9375 Q746.0938,580.7813 746.5156,580.3438 Q746.7813,580.0781 746.9219,580 Q747.0781,579.9219 747.2813,579.9219 Q747.6094,579.9219 747.8594,580.1875 Q748.125,580.4375 748.125,580.7813 Q748.125,581.125 747.7813,581.5313 Q747.2813,582.1094 746.4844,582.4375 Q745.4063,582.8906 744.1094,582.8906 Q742.5938,582.8906 741.3906,582.2656 Q740.4063,581.7656 739.7188,580.7031 Q739.0313,579.625 739.0313,578.3438 L739.0313,577.1875 Q739.0313,575.8594 739.6406,574.7188 Q740.2656,573.5625 741.3594,572.9531 Q742.4531,572.3281 743.6875,572.3281 Q744.4219,572.3281 745.0625,572.5 Q745.7188,572.6563 746.2656,573.0156 Z "/><text fill="#000000" font-family="sans-serif" font-size="12" lengthAdjust="spacingAndGlyphs" textLength="55" x="757.5" y="582.0508">DnsClient</text><line style="stroke: #383838; stroke-width: 1.5;" x1="729.5" x2="814.5" y1="593.1406" y2="593.1406"/><line style="stroke: #383838; stroke-width: 1.5;" x1="729.5" x2="814.5" y1="601.1406" y2="601.1406"/><text fill="#000000" font-family="sans-serif" font-size="11" lengthAdjust="spacingAndGlyphs" textLength="60" x="734.5" y="616.5596">getOrks(uid)</text><!--MD5=[45252136cf07c77732f4c7e4a9f2aa1f]
class vendor--><rect codeLine="16" fill="#F8F8F8" filter="url(#f1hsibl5azip83)" height="48" id="vendor" style="stroke: #383838; stroke-width: 1.5;" width="103" x="850.5" y="568.1406"/><ellipse cx="865.5" cy="584.1406" fill="#C2C2C2" rx="11" ry="11" style="stroke: #383838; stroke-width: 1.0;"/><path d="M868.2656,580.0156 Q868.4219,579.7969 868.6094,579.6875 Q868.7969,579.5781 869.0156,579.5781 Q869.3906,579.5781 869.625,579.8438 Q869.8594,580.0938 869.8594,580.7031 L869.8594,582.1563 Q869.8594,582.7656 869.625,583.0313 Q869.3906,583.2969 869.0156,583.2969 Q868.6719,583.2969 868.4688,583.0938 Q868.2656,582.9063 868.1563,582.3906 Q868.1094,582.0313 867.9219,581.8438 Q867.5938,581.4688 866.9844,581.25 Q866.375,581.0313 865.75,581.0313 Q864.9844,581.0313 864.3438,581.3594 Q863.7188,581.6875 863.2188,582.4375 Q862.7344,583.1875 862.7344,584.2188 L862.7344,585.3125 Q862.7344,586.5469 863.625,587.375 Q864.5156,588.1875 866.1094,588.1875 Q867.0469,588.1875 867.7031,587.9375 Q868.0938,587.7813 868.5156,587.3438 Q868.7813,587.0781 868.9219,587 Q869.0781,586.9219 869.2813,586.9219 Q869.6094,586.9219 869.8594,587.1875 Q870.125,587.4375 870.125,587.7813 Q870.125,588.125 869.7813,588.5313 Q869.2813,589.1094 868.4844,589.4375 Q867.4063,589.8906 866.1094,589.8906 Q864.5938,589.8906 863.3906,589.2656 Q862.4063,588.7656 861.7188,587.7031 Q861.0313,586.625 861.0313,585.3438 L861.0313,584.1875 Q861.0313,582.8594 861.6406,581.7188 Q862.2656,580.5625 863.3594,579.9531 Q864.4531,579.3281 865.6875,579.3281 Q866.4219,579.3281 867.0625,579.5 Q867.7188,579.6563 868.2656,580.0156 Z "/><text fill="#000000" font-family="sans-serif" font-size="12" lengthAdjust="spacingAndGlyphs" textLength="71" x="879.5" y="589.0508">VendorClient</text><line style="stroke: #383838; stroke-width: 1.5;" x1="851.5" x2="952.5" y1="600.1406" y2="600.1406"/><line style="stroke: #383838; stroke-width: 1.5;" x1="851.5" x2="952.5" y1="608.1406" y2="608.1406"/><!--MD5=[40a35184bb90072991ba45e70685caab]
link com to cvk--><path codeLine="18" d="M450.692,77.7706 C417.351,94.0716 370.796,116.8336 325.79,138.8376 " fill="none" id="com-to-cvk" style="stroke: #383838; stroke-width: 1.0;"/><polygon fill="#383838" points="314.082,144.5626,321.2292,145.5207,324.8624,139.2917,317.7153,138.3337,314.082,144.5626" style="stroke: #383838; stroke-width: 1.0;"/><!--MD5=[e1537ef24234ad7dcc446ebf65acdb96]
link com to cmk--><path codeLine="19" d="M498,77.7706 C498,90.5166 498,107.2116 498,124.4066 " fill="none" id="com-to-cmk" style="stroke: #383838; stroke-width: 1.0;"/><polygon fill="#383838" points="498,137.5956,502,131.5956,498,125.5956,494,131.5956,498,137.5956" style="stroke: #383838; stroke-width: 1.0;"/><!--MD5=[8e1bc20d129f7b299811e34f9f3ed5f1]
link com to rule--><path codeLine="20" d="M541.955,77.8056 C570.254,93.4106 607.342,115.1816 638,137.6406 C644.706,142.5526 651.505,147.9256 658.16,153.4486 " fill="none" id="com-to-rule" style="stroke: #383838; stroke-width: 1.0;"/><polygon fill="#383838" points="668.467,162.2056,666.4849,155.2723,659.3226,154.4352,661.3046,161.3685,668.467,162.2056" style="stroke: #383838; stroke-width: 1.0;"/><!--MD5=[d56ebb2920a711f0a236a511a1e14dbe]
link cmk to cmkFlow--><path codeLine="22" d="M498,282.7326 C498,297.8726 498,313.9216 498,329.2796 " fill="none" id="cmk-to-cmkFlow" style="stroke: #383838; stroke-width: 1.0;"/><polygon fill="#383838" points="498,342.5596,502,336.5596,498,330.5596,494,336.5596,498,342.5596" style="stroke: #383838; stroke-width: 1.0;"/><text fill="#000000" font-family="sans-serif" font-size="13" lengthAdjust="spacingAndGlyphs" textLength="5" x="492.7109" y="331.5664">*</text><!--MD5=[35e4b31c21f14f01031485289b2f41a8]
link cvk to cvkFlow--><path codeLine="23" d="M176.056,275.8616 C174.063,297.5616 171.844,321.7316 169.857,343.3586 " fill="none" id="cvk-to-cvkFlow" style="stroke: #383838; stroke-width: 1.0;"/><polygon fill="#383838" points="168.655,356.4516,173.1874,350.843,169.7534,344.502,165.221,350.1107,168.655,356.4516" style="stroke: #383838; stroke-width: 1.0;"/><text fill="#000000" font-family="sans-serif" font-size="13" lengthAdjust="spacingAndGlyphs" textLength="5" x="163.9446" y="345.9266">*</text><!--MD5=[c518a128692205db3780cf5b0483bb4a]
link rule to ruleSet--><path codeLine="24" d="M721.365,261.8706 C723.019,286.8076 725.029,317.1146 726.784,343.5816 " fill="none" id="rule-to-ruleSet" style="stroke: #383838; stroke-width: 1.0;"/><polygon fill="#383838" points="727.649,356.6236,731.2433,350.3722,726.8551,344.6499,723.2608,350.9014,727.649,356.6236" style="stroke: #383838; stroke-width: 1.0;"/><text fill="#000000" font-family="sans-serif" font-size="13" lengthAdjust="spacingAndGlyphs" textLength="5" x="721.8262" y="345.7497">*</text><!--MD5=[8d313e87f43b4b5329ff6eedcb372c00]
link cmkFlow to dauth--><path codeLine="26" d="M525.72,473.8196 C532.319,489.2176 539.39,505.7166 546.083,521.3336 " fill="none" id="cmkFlow-to-dauth" style="stroke: #383838; stroke-width: 1.0;"/><polygon fill="#383838" points="551.353,533.6306,552.6658,526.54,546.6255,522.6011,545.3127,529.6917,551.353,533.6306" style="stroke: #383838; stroke-width: 1.0;"/><!--MD5=[216fc76aecc9355cecf91fbbcea7cbf0]
link cvkFlow to dauth--><path codeLine="27" d="M278.491,459.7166 C330.626,482.7476 392.575,510.1136 446.412,533.8956 " fill="none" id="cvkFlow-to-dauth" style="stroke: #383838; stroke-width: 1.0;"/><polygon fill="#383838" points="458.48,539.2266,454.6079,533.1433,447.5033,534.3778,451.3754,540.4611,458.48,539.2266" style="stroke: #383838; stroke-width: 1.0;"/><!--MD5=[a0eae7e7d0ec2517696ed3afbc08eb0b]
link ruleSet to dauth--><path codeLine="28" d="M687.824,459.8376 C671.119,479.4526 651.748,502.1976 633.87,523.1906 " fill="none" id="ruleSet-to-dauth" style="stroke: #383838; stroke-width: 1.0;"/><polygon fill="#383838" points="625.231,533.3336,632.1665,531.3591,633.0114,524.1976,626.0758,526.1722,625.231,533.3336" style="stroke: #383838; stroke-width: 1.0;"/><!--MD5=[db5fd30b7f9ebeb65449b55b64873417]
link cmkFlow to djwt--><path codeLine="30" d="M429.767,473.8196 C412.397,490.2846 393.7,508.0086 376.231,524.5666 " fill="none" id="cmkFlow-to-djwt" style="stroke: #383838; stroke-width: 1.0;"/><polygon fill="#383838" points="366.67,533.6306,373.7762,532.4054,375.3784,525.3745,368.2722,526.5998,366.67,533.6306" style="stroke: #383838; stroke-width: 1.0;"/><!--MD5=[5e921bb111ce45ed2718f266522d0063]
link cvkFlow to djwt--><path codeLine="31" d="M203.555,459.8376 C218.789,479.3626 236.443,501.9906 252.76,522.9036 " fill="none" id="cvkFlow-to-djwt" style="stroke: #383838; stroke-width: 1.0;"/><polygon fill="#383838" points="260.898,533.3336,260.3609,526.1426,253.5164,523.8726,254.0535,531.0636,260.898,533.3336" style="stroke: #383838; stroke-width: 1.0;"/><!--MD5=[147bd0731e4ae709b2aa633210add302]
link cvkFlow to dcmk--><path codeLine="33" d="M142.273,459.8376 C130.248,487.8946 115.478,522.3576 104.0878,548.9356 " fill="none" id="cvkFlow-to-dcmk" style="stroke: #383838; stroke-width: 1.0;"/><polygon fill="#383838" points="98.9547,560.9126,104.9949,556.9736,103.682,549.883,97.6418,553.822,98.9547,560.9126" style="stroke: #383838; stroke-width: 1.0;"/><!--MD5=[88f3127b0d6200fe80faaf9abacd3087]
link djwt to tide--><path codeLine="35" d="M385.549,650.8866 C411.215,669.5186 440.118,690.5006 467.506,710.3816 " fill="none" id="djwt-tide" style="stroke: #383838; stroke-width: 1.0;"/><!--MD5=[f1842a9f557a3084bfb95c2844ec65e7]
link dcmk to tide--><path codeLine="36" d="M125.736,623.2136 C139.581,632.8136 155.531,642.9356 171,650.6406 C248.657,689.3216 339.716,721.5276 415.802,745.1196 " fill="none" id="dcmk-tide" style="stroke: #383838; stroke-width: 1.0;"/><!--MD5=[7bf475766198deddfbc1147a20c03d78]
link dauth to tide--><path codeLine="37" d="M576,650.8866 C576,669.5186 576,690.5006 576,710.3816 " fill="none" id="dauth-tide" style="stroke: #383838; stroke-width: 1.0;"/><!--MD5=[9ce431b3c0b798c696fb5b6a2bfa8984]
link dns to tide--><path codeLine="38" d="M741.805,623.3356 C718.61,646.5306 685.476,679.6646 654.918,710.2226 " fill="none" id="dns-tide" style="stroke: #383838; stroke-width: 1.0;"/><!--MD5=[114a49f929ca753e4553f161b3ed9965]
link vendor to tide--><path codeLine="39" d="M876.754,616.2686 C864.094,627.3126 848.243,640.3346 833,650.6406 C801.929,671.6486 767.346,692.0836 733.879,710.5216 " fill="none" id="vendor-tide" style="stroke: #383838; stroke-width: 1.0;"/><!--MD5=[6bc698862aca4568a7bb8a789df3bc54]
@startuml dAuthFlowClass
skinparam monochrome true

title Dauth Flow Class
class "ORKComunicator" as com
class "CVKClient" as cvk
class "CMKClient" as cmk
class "RuleClient" as rule
class "CMKFlow" as cmkFlow
class "CVKFlow" as cvkFlow
class "RuleClientSet" as ruleSet
class "DAuthFlow" as dauth
class "DAuthCmkJwtFlow" as dcmk
class "DAuthJwtFlow" as djwt
class "TideAuthentication" as tide
class "DnsClient" as dns
class "VendorClient" as vendor

com - -* cvk
com - -* cmk
com - -* rule

cmk - -* "*" cmkFlow
cvk - -* "*" cvkFlow
rule - -* "*" ruleSet

cmkFlow - -* dauth
cvkFlow - -* dauth
ruleSet - -* dauth

cmkFlow - -* djwt
cvkFlow - -* djwt

cvkFlow - -* dcmk

djwt - - tide
dcmk - - tide
dauth - - tide
dns - - tide
vendor - - tide

class dns {
  getOrks(uid)
}

class djwt {
  signUp(password, email, threshold)
  logIn(password)
  Recover()
  Reconstruct(textShares, newPass, threshold)
  changePass(pass, newPass, threshold)
}

class dcmk {
  logIn()
}

class tide {
  register(username, password, email)
  registerJwt(username, password, email, serverTime, threshold)
  loginJwt(username, password, serverTime)
  loginUsingCmkJwt(username, cmk, serverTime)
  recover(username)
  reconstruct(username, shares, newPass)
  logout()
  changePassword(pass, newPass)
}

class cmk {
  -communicator
  applyPrism(pass)
  signIn(token)
  signUp(prismi, cmki, prismAuthi, cmkAuthi, email)
  changePass(prismi, prismAuthi, token, withCmk)
  recover()
  confirm()

}

class cvk {
  -communicator
  register(cvkPub, cvki, cvkAuthi, signedKeyId, signature)
  getCvk(key)
  challenge(keyId)
  decrypt(data, keyId, token, sign)
  confirm()
}

class rule {
  -communicator
  getById(ruleId)
  getSet()
  setOrUpdate(rule)
}


class cmkFlow {
  - cmk[]: clients
  cmkAuth: signUp(password, email, threshold, cmk)
  cmkAuth: logIn(password)
  prismAuth: getPrismAuth(pass)
  cmkAuth: Reconstruct(textShares, newPass, threshold)
  changePass(pass, newPass, threshold)
}

class cvkFlow {
  - cvkClient[]: clients
  cvk: signUp(cmkAuth, threshold, signedKeyId, signatures, cvk)
  cvk: getKey(cmkAuth)
  byte[]: decrypt(cipher, private)
}

class ruleSet {
  - ruleClient[]: clients
  getById(ruleId)
  getSet()
  setOrUpdate(rule)
}


class dauth {
  
  signUp(password, email, threshold)
  logIn(password)
  Recover()
  Reconstruct(textShares, newPass, threshold)
  changePass(pass, newPass, threshold)
}

@enduml

PlantUML version 1.2020.18(Thu Oct 01 05:40:44 AEST 2020)
(GPL source distribution)
Java Runtime: OpenJDK Runtime Environment
JVM: OpenJDK 64-Bit Server VM
Default Encoding: Cp1252
Language: en
Country: AU
--></g></svg>