<?xml version="1.0" encoding="UTF-8" standalone="no"?><svg xmlns="http://www.w3.org/2000/svg" xmlns:xlink="http://www.w3.org/1999/xlink" contentScriptType="application/ecmascript" contentStyleType="text/css" height="324px" preserveAspectRatio="none" style="width:336px;height:324px;" version="1.1" viewBox="0 0 336 324" width="336px" zoomAndPan="magnify"><defs><filter height="300%" id="f1ps0tg94dzqww" width="300%" x="-1" y="-1"><feGaussianBlur result="blurOut" stdDeviation="2.0"/><feColorMatrix in="blurOut" result="blurOut2" type="matrix" values="0 0 0 0 0 0 0 0 0 0 0 0 0 0 0 0 0 0 .4 0"/><feOffset dx="4.0" dy="4.0" in="blurOut2" result="blurOut3"/><feBlend in="SourceGraphic" in2="blurOut3" mode="normal"/></filter></defs><g><text fill="#000000" font-family="sans-serif" font-size="18" lengthAdjust="spacingAndGlyphs" textLength="90" x="127" y="16.708">Rule Class</text><!--MD5=[1b0c078f5d796f81d685886800b19f1a]
class action--><rect fill="#F8F8F8" filter="url(#f1ps0tg94dzqww)" height="73.6094" id="action" style="stroke: #383838; stroke-width: 1.5;" width="71" x="254.5" y="54.4531"/><ellipse cx="269.5" cy="70.4531" fill="#ABABAB" rx="11" ry="11" style="stroke: #383838; stroke-width: 1.0;"/><path d="M273.6094,76.4531 L265.8906,76.4531 L265.8906,64.0625 L273.6094,64.0625 L273.6094,66.2188 L268.3438,66.2188 L268.3438,68.8906 L273.1094,68.8906 L273.1094,71.0469 L268.3438,71.0469 L268.3438,74.2969 L273.6094,74.2969 L273.6094,76.4531 Z "/><text fill="#000000" font-family="sans-serif" font-size="12" lengthAdjust="spacingAndGlyphs" textLength="39" x="283.5" y="74.6074">Action</text><line style="stroke: #383838; stroke-width: 1.5;" x1="255.5" x2="324.5" y1="86.4531" y2="86.4531"/><ellipse cx="265.5" cy="97.4531" fill="none" rx="3" ry="3" style="stroke: #545454; stroke-width: 1.0;"/><text fill="#000000" font-family="sans-serif" font-size="11" lengthAdjust="spacingAndGlyphs" textLength="29" x="274.5" y="100.6636">allow</text><ellipse cx="265.5" cy="110.2578" fill="none" rx="3" ry="3" style="stroke: #545454; stroke-width: 1.0;"/><text fill="#000000" font-family="sans-serif" font-size="11" lengthAdjust="spacingAndGlyphs" textLength="27" x="274.5" y="113.4683">deny</text><line style="stroke: #383838; stroke-width: 1.5;" x1="255.5" x2="324.5" y1="120.0625" y2="120.0625"/><!--MD5=[803fa0f60d833365c81945099e5eaf5a]
class rule--><rect fill="#F8F8F8" filter="url(#f1ps0tg94dzqww)" height="124.8281" id="rule" style="stroke: #383838; stroke-width: 1.5;" width="137" x="82.5" y="28.9531"/><ellipse cx="133.25" cy="44.9531" fill="#C2C2C2" rx="11" ry="11" style="stroke: #383838; stroke-width: 1.0;"/><path d="M136.2188,50.5938 Q135.6406,50.8906 135,51.0313 Q134.3594,51.1875 133.6563,51.1875 Q131.1563,51.1875 129.8281,49.5469 Q128.5156,47.8906 128.5156,44.7656 Q128.5156,41.6406 129.8281,39.9844 Q131.1563,38.3281 133.6563,38.3281 Q134.3594,38.3281 135,38.4844 Q135.6563,38.6406 136.2188,38.9375 L136.2188,41.6563 Q135.5938,41.0781 135,40.8125 Q134.4063,40.5313 133.7813,40.5313 Q132.4375,40.5313 131.75,41.6094 Q131.0625,42.6719 131.0625,44.7656 Q131.0625,46.8594 131.75,47.9375 Q132.4375,49 133.7813,49 Q134.4063,49 135,48.7344 Q135.5938,48.4531 136.2188,47.875 L136.2188,50.5938 Z "/><text fill="#000000" font-family="sans-serif" font-size="12" lengthAdjust="spacingAndGlyphs" textLength="27" x="153.75" y="49.1074">Rule</text><line style="stroke: #383838; stroke-width: 1.5;" x1="83.5" x2="218.5" y1="60.9531" y2="60.9531"/><ellipse cx="93.5" cy="71.9531" fill="none" rx="3" ry="3" style="stroke: #545454; stroke-width: 1.0;"/><text fill="#000000" font-family="sans-serif" font-size="11" lengthAdjust="spacingAndGlyphs" textLength="68" x="102.5" y="75.1636">RuleId: Guid</text><ellipse cx="93.5" cy="84.7578" fill="none" rx="3" ry="3" style="stroke: #545454; stroke-width: 1.0;"/><text fill="#000000" font-family="sans-serif" font-size="11" lengthAdjust="spacingAndGlyphs" textLength="111" x="102.5" y="87.9683">Owner: AccountCVK</text><ellipse cx="93.5" cy="97.5625" fill="none" rx="3" ry="3" style="stroke: #545454; stroke-width: 1.0;"/><text fill="#000000" font-family="sans-serif" font-size="11" lengthAdjust="spacingAndGlyphs" textLength="60" x="102.5" y="100.7729">Tag: ulong</text><ellipse cx="93.5" cy="110.3672" fill="none" rx="3" ry="3" style="stroke: #545454; stroke-width: 1.0;"/><text fill="#000000" font-family="sans-serif" font-size="11" lengthAdjust="spacingAndGlyphs" textLength="67" x="102.5" y="113.5776">Tenant: Key</text><ellipse cx="93.5" cy="123.1719" fill="none" rx="3" ry="3" style="stroke: #545454; stroke-width: 1.0;"/><text fill="#000000" font-family="sans-serif" font-size="11" lengthAdjust="spacingAndGlyphs" textLength="94" x="102.5" y="126.3823">Condition: string</text><ellipse cx="93.5" cy="135.9766" fill="none" rx="3" ry="3" style="stroke: #545454; stroke-width: 1.0;"/><text fill="#000000" font-family="sans-serif" font-size="11" lengthAdjust="spacingAndGlyphs" textLength="76" x="102.5" y="139.187">Action: Action</text><line style="stroke: #383838; stroke-width: 1.5;" x1="83.5" x2="218.5" y1="145.7813" y2="145.7813"/><!--MD5=[0dbad6b6cbd3e8f4bbe05dc60804428e]
class key--><rect fill="#F8F8F8" filter="url(#f1ps0tg94dzqww)" height="73.6094" id="key" style="stroke: #383838; stroke-width: 1.5;" width="130" x="6" y="226.4531"/><ellipse cx="56.25" cy="242.4531" fill="#C2C2C2" rx="11" ry="11" style="stroke: #383838; stroke-width: 1.0;"/><path d="M59.2188,248.0938 Q58.6406,248.3906 58,248.5313 Q57.3594,248.6875 56.6563,248.6875 Q54.1563,248.6875 52.8281,247.0469 Q51.5156,245.3906 51.5156,242.2656 Q51.5156,239.1406 52.8281,237.4844 Q54.1563,235.8281 56.6563,235.8281 Q57.3594,235.8281 58,235.9844 Q58.6563,236.1406 59.2188,236.4375 L59.2188,239.1563 Q58.5938,238.5781 58,238.3125 Q57.4063,238.0313 56.7813,238.0313 Q55.4375,238.0313 54.75,239.1094 Q54.0625,240.1719 54.0625,242.2656 Q54.0625,244.3594 54.75,245.4375 Q55.4375,246.5 56.7813,246.5 Q57.4063,246.5 58,246.2344 Q58.5938,245.9531 59.2188,245.375 L59.2188,248.0938 Z "/><text fill="#000000" font-family="sans-serif" font-size="12" lengthAdjust="spacingAndGlyphs" textLength="21" x="76.75" y="246.6074">Key</text><line style="stroke: #383838; stroke-width: 1.5;" x1="7" x2="135" y1="258.4531" y2="258.4531"/><ellipse cx="17" cy="269.4531" fill="none" rx="3" ry="3" style="stroke: #545454; stroke-width: 1.0;"/><text fill="#000000" font-family="sans-serif" font-size="11" lengthAdjust="spacingAndGlyphs" textLength="63" x="26" y="272.6636">keyId: Guid</text><ellipse cx="17" cy="282.2578" fill="none" rx="3" ry="3" style="stroke: #545454; stroke-width: 1.0;"/><text fill="#000000" font-family="sans-serif" font-size="11" lengthAdjust="spacingAndGlyphs" textLength="104" x="26" y="285.4683">Public: C25519Key</text><line style="stroke: #383838; stroke-width: 1.5;" x1="7" x2="135" y1="292.0625" y2="292.0625"/><!--MD5=[e6ef34c44c8e76aa7fe1e85c067f588c]
class cvk--><rect fill="#F8F8F8" filter="url(#f1ps0tg94dzqww)" height="99.2188" id="cvk" style="stroke: #383838; stroke-width: 1.5;" width="122" x="171" y="213.9531"/><ellipse cx="193.2" cy="229.9531" fill="#C2C2C2" rx="11" ry="11" style="stroke: #383838; stroke-width: 1.0;"/><path d="M196.1688,235.5938 Q195.5906,235.8906 194.95,236.0313 Q194.3094,236.1875 193.6063,236.1875 Q191.1063,236.1875 189.7781,234.5469 Q188.4656,232.8906 188.4656,229.7656 Q188.4656,226.6406 189.7781,224.9844 Q191.1063,223.3281 193.6063,223.3281 Q194.3094,223.3281 194.95,223.4844 Q195.6063,223.6406 196.1688,223.9375 L196.1688,226.6563 Q195.5438,226.0781 194.95,225.8125 Q194.3563,225.5313 193.7313,225.5313 Q192.3875,225.5313 191.7,226.6094 Q191.0125,227.6719 191.0125,229.7656 Q191.0125,231.8594 191.7,232.9375 Q192.3875,234 193.7313,234 Q194.3563,234 194.95,233.7344 Q195.5438,233.4531 196.1688,232.875 L196.1688,235.5938 Z "/><text fill="#000000" font-family="sans-serif" font-size="12" lengthAdjust="spacingAndGlyphs" textLength="74" x="208.8" y="234.1074">AccountCVK</text><line style="stroke: #383838; stroke-width: 1.5;" x1="172" x2="292" y1="245.9531" y2="245.9531"/><ellipse cx="182" cy="256.9531" fill="none" rx="3" ry="3" style="stroke: #545454; stroke-width: 1.0;"/><text fill="#000000" font-family="sans-serif" font-size="11" lengthAdjust="spacingAndGlyphs" textLength="88" x="191" y="260.1636">AccountId: Guid</text><ellipse cx="182" cy="269.7578" fill="none" rx="3" ry="3" style="stroke: #545454; stroke-width: 1.0;"/><text fill="#000000" font-family="sans-serif" font-size="11" lengthAdjust="spacingAndGlyphs" textLength="61" x="191" y="272.9683">Public: Key</text><ellipse cx="182" cy="282.5625" fill="none" rx="3" ry="3" style="stroke: #545454; stroke-width: 1.0;"/><text fill="#000000" font-family="sans-serif" font-size="11" lengthAdjust="spacingAndGlyphs" textLength="96" x="191" y="285.7729">CVKi: BigInterger</text><ellipse cx="182" cy="295.3672" fill="none" rx="3" ry="3" style="stroke: #545454; stroke-width: 1.0;"/><text fill="#000000" font-family="sans-serif" font-size="11" lengthAdjust="spacingAndGlyphs" textLength="95" x="191" y="298.5776">CVkAuth: AesKey</text><line style="stroke: #383838; stroke-width: 1.5;" x1="172" x2="292" y1="305.1719" y2="305.1719"/><!--MD5=[14b1f2079e5dee47082b1c64e7a52547]
reverse link rule to key--><path d="M116.3809,165.8841 C106.6365,186.8346 96.4582,208.718 88.2161,226.4384 " fill="none" id="rule&lt;-key" style="stroke: #383838; stroke-width: 1.0;"/><polygon fill="#383838" points="121.8919,154.0356,115.7346,157.789,116.8311,164.9163,122.9884,161.1629,121.8919,154.0356" style="stroke: #383838; stroke-width: 1.0;"/><!--MD5=[404755feacb713e205b8dccf8306b79f]
reverse link rule to action--><path d="M232.9339,91.4531 C240.0537,91.4531 247.1736,91.4531 254.2934,91.4531 " fill="none" id="rule&lt;-action" style="stroke: #383838; stroke-width: 1.0;"/><polygon fill="#383838" points="219.6855,91.4531,225.6855,95.4531,231.6855,91.4531,225.6855,87.4531,219.6855,91.4531" style="stroke: #383838; stroke-width: 1.0;"/><!--MD5=[50293f8a2e70fc013b6cef9b137754ec]
reverse link rule to cvk--><path d="M186.208,166.2158 C193.7969,182.3304 201.638,198.9806 208.6407,213.8505 " fill="none" id="rule&lt;-cvk" style="stroke: #383838; stroke-width: 1.0;"/><polygon fill="#383838" points="180.472,154.0356,179.4095,161.168,185.5846,164.892,186.6471,157.7596,180.472,154.0356" style="stroke: #383838; stroke-width: 1.0;"/><!--MD5=[445e5a627174b795b82f15b095ca7c21]
link key to cvk--><path d="M136.0918,263.4531 C143.3505,263.4531 150.6092,263.4531 157.8678,263.4531 " fill="none" id="key-&gt;cvk" style="stroke: #383838; stroke-width: 1.0;"/><polygon fill="#383838" points="170.9334,263.4531,164.9334,259.4531,158.9334,263.4531,164.9334,267.4531,170.9334,263.4531" style="stroke: #383838; stroke-width: 1.0;"/><!--MD5=[8969cccfa1e2e064bfb369fee1dd6ed9]
@startuml ruleClass
skinparam monochrome true

title Rule Class
enum "Action" as action
class "Rule" as rule
class "Key" as key
class "AccountCVK" as cvk

rule *- key
rule *- action
rule *- - cvk
key -* cvk

enum action {
  +allow
  +deny
}

class rule {
  +RuleId: Guid
  +Owner: AccountCVK
  +Tag: ulong
  +Tenant: Key
  +Condition: string
  +Action: Action
}

class key {
  +keyId: Guid
  +Public: C25519Key
}

class cvk {
  +AccountId: Guid
  +Public: Key
  +CVKi: BigInterger
  +CVkAuth: AesKey
}

@enduml

PlantUML version 1.2020.10(Sun May 17 19:35:57 AEST 2020)
(GPL source distribution)
Java Runtime: OpenJDK Runtime Environment
JVM: OpenJDK 64-Bit Server VM
Java Version: 11.0.8+10-post-Ubuntu-0ubuntu118.04.1
Operating System: Linux
Default Encoding: UTF-8
Language: en
Country: AU
--></g></svg>