<?xml version="1.0" encoding="utf-8"?>
<!-- Generator: Adobe Illustrator 23.0.1, SVG Export Plug-In . SVG Version: 6.00 Build 0)  -->
<svg version="1.1" id="Capa_1" xmlns="http://www.w3.org/2000/svg" xmlns:xlink="http://www.w3.org/1999/xlink" x="0px" y="0px"
	 viewBox="0 0 55 55" style="enable-background:new 0 0 55 55;" xml:space="preserve">
<style type="text/css">
	.st0{fill:#FF7400;}
</style>
<path class="st0" d="M51.9,6.6l-2.3-2.3c-0.9-0.9-2.4-0.9-3.4,0l-2.5,2.5H4.9v44.5h44.5V12.5l0.2-0.2l0,0l2.3-2.3
	C52.8,9,52.8,7.5,51.9,6.6z M20.8,32.9l2.6,2.6l-3.5,1L20.8,32.9z M46.2,13.4L42.9,10L44,8.9l3.4,3.4L46.2,13.4z M45.1,14.5
	L24.9,34.7l-3.4-3.4l20.2-20.2L45.1,14.5z M47.8,14.1v35.7H6.4V8.4h35.7L19.8,30.8l-0.1,0.1L18,37.1l-1,1c-0.3,0.3-0.3,0.8,0,1.1
	c0.2,0.2,0.4,0.2,0.6,0.2c0.2,0,0.4-0.1,0.6-0.2l1-1l6.2-1.7l20.9-20.9l0,0l0.4-0.4L47.8,14.1z M50.7,8.9l-2.3,2.3l-3.4-3.4l2.3-2.3
	c0.3-0.3,0.8-0.3,1.1,0l2.3,2.3C51,8,51,8.5,50.7,8.9z"/>
</svg>
