<?xml version="1.0" encoding="utf-8"?>
<!-- Generator: Adobe Illustrator 23.0.1, SVG Export Plug-In . SVG Version: 6.00 Build 0)  -->
<svg version="1.1" xmlns="http://www.w3.org/2000/svg" xmlns:xlink="http://www.w3.org/1999/xlink" x="0px" y="0px"
	 viewBox="0 0 512 512" style="enable-background:new 0 0 512 512;" xml:space="preserve">
<style type="text/css">
	.st0{display:none;}
	.st1{display:inline;fill:#F9111F;}
	.st2{fill:#22C5E8;}
</style>
<g id="Layer_1" class="st0">
	<path class="st1" d="M174,358c-5.1,0-10.2-2-14.1-5.9c-7.8-7.8-7.8-20.5,0-28.3l164-164c7.8-7.8,20.5-7.8,28.3,0
		c7.8,7.8,7.8,20.5,0,28.3l-164,164C184.2,356.1,179.1,358,174,358z M362.1,286.3c29.7-5.3,60.4-23.2,88.8-51.7l7.8-7.9
		c28.9-28.9,46.8-60.5,51.8-91.2c5.9-36.3-6.1-70.6-34.8-99.3C447.1,7.6,413-4.4,377,1.5c-30.3,5-61.6,22.9-90.6,51.8l-7.9,7.9
		c-28,28-45.8,58.2-51.4,87.3c-2.1,10.8,5,21.3,15.8,23.4c10.8,2.1,21.3-5,23.4-15.8c4.1-21.3,18.1-44.3,40.4-66.6l7.9-7.8l0.1-0.1
		c23-23,46.8-37,68.9-40.7c23.4-3.8,44.3,3.9,64,23.5c50.8,50.8,11.1,105.8-17.1,134l-7.8,7.9c-22.6,22.7-46,36.7-67.6,40.6
		c-10.9,2-18.1,12.4-16.1,23.2c1.7,9.7,10.2,16.5,19.7,16.5C359.7,286.6,360.9,286.5,362.1,286.3z M135.5,510.5
		c30.7-5,62.2-22.9,91.2-51.8l7.9-7.8l0.1-0.1c28.5-28.5,46.4-59.2,51.7-88.9c2-10.9-5.3-21.3-16.2-23.2
		c-10.9-1.9-21.3,5.3-23.2,16.2c-3.9,21.6-17.9,44.9-40.6,67.6l-7.9,7.8l-0.1,0.1c-28.2,28.2-83.1,67.8-133.9,17.1
		c-19.7-19.7-27.4-40.7-23.6-64c3.6-22,17.7-45.8,40.7-68.9l7.8-7.9c22.3-22.3,45.3-36.3,66.6-40.4c10.8-2.1,17.9-12.6,15.8-23.4
		c-2.1-10.8-12.6-17.9-23.4-15.8c-29.2,5.6-59.4,23.4-87.3,51.4l-7.8,7.9c-28.9,29-46.8,60.3-51.8,90.6c-5.9,36,6.1,70.1,34.7,98.8
		C60.1,499.7,88,512,117.6,512C123.5,512,129.5,511.5,135.5,510.5z"/>
</g>
<g id="Layer_2">
	<g>
		<polygon class="st2" points="446.6,334 369.3,379 369.3,200.7 343.1,216.1 343.1,394.8 265.7,439.8 265.7,469.5 446.6,365.2 		"/>
		<polygon class="st2" points="236,358 88.7,274.7 88.7,175.4 63.5,161.6 63.5,378.2 88.7,392 88.7,303.9 236,387.5 		"/>
		<polygon class="st2" points="322.9,112.8 396.3,157.7 397.4,157.7 424.9,142.6 237.9,34.8 237,34.8 208,53.2 293.6,104.4 
			150,182.5 175.1,198.4 		"/>
	</g>
</g>
</svg>
