<svg xmlns="http://www.w3.org/2000/svg" class="contacts-icon-container" width="24" height="24" viewBox="0 0 24 24"><path class="contacts-icon" fill-rule="evenodd" clip-rule="evenodd" fill="#0DBAE8" d="M17.001 23.999h-10.001c-1.657 0-3-1.343-3-2.999v-18c0-1.656 1.343-3 3-3h10.001c1.655 0 2.999 1.344 2.999 3v18c0 1.656-1.344 2.999-2.999 2.999zm.999-19.999c0-1.105-.896-2-2-2h-8c-1.105 0-2 .896-2 2v16c0 1.104.895 2 2 2h8c1.104 0 2-.896 2-2v-16zm-4 1h-4c-.552 0-1-.447-1-1 0-.552.448-1 1-1h4c.553 0 1.001.448 1.001 1 0 .553-.448 1-1.001 1zm-2 13c1.105 0 2 .672 2 1.499 0 .829-.895 1.501-2 1.501s-2-.672-2-1.501c0-.827.895-1.499 2-1.499z"/></svg>