<svg xmlns="http://www.w3.org/2000/svg" class="meta-icon-container" width="30" height="30" viewBox="0 0 48 48"><path class="meta-icon" fill-rule="evenodd" clip-rule="evenodd" fill="#0DBAE8" d="M47.199 24.176l-23.552-23.392c-.504-.502-1.174-.778-1.897-.778l-19.087.09c-.236.003-.469.038-.696.1l-.251.1-.166.069c-.319.152-.564.321-.766.529-.497.502-.781 1.196-.778 1.907l.092 19.124c.003.711.283 1.385.795 1.901l23.549 23.389c.221.218.482.393.779.523l.224.092c.26.092.519.145.78.155l.121.009h.012c.239-.003.476-.037.693-.098l.195-.076.2-.084c.315-.145.573-.319.791-.539l18.976-19.214c.507-.511.785-1.188.781-1.908-.003-.72-.287-1.394-.795-1.899zm-35.198-9.17c-1.657 0-3-1.345-3-3 0-1.657 1.343-3 3-3 1.656 0 2.999 1.343 2.999 3 0 1.656-1.343 3-2.999 3z"/></svg>