<svg xmlns="http://www.w3.org/2000/svg" class="contacts-icon-container" width="12" height="16" viewBox="0 0 12 16"><path class="icon-lock" fill="#737a84" d="M8.62046,16.09077h-4.994c-1.932 0-3.498-1.565-3.498-3.498v-6.494h2v-1.997c0-2.208 1.788-3.996 3.995-3.996s3.996 1.787 3.996 3.996v1.997h2v6.494c0 1.933-1.568 3.498-3.5 3.498zm-2.497-13.987c-1.104 0-2 .895-2 2v1.995h3.997v-1.998c0-1.104-.894-2-1.997-2zm3.996 5.995h-7.992v4.494c0 .828.67 1.5 1.5 1.5h4.993c.828 0 1.5-.672 1.5-1.5v-4.494zm-3.996 3.996c-.55 0-1-.447-1-1 0-.552.448-1 1-1s1 .448 1 1c0 .553-.448 1-1 1z"/></svg>