<svg xmlns="http://www.w3.org/2000/svg" class="meta-icon-container" width="30" height="30" viewBox="0 0 48 48"><path class="meta-icon" fill="#0DBAE8" d="M44 0h-40c-2.21 0-4 1.791-4 4v44h6v-40c0-1.106.895-2 2-2h31.999c1.106 0 2.001.895 2.001 2v40h6v-44c0-2.209-1.792-4-4-4zm-36 8.001h31.999v2.999h-31.999zm0 18h6v5.999h-2c-1.104 0-2 .896-2 2.001v6.001c0 1.103.896 1.998 2 1.998h2v2.001c0 1.104.896 2 2 2s2-.896 2-2v-2.001h11.999v2.001c0 1.104.896 2 2.001 2 1.104 0 2-.896 2-2v-2.001h2c1.104 0 2-.895 2-1.998v-6.001c0-1.105-.896-2.001-2-2.001h-2v-5.999h5.999v-3h-31.999v3zm8 12.999c-1.104 0-2-.895-2-1.999s.896-2 2-2 2 .896 2 2-.896 1.999-2 1.999zm10.5 2h-5c-.276 0-.5-.225-.5-.5 0-.273.224-.498.5-.498h5c.275 0 .5.225.5.498 0 .275-.225.5-.5.5zm1-2h-7c-.275 0-.5-.225-.5-.5s.226-.499.5-.499h7c.275 0 .5.224.5.499s-.225.5-.5.5zm-6.5-2.499c0-.276.224-.5.5-.5h5c.275 0 .5.224.5.5s-.225.5-.5.5h-5c-.277 0-.5-.224-.5-.5zm11 2.499c-1.104 0-2.001-.895-2.001-1.999s.896-2 2.001-2c1.104 0 2 .896 2 2s-.896 1.999-2 1.999zm0-12.999v5.999h-16v-5.999h16zm-24-13.001h31.999v3h-31.999zm0 5h31.999v3h-31.999z"/></svg>