<svg xmlns="http://www.w3.org/2000/svg" class="meta-icon-container" width="30" height="30" viewBox="0 0 48 48"><path class="meta-icon" fill="#0DBAE8" d="M46 16v-12c0-1.104-.896-2.001-2-2.001h-12c0-1.103-.896-1.999-2.002-1.999h-11.997c-1.105 0-2.001.896-2.001 1.999h-12c-1.104 0-2 .897-2 2.001v12c-1.104 0-2 .896-2 2v11.999c0 1.104.896 2 2 2v12.001c0 1.104.896 2 2 2h12c0 1.104.896 2 2.001 2h11.997c1.106 0 2.002-.896 2.002-2h12c1.104 0 2-.896 2-2v-12.001c1.104 0 2-.896 2-2v-11.999c0-1.104-.896-2-2-2zm-4.002 23.998c0 1.105-.895 2.002-2 2.002h-31.998c-1.105 0-2-.896-2-2.002v-31.999c0-1.104.895-1.999 2-1.999h31.998c1.105 0 2 .895 2 1.999v31.999zm-5.623-28.908c-.123-.051-.256-.078-.387-.078h-11.39c-.563 0-1.019.453-1.019 1.016 0 .562.456 1.017 1.019 1.017h8.935l-20.5 20.473v-8.926c0-.562-.455-1.017-1.018-1.017-.564 0-1.02.455-1.02 1.017v11.381c0 .562.455 1.016 1.02 1.016h11.39c.562 0 1.017-.454 1.017-1.016 0-.563-.455-1.019-1.017-1.019h-8.933l20.499-20.471v8.924c0 .563.452 1.018 1.018 1.018.561 0 1.016-.455 1.016-1.018v-11.379c0-.132-.025-.264-.076-.387-.107-.249-.304-.448-.554-.551z"/></svg>