<svg xmlns="http://www.w3.org/2000/svg" class="contacts-icon-container" width="16" height="10" viewBox="0 0 16 10"><path class="icon-email-two" fill="#737a84" d="M15.09455,11.9789h-13.986c-.55 0-1-.447-1-1v-9.99c0-.55.448-.998 1-.998h13.986c.552 0 1 .447 1 1v9.99c0 .55-.448.998-1 .998zm-2.412-1.997l-3.02-3.02-.91.78c-.175.15-.402.24-.65.24-.25 0-.475-.09-.65-.24l-.913-.78-3.02 3.02h9.164zm-10.575-1.413l2.912-2.91-2.912-2.497v5.407zm1.703-6.58l4.291 3.679 4.293-3.68h-8.585zm7.375 3.67l2.912 2.91v-5.406l-2.912 2.495z"/></svg>