<svg xmlns="http://www.w3.org/2000/svg" class="contacts-icon-container" width="24" height="24" viewBox="0 0 24 24"><path class="fax-fill-one" d="M6 20c0 1.105.896 2 2 2h8c1.104 0 2-.895 2-2v-8h-12v8zm2-6h8v2h-8v-2zm0 4h8v2h-8v-2zM17 2h-10c-1.104 0-2 .896-2 2v3h14v-3c0-1.105-.896-2-2-2z" fill="none"/><circle cx="21" cy="11" r="1" fill="none"/><path class="fax-fill-two" fill="#0080bc" d="M21.999 7h-.999v-5c0-1.105-.896-2-2-2h-14c-1.104 0-2 .895-2 2v5h-.999c-1.105 0-2 .896-2 2.001v7.999c0 1.104.895 2 2 2h.999v3c0 1.105.896 2 2 2h14c1.104 0 2-.895 2-2v-3h.999c1.104 0 2-.896 2-2v-7.999c0-1.105-.895-2.001-2-2.001zm-3.999 13c0 1.105-.896 2-2 2h-8c-1.104 0-2-.895-2-2v-8h12v8zm1-13h-14v-3c0-1.104.896-2 2-2h10c1.104 0 2 .895 2 2v3zm2 4.999c-.553 0-1-.448-1-1 0-.551.447-.999 1-.999s.999.448.999.999c0 .552-.446 1-.999 1zM8 14h8v2h-8zM8 18h8v2h-8z"/></svg>