<svg xmlns="http://www.w3.org/2000/svg" class="contacts-icon-container" width="10" height="16" viewBox="0 0 10 16"><path class="icon-phone-two" fill="#0dbae8" d="M7.06452,16.0606h-3.997c-1.653 0-2.995-1.342-2.995-2.998v-9.99c0-1.654 1.342-2.998 2.996-2.998h3.997c1.655 0 2.997 1.344 2.997 2.998v9.99c0 1.656-1.342 2.998-2.997 2.998zm1-5.822v-7.166c0-.55-.447-1-1-1h-3.995c-.552 0-1 .448-1 1v9.991c0 .552.447 1 1 1h3.995c.552 0 1-.448 1-1v-2.825zm-2.997 2.824c-.55 0-1-.447-1-.998 0-.553.448-1 1-1s1 .447 1 1c0 .55-.448.998-1 .998z"/></svg>