<svg xmlns="http://www.w3.org/2000/svg" class="meta-icon-container" width="30" height="30" viewBox="0 0 48 48"><path class="meta-icon" fill-rule="evenodd" clip-rule="evenodd" fill="#0DBAE8" d="M24 48c-13.255 0-24-10.744-24-24 0-13.255 10.745-24 24-24 13.256 0 24 10.746 24 24 0 13.256-10.744 24-24 24zm7.207-29.719h-.645l.365-2.163c.168-1.067-.699-2.107-1.795-2.107-.896 0-1.654.59-1.793 1.49l-.477 2.78h-3.787l.365-2.163c.167-1.067-.702-2.107-1.796-2.107-.897 0-1.653.59-1.795 1.49l-.477 2.78h-1.599c-.981 0-1.794.814-1.794 1.797s.813 1.798 1.794 1.798h.981l-.7 4.156h-1.263c-.981 0-1.794.814-1.794 1.797s.813 1.797 1.794 1.797h.646l-.39 2.274c-.197 1.18.701 2.105 1.794 2.105 1.01 0 1.655-.73 1.796-1.488l.504-2.893h3.786l-.393 2.276c-.197 1.066.7 2.105 1.796 2.105.896 0 1.654-.617 1.793-1.488l.506-2.893h1.6c.979 0 1.793-.814 1.793-1.797s-.814-1.797-1.793-1.797h-.984l.703-4.156h1.26c.984 0 1.797-.815 1.797-1.798s-.814-1.795-1.798-1.795zm-9.449 7.75l.702-4.156h3.784l-.699 4.156h-3.787z"/></svg>