<svg xmlns="http://www.w3.org/2000/svg" class="contacts-icon-container" width="24" height="24" viewBox="0 0 24 24"><path class="contacts-icon" fill-rule="evenodd" clip-rule="evenodd" fill="#0080BC" d="M1.027 4.846l-.018.37.01.181c.068 9.565 7.003 17.42 15.919 18.48.338.075 1.253.129 1.614.129.359 0 .744-.021 1.313-.318.328-.172.448-.688.308-1.016-.227-.528-.531-.578-.87-.625-.435-.061-.905 0-1.521 0-1.859 0-3.486-.835-4.386-1.192l.002.003-.076-.034c-.387-.156-.696-.304-.924-.422-3.702-1.765-6.653-4.943-8.186-8.896-.258-.568-1.13-2.731-1.152-6.009h.003l-.022-.223c0-1.727 1.343-3.128 2.999-3.128 1.658 0 3.001 1.401 3.001 3.128 0 1.56-1.096 2.841-2.526 3.079l.001.014c-.513.046-.914.488-.914 1.033 0 .281.251 1.028.251 1.028.015 0 .131.188.119.188-.194-.539 1.669 5.201 7.021 7.849-.001.011.636.309.636.309.47.3 1.083.145 1.37-.347.09-.151.133-.32.14-.488.356-1.306 1.495-2.271 2.863-2.271 1.652 0 2.991 1.398 2.991 3.12 0 .346-.066.671-.164.981-.3.594-.412 1.21.077 1.699.769.769 1.442-.144 1.442-.144.408-.755.643-1.625.643-2.554 0-2.884-2.24-5.222-5.007-5.222-1.947 0-3.633 1.164-4.46 2.858-2.536-1.342-4.556-3.59-5.656-6.344 1.848-.769 3.154-2.647 3.154-4.849 0-2.884-2.241-5.222-5.007-5.222-2.41 0-4.422 1.777-4.897 4.144l-.091.711z"/></svg>