<svg xmlns="http://www.w3.org/2000/svg" class="contacts-icon-container" width="24" height="24" viewBox="0 0 24 24"><path class="contacts-icon" fill-rule="evenodd" clip-rule="evenodd" fill="#0DBAE8" d="M12 23.999c-6.627 0-12-5.371-12-11.999 0-6.627 5.373-12 12-12 6.628 0 11.999 5.372 11.999 12s-5.371 11.999-11.999 11.999zm0-21.999c-5.522 0-10 4.478-10 10s4.477 10 10 10 10-4.478 10-10-4.478-10-10-10zm3.567 14.757l-4.275-3.995c-.224-.225-.326-.527-.301-.82l.008-4.942c0-.552.448-1 1.001-1s1.001.448 1.001 1v4.594l3.756 3.974c.33.328.33.86 0 1.189-.329.33-.861.33-1.19 0z"/></svg>