<svg xmlns="http://www.w3.org/2000/svg" class="icon-plus-container" width="20" height="20" viewBox="0 0 20 20"><g fill="#C15302"><path class="icon icon-minus" d="M10.035 20.035c-2.092 0-4.313-.563-5.688-1.938-.406-.406-.688-.73-.688-1.141 0-.424.266-.859.891-.797.257.025.585.172.75.347 1.327.969 2.967 1.529 4.735 1.529 4.437 0 8.001-3.564 8.001-8.001 0-4.436-3.564-8-8.001-8-4.436 0-8 3.564-8 8 0 1.226.337 2.306.829 3.344 0 .001.277.495.313.938.04.491-.234.703-.656.875-.377.153-.859-.109-1.083-.452-.87-1.335-1.403-2.999-1.403-4.704 0-5.414 4.586-10 10-10 5.413 0 10 4.586 10 10 0 5.413-4.587 10-10 10zm-12-14v8-8zm16 5h-8c-.553 0-1-.447-1-1 0-.553.447-1 1-1h8c.553 0 1 .447 1 1 0 .553-.447 1-1 1z"/><path class="icon icon-plus" d="M10.226 15.035c-.553 0-1-.447-1-1v-8c0-.553.447-1 1-1 .553 0 1 .447 1 1v8c0 .553-.447 1-1 1z"/></g></svg>