<svg xmlns="http://www.w3.org/2000/svg" class="meta-icon-container" width="30" height="30" viewBox="0 0 48 48"><path class="meta-icon" fill="#0DBAE8" d="M37.003 48.016h-4v-3.002h-18v3.002h-4.001v-3.699c-4.66-1.65-8.002-6.083-8.002-11.305v-4.003h-3v-3h48.006v3h-3.001v4.003c0 5.223-3.343 9.655-8.002 11.305v3.699zm-30.002-24.008h-4.001v-17.005s0-7.003 8.001-7.003h1.004c.236 0 7.995.061 7.995 8.003l5.001 4h-14l5-4-.001.01.001-.009s.938-4.001-3.999-4.001h-1s-4 0-4 3v17.005000000000003h-.001z"/></svg>