<svg xmlns="http://www.w3.org/2000/svg" width="24" height="24" viewBox="0 0 24 24"><path fill="#fff" fill-rule="evenodd" clip-rule="evenodd" d="M17.432 13.634c-.459 0-.832-.374-.832-.833 0 0 .015-.344.14-.719.153-.562.242-1.151.242-1.763 0-3.675-2.98-6.653-6.657-6.653-3.678 0-6.659 2.978-6.659 6.653 0 3.675 2.981 6.654 6.659 6.654 1.823 0 3.474-.734 4.675-1.92.657-.531 1.22.003 1.22.003l2.864 2.862.007-.005 2.667 2.666c.324.324.324.852 0 1.178-.325.323-.854.323-1.18 0l-4.968-4.965c-1.436 1.172-3.27 1.876-5.27 1.876-4.606 0-8.34-3.731-8.34-8.334 0-4.602 3.733-8.334 8.34-8.334 4.605 0 8.339 3.732 8.339 8.334 0 .908-.156 1.777-.427 2.593-.016.101-.193.707-.82.707z"/></svg>