<svg xmlns="http://www.w3.org/2000/svg" width="52" height="48" viewBox="0 0 52 48"><linearGradient id="a" gradientUnits="userSpaceOnUse" x1="38.965" x2="38.965" y2="47.57"><stop offset="0" stop-color="#201C1D" stop-opacity="0"/><stop offset="1"/></linearGradient><path opacity=".3" fill-rule="evenodd" clip-rule="evenodd" fill="url(#a)" d="M51.261 16c-2.475 8.138-22.142 28.41-25.109 31.57 1.761-3.16 13.708-23.432 13.708-31.57-.001-8.837-5.133-16-13.931-16h14.436c8.705 0 13.584 7.163 10.896 16z"/><path fill-rule="evenodd" clip-rule="evenodd" fill="#E43945" d="M26 48.001c.096 0-15.929-23.164-15.929-32.001 0-8.837 7.131-16.001 15.929-16.001 8.796 0 15.929 7.164 15.929 16.001 0 8.837-16.099 32.001-15.929 32.001zm0-37.005c-2.75 0-4.981 2.24-4.981 5.004 0 2.762 2.231 5.002 4.981 5.002 2.751 0 4.979-2.24 4.979-5.002 0-2.764-2.228-5.004-4.979-5.004z"/></svg>